<svg width="1064" height="624" viewBox="0 0 1064 624" fill="none" xmlns="http://www.w3.org/2000/svg">
<rect width="1064" height="624" fill="#FAFAFA"/>
<path d="M121.972 120.131C121.835 118.756 121.25 117.687 120.216 116.926C119.182 116.165 117.778 115.784 116.006 115.784C114.801 115.784 113.784 115.955 112.955 116.295C112.125 116.625 111.489 117.085 111.045 117.676C110.614 118.267 110.398 118.938 110.398 119.688C110.375 120.312 110.506 120.858 110.79 121.324C111.085 121.79 111.489 122.193 112 122.534C112.511 122.864 113.102 123.153 113.773 123.403C114.443 123.642 115.159 123.847 115.92 124.017L119.057 124.767C120.58 125.108 121.977 125.562 123.25 126.131C124.523 126.699 125.625 127.398 126.557 128.227C127.489 129.057 128.21 130.034 128.722 131.159C129.244 132.284 129.511 133.574 129.523 135.028C129.511 137.165 128.966 139.017 127.886 140.585C126.818 142.142 125.273 143.352 123.25 144.216C121.239 145.068 118.813 145.494 115.972 145.494C113.153 145.494 110.699 145.062 108.608 144.199C106.528 143.335 104.903 142.057 103.733 140.364C102.574 138.659 101.966 136.551 101.909 134.04H109.051C109.131 135.21 109.466 136.187 110.057 136.972C110.659 137.744 111.46 138.33 112.46 138.727C113.472 139.114 114.614 139.307 115.886 139.307C117.136 139.307 118.222 139.125 119.142 138.761C120.074 138.398 120.795 137.892 121.307 137.244C121.818 136.597 122.074 135.852 122.074 135.011C122.074 134.227 121.841 133.568 121.375 133.034C120.92 132.5 120.25 132.045 119.364 131.67C118.489 131.295 117.415 130.955 116.142 130.648L112.341 129.693C109.398 128.977 107.074 127.858 105.369 126.335C103.665 124.812 102.818 122.761 102.83 120.182C102.818 118.068 103.381 116.222 104.517 114.642C105.665 113.062 107.239 111.83 109.239 110.943C111.239 110.057 113.511 109.614 116.057 109.614C118.648 109.614 120.909 110.057 122.841 110.943C124.784 111.83 126.295 113.062 127.375 114.642C128.455 116.222 129.011 118.051 129.045 120.131H121.972ZM151.141 133.852V118.818H158.402V145H151.43V140.244H151.158C150.567 141.778 149.584 143.011 148.209 143.943C146.845 144.875 145.18 145.341 143.214 145.341C141.464 145.341 139.925 144.943 138.595 144.148C137.266 143.352 136.226 142.222 135.476 140.756C134.737 139.29 134.362 137.534 134.351 135.489V118.818H141.612V134.193C141.624 135.739 142.038 136.96 142.857 137.858C143.675 138.756 144.771 139.205 146.146 139.205C147.021 139.205 147.839 139.006 148.601 138.608C149.362 138.199 149.976 137.597 150.442 136.801C150.919 136.006 151.152 135.023 151.141 133.852ZM176.04 145.511C173.358 145.511 171.051 144.943 169.119 143.807C167.199 142.659 165.722 141.068 164.688 139.034C163.665 137 163.153 134.659 163.153 132.011C163.153 129.33 163.67 126.977 164.705 124.955C165.75 122.92 167.233 121.335 169.153 120.199C171.074 119.051 173.358 118.477 176.006 118.477C178.29 118.477 180.29 118.892 182.006 119.722C183.722 120.551 185.08 121.716 186.08 123.216C187.08 124.716 187.631 126.477 187.733 128.5H180.881C180.688 127.193 180.176 126.142 179.347 125.347C178.528 124.54 177.455 124.136 176.125 124.136C175 124.136 174.017 124.443 173.176 125.057C172.347 125.659 171.699 126.54 171.233 127.699C170.767 128.858 170.534 130.261 170.534 131.909C170.534 133.58 170.761 135 171.216 136.17C171.682 137.341 172.335 138.233 173.176 138.847C174.017 139.46 175 139.767 176.125 139.767C176.955 139.767 177.699 139.597 178.358 139.256C179.028 138.915 179.58 138.42 180.011 137.773C180.455 137.114 180.744 136.324 180.881 135.403H187.733C187.619 137.403 187.074 139.165 186.097 140.688C185.131 142.199 183.795 143.381 182.091 144.233C180.386 145.085 178.369 145.511 176.04 145.511ZM204.212 145.511C201.53 145.511 199.223 144.943 197.291 143.807C195.371 142.659 193.893 141.068 192.859 139.034C191.837 137 191.325 134.659 191.325 132.011C191.325 129.33 191.842 126.977 192.876 124.955C193.922 122.92 195.405 121.335 197.325 120.199C199.246 119.051 201.53 118.477 204.178 118.477C206.462 118.477 208.462 118.892 210.178 119.722C211.893 120.551 213.251 121.716 214.251 123.216C215.251 124.716 215.803 126.477 215.905 128.5H209.053C208.859 127.193 208.348 126.142 207.518 125.347C206.7 124.54 205.626 124.136 204.297 124.136C203.172 124.136 202.189 124.443 201.348 125.057C200.518 125.659 199.871 126.54 199.405 127.699C198.939 128.858 198.706 130.261 198.706 131.909C198.706 133.58 198.933 135 199.388 136.17C199.854 137.341 200.507 138.233 201.348 138.847C202.189 139.46 203.172 139.767 204.297 139.767C205.126 139.767 205.871 139.597 206.53 139.256C207.2 138.915 207.751 138.42 208.183 137.773C208.626 137.114 208.916 136.324 209.053 135.403H215.905C215.791 137.403 215.246 139.165 214.268 140.688C213.303 142.199 211.967 143.381 210.263 144.233C208.558 145.085 206.541 145.511 204.212 145.511ZM232.486 145.511C229.793 145.511 227.474 144.966 225.531 143.875C223.599 142.773 222.111 141.216 221.065 139.205C220.02 137.182 219.497 134.79 219.497 132.028C219.497 129.335 220.02 126.972 221.065 124.938C222.111 122.903 223.582 121.318 225.48 120.182C227.389 119.045 229.628 118.477 232.196 118.477C233.923 118.477 235.531 118.756 237.02 119.312C238.52 119.858 239.827 120.682 240.94 121.784C242.065 122.886 242.94 124.273 243.565 125.943C244.19 127.602 244.503 129.545 244.503 131.773V133.767H222.395V129.267H237.668C237.668 128.222 237.44 127.295 236.986 126.489C236.531 125.682 235.901 125.051 235.094 124.597C234.298 124.131 233.372 123.898 232.315 123.898C231.213 123.898 230.236 124.153 229.384 124.665C228.543 125.165 227.884 125.841 227.406 126.693C226.929 127.534 226.685 128.472 226.673 129.506V133.784C226.673 135.08 226.912 136.199 227.389 137.142C227.878 138.085 228.565 138.812 229.452 139.324C230.338 139.835 231.389 140.091 232.605 140.091C233.412 140.091 234.151 139.977 234.821 139.75C235.491 139.523 236.065 139.182 236.543 138.727C237.02 138.273 237.384 137.716 237.634 137.057L244.349 137.5C244.009 139.114 243.31 140.523 242.253 141.727C241.207 142.92 239.855 143.852 238.196 144.523C236.548 145.182 234.645 145.511 232.486 145.511ZM271.026 126.284L264.378 126.693C264.264 126.125 264.02 125.614 263.645 125.159C263.27 124.693 262.776 124.324 262.162 124.051C261.56 123.767 260.838 123.625 259.997 123.625C258.872 123.625 257.923 123.864 257.151 124.341C256.378 124.807 255.991 125.432 255.991 126.216C255.991 126.841 256.241 127.369 256.741 127.801C257.241 128.233 258.099 128.58 259.315 128.841L264.054 129.795C266.599 130.318 268.497 131.159 269.747 132.318C270.997 133.477 271.622 135 271.622 136.886C271.622 138.602 271.116 140.108 270.105 141.403C269.105 142.699 267.73 143.71 265.98 144.438C264.241 145.153 262.236 145.511 259.963 145.511C256.497 145.511 253.736 144.79 251.679 143.347C249.634 141.892 248.435 139.915 248.082 137.415L255.224 137.04C255.44 138.097 255.963 138.903 256.793 139.46C257.622 140.006 258.685 140.278 259.98 140.278C261.253 140.278 262.276 140.034 263.048 139.545C263.832 139.045 264.23 138.403 264.241 137.619C264.23 136.96 263.952 136.42 263.406 136C262.861 135.568 262.02 135.239 260.884 135.011L256.349 134.108C253.793 133.597 251.889 132.71 250.639 131.449C249.401 130.187 248.781 128.58 248.781 126.625C248.781 124.943 249.236 123.494 250.145 122.278C251.065 121.062 252.355 120.125 254.014 119.466C255.685 118.807 257.639 118.477 259.878 118.477C263.185 118.477 265.787 119.176 267.685 120.574C269.594 121.972 270.707 123.875 271.026 126.284ZM297.979 126.284L291.331 126.693C291.217 126.125 290.973 125.614 290.598 125.159C290.223 124.693 289.729 124.324 289.115 124.051C288.513 123.767 287.791 123.625 286.95 123.625C285.825 123.625 284.876 123.864 284.104 124.341C283.331 124.807 282.945 125.432 282.945 126.216C282.945 126.841 283.195 127.369 283.695 127.801C284.195 128.233 285.053 128.58 286.268 128.841L291.007 129.795C293.553 130.318 295.45 131.159 296.7 132.318C297.95 133.477 298.575 135 298.575 136.886C298.575 138.602 298.07 140.108 297.058 141.403C296.058 142.699 294.683 143.71 292.933 144.438C291.195 145.153 289.189 145.511 286.916 145.511C283.45 145.511 280.689 144.79 278.632 143.347C276.587 141.892 275.388 139.915 275.036 137.415L282.178 137.04C282.393 138.097 282.916 138.903 283.746 139.46C284.575 140.006 285.638 140.278 286.933 140.278C288.206 140.278 289.229 140.034 290.001 139.545C290.786 139.045 291.183 138.403 291.195 137.619C291.183 136.96 290.905 136.42 290.359 136C289.814 135.568 288.973 135.239 287.837 135.011L283.303 134.108C280.746 133.597 278.842 132.71 277.592 131.449C276.354 130.187 275.734 128.58 275.734 126.625C275.734 124.943 276.189 123.494 277.098 122.278C278.018 121.062 279.308 120.125 280.967 119.466C282.638 118.807 284.592 118.477 286.831 118.477C290.138 118.477 292.74 119.176 294.638 120.574C296.547 121.972 297.661 123.875 297.979 126.284Z" fill="#111617"/>
<rect x="100" y="206" width="56" height="56" rx="8" fill="#E7F1EC"/>
<path d="M174.006 212.364V224H171.545V214.699H171.477L168.812 216.369V214.188L171.693 212.364H174.006ZM181.334 224.256C180.357 224.252 179.516 224.011 178.811 223.534C178.11 223.057 177.571 222.366 177.192 221.46C176.817 220.555 176.631 219.466 176.635 218.193C176.635 216.924 176.822 215.843 177.197 214.949C177.576 214.055 178.116 213.375 178.817 212.909C179.521 212.439 180.36 212.205 181.334 212.205C182.307 212.205 183.144 212.439 183.845 212.909C184.55 213.379 185.091 214.061 185.47 214.955C185.849 215.845 186.036 216.924 186.033 218.193C186.033 219.47 185.843 220.561 185.464 221.466C185.089 222.371 184.552 223.062 183.851 223.54C183.15 224.017 182.311 224.256 181.334 224.256ZM181.334 222.216C182 222.216 182.533 221.881 182.93 221.21C183.328 220.54 183.525 219.534 183.521 218.193C183.521 217.311 183.43 216.576 183.249 215.989C183.071 215.402 182.817 214.96 182.487 214.665C182.161 214.369 181.777 214.222 181.334 214.222C180.671 214.222 180.141 214.553 179.743 215.216C179.345 215.879 179.144 216.871 179.141 218.193C179.141 219.087 179.23 219.833 179.408 220.432C179.589 221.027 179.845 221.473 180.175 221.773C180.504 222.068 180.891 222.216 181.334 222.216ZM192.349 224.256C191.372 224.252 190.531 224.011 189.827 223.534C189.126 223.057 188.586 222.366 188.207 221.46C187.832 220.555 187.647 219.466 187.651 218.193C187.651 216.924 187.838 215.843 188.213 214.949C188.592 214.055 189.132 213.375 189.832 212.909C190.537 212.439 191.376 212.205 192.349 212.205C193.323 212.205 194.16 212.439 194.861 212.909C195.565 213.379 196.107 214.061 196.486 214.955C196.865 215.845 197.052 216.924 197.048 218.193C197.048 219.47 196.859 220.561 196.48 221.466C196.105 222.371 195.567 223.062 194.866 223.54C194.166 224.017 193.327 224.256 192.349 224.256ZM192.349 222.216C193.016 222.216 193.548 221.881 193.946 221.21C194.344 220.54 194.541 219.534 194.537 218.193C194.537 217.311 194.446 216.576 194.264 215.989C194.086 215.402 193.832 214.96 193.503 214.665C193.177 214.369 192.793 214.222 192.349 214.222C191.687 214.222 191.156 214.553 190.759 215.216C190.361 215.879 190.16 216.871 190.156 218.193C190.156 219.087 190.245 219.833 190.423 220.432C190.605 221.027 190.861 221.473 191.19 221.773C191.52 222.068 191.906 222.216 192.349 222.216Z" fill="#1F2727"/>
<path d="M172.872 245L174.543 234.818H175.537L173.866 245H172.872ZM168.239 242.176L168.398 241.182H175.994L175.835 242.176H168.239ZM169.293 245L170.963 234.818H171.957L170.287 245H169.293ZM168.835 238.636L168.994 237.642H176.591L176.432 238.636H168.835ZM178.065 245V234.818H184.21V235.912H179.298V239.352H183.892V240.446H179.298V243.906H184.289V245H178.065ZM186.571 245L191.125 235.991V235.912H185.875V234.818H192.398V235.972L187.864 245H186.571ZM194.43 245V234.818H200.535V235.912H195.663V239.352H200.078V240.446H195.663V245H194.43ZM206.048 234.818V245H204.815V236.111H204.755L202.269 237.761V236.509L204.815 234.818H206.048ZM209.155 245V234.818H215.3V235.912H210.388V239.352H214.982V240.446H210.388V243.906H215.379V245H209.155ZM225.715 238H224.482C224.409 237.645 224.282 237.334 224.099 237.065C223.92 236.797 223.702 236.571 223.443 236.389C223.188 236.204 222.905 236.064 222.593 235.972C222.281 235.879 221.957 235.832 221.619 235.832C221.002 235.832 220.444 235.988 219.943 236.3C219.446 236.611 219.05 237.07 218.755 237.677C218.463 238.283 218.317 239.027 218.317 239.909C218.317 240.791 218.463 241.535 218.755 242.141C219.05 242.748 219.446 243.207 219.943 243.518C220.444 243.83 221.002 243.986 221.619 243.986C221.957 243.986 222.281 243.939 222.593 243.847C222.905 243.754 223.188 243.616 223.443 243.434C223.702 243.248 223.92 243.021 224.099 242.753C224.282 242.481 224.409 242.17 224.482 241.818H225.715C225.622 242.339 225.453 242.804 225.208 243.215C224.963 243.626 224.658 243.976 224.293 244.264C223.929 244.549 223.519 244.766 223.065 244.915C222.615 245.065 222.132 245.139 221.619 245.139C220.75 245.139 219.978 244.927 219.302 244.503C218.626 244.079 218.094 243.475 217.706 242.693C217.318 241.911 217.124 240.983 217.124 239.909C217.124 238.835 217.318 237.907 217.706 237.125C218.094 236.343 218.626 235.74 219.302 235.315C219.978 234.891 220.75 234.679 221.619 234.679C222.132 234.679 222.615 234.754 223.065 234.903C223.519 235.052 223.929 235.271 224.293 235.559C224.658 235.844 224.963 236.192 225.208 236.603C225.453 237.011 225.622 237.476 225.715 238Z" fill="#393E3F"/>
<rect x="321" y="206" width="56" height="56" rx="8" fill="#B8D6C6"/>
<path d="M389.943 224V222.227L394.085 218.392C394.438 218.051 394.733 217.744 394.972 217.472C395.214 217.199 395.398 216.932 395.523 216.67C395.648 216.405 395.71 216.119 395.71 215.812C395.71 215.472 395.633 215.178 395.477 214.932C395.322 214.682 395.11 214.491 394.841 214.358C394.572 214.222 394.267 214.153 393.926 214.153C393.57 214.153 393.259 214.225 392.994 214.369C392.729 214.513 392.525 214.72 392.381 214.989C392.237 215.258 392.165 215.578 392.165 215.949H389.83C389.83 215.187 390.002 214.527 390.347 213.966C390.691 213.405 391.174 212.972 391.795 212.665C392.417 212.358 393.133 212.205 393.943 212.205C394.777 212.205 395.502 212.352 396.119 212.648C396.741 212.939 397.223 213.345 397.568 213.864C397.913 214.383 398.085 214.977 398.085 215.648C398.085 216.087 397.998 216.521 397.824 216.949C397.653 217.377 397.348 217.852 396.909 218.375C396.47 218.894 395.85 219.517 395.051 220.244L393.352 221.909V221.989H398.239V224H389.943ZM404.584 224.256C403.607 224.252 402.766 224.011 402.061 223.534C401.36 223.057 400.821 222.366 400.442 221.46C400.067 220.555 399.881 219.466 399.885 218.193C399.885 216.924 400.072 215.843 400.447 214.949C400.826 214.055 401.366 213.375 402.067 212.909C402.771 212.439 403.61 212.205 404.584 212.205C405.557 212.205 406.394 212.439 407.095 212.909C407.8 213.379 408.341 214.061 408.72 214.955C409.099 215.845 409.286 216.924 409.283 218.193C409.283 219.47 409.093 220.561 408.714 221.466C408.339 222.371 407.802 223.062 407.101 223.54C406.4 224.017 405.561 224.256 404.584 224.256ZM404.584 222.216C405.25 222.216 405.783 221.881 406.18 221.21C406.578 220.54 406.775 219.534 406.771 218.193C406.771 217.311 406.68 216.576 406.499 215.989C406.321 215.402 406.067 214.96 405.737 214.665C405.411 214.369 405.027 214.222 404.584 214.222C403.921 214.222 403.391 214.553 402.993 215.216C402.595 215.879 402.394 216.871 402.391 218.193C402.391 219.087 402.48 219.833 402.658 220.432C402.839 221.027 403.095 221.473 403.425 221.773C403.754 222.068 404.141 222.216 404.584 222.216ZM415.599 224.256C414.622 224.252 413.781 224.011 413.077 223.534C412.376 223.057 411.836 222.366 411.457 221.46C411.082 220.555 410.897 219.466 410.901 218.193C410.901 216.924 411.088 215.843 411.463 214.949C411.842 214.055 412.382 213.375 413.082 212.909C413.787 212.439 414.626 212.205 415.599 212.205C416.573 212.205 417.41 212.439 418.111 212.909C418.815 213.379 419.357 214.061 419.736 214.955C420.115 215.845 420.302 216.924 420.298 218.193C420.298 219.47 420.109 220.561 419.73 221.466C419.355 222.371 418.817 223.062 418.116 223.54C417.416 224.017 416.577 224.256 415.599 224.256ZM415.599 222.216C416.266 222.216 416.798 221.881 417.196 221.21C417.594 220.54 417.791 219.534 417.787 218.193C417.787 217.311 417.696 216.576 417.514 215.989C417.336 215.402 417.082 214.96 416.753 214.665C416.427 214.369 416.043 214.222 415.599 214.222C414.937 214.222 414.406 214.553 414.009 215.216C413.611 215.879 413.41 216.871 413.406 218.193C413.406 219.087 413.495 219.833 413.673 220.432C413.855 221.027 414.111 221.473 414.44 221.773C414.77 222.068 415.156 222.216 415.599 222.216Z" fill="#1F2727"/>
<path d="M393.872 245L395.543 234.818H396.537L394.866 245H393.872ZM389.239 242.176L389.398 241.182H396.994L396.835 242.176H389.239ZM390.293 245L391.963 234.818H392.957L391.287 245H390.293ZM389.835 238.636L389.994 237.642H397.591L397.432 238.636H389.835ZM399.065 245V234.818H402.625C403.334 234.818 403.919 234.941 404.38 235.186C404.84 235.428 405.183 235.754 405.409 236.165C405.634 236.573 405.747 237.026 405.747 237.523C405.747 237.96 405.669 238.321 405.513 238.607C405.361 238.892 405.158 239.117 404.907 239.283C404.658 239.448 404.388 239.571 404.096 239.651V239.75C404.408 239.77 404.721 239.879 405.036 240.078C405.351 240.277 405.614 240.562 405.826 240.933C406.038 241.304 406.145 241.759 406.145 242.295C406.145 242.806 406.029 243.265 405.797 243.673C405.565 244.08 405.198 244.403 404.698 244.642C404.197 244.881 403.546 245 402.744 245H399.065ZM400.298 243.906H402.744C403.549 243.906 404.121 243.75 404.459 243.439C404.801 243.124 404.971 242.743 404.971 242.295C404.971 241.951 404.883 241.633 404.708 241.341C404.532 241.046 404.282 240.811 403.957 240.635C403.632 240.456 403.248 240.366 402.804 240.366H400.298V243.906ZM400.298 239.293H402.585C402.956 239.293 403.291 239.22 403.589 239.074C403.891 238.928 404.129 238.723 404.305 238.457C404.484 238.192 404.574 237.881 404.574 237.523C404.574 237.075 404.418 236.696 404.106 236.384C403.795 236.069 403.301 235.912 402.625 235.912H400.298V239.293ZM411.253 245.139C410.57 245.139 409.967 245.018 409.443 244.776C408.923 244.531 408.517 244.195 408.225 243.767C407.933 243.336 407.789 242.846 407.793 242.295C407.789 241.865 407.874 241.467 408.046 241.102C408.219 240.734 408.454 240.428 408.752 240.183C409.054 239.934 409.39 239.777 409.761 239.71V239.651C409.274 239.525 408.886 239.251 408.598 238.83C408.31 238.406 408.167 237.924 408.17 237.384C408.167 236.866 408.298 236.404 408.563 235.996C408.828 235.589 409.193 235.267 409.657 235.032C410.124 234.797 410.656 234.679 411.253 234.679C411.843 234.679 412.37 234.797 412.834 235.032C413.298 235.267 413.662 235.589 413.928 235.996C414.196 236.404 414.332 236.866 414.335 237.384C414.332 237.924 414.184 238.406 413.893 238.83C413.604 239.251 413.222 239.525 412.744 239.651V239.71C413.112 239.777 413.444 239.934 413.739 240.183C414.034 240.428 414.269 240.734 414.445 241.102C414.62 241.467 414.71 241.865 414.713 242.295C414.71 242.846 414.561 243.336 414.266 243.767C413.974 244.195 413.568 244.531 413.048 244.776C412.531 245.018 411.932 245.139 411.253 245.139ZM411.253 244.045C411.714 244.045 412.111 243.971 412.446 243.822C412.781 243.673 413.039 243.462 413.222 243.19C413.404 242.919 413.497 242.6 413.5 242.236C413.497 241.851 413.397 241.512 413.202 241.217C413.006 240.922 412.739 240.69 412.401 240.521C412.067 240.352 411.684 240.267 411.253 240.267C410.819 240.267 410.431 240.352 410.089 240.521C409.751 240.69 409.485 240.922 409.289 241.217C409.097 241.512 409.002 241.851 409.006 242.236C409.002 242.6 409.09 242.919 409.269 243.19C409.451 243.462 409.712 243.673 410.05 243.822C410.388 243.971 410.789 244.045 411.253 244.045ZM411.253 239.213C411.617 239.213 411.941 239.14 412.222 238.994C412.507 238.848 412.731 238.645 412.893 238.383C413.056 238.121 413.139 237.814 413.142 237.463C413.139 237.118 413.058 236.818 412.898 236.563C412.739 236.305 412.519 236.106 412.237 235.967C411.955 235.824 411.627 235.753 411.253 235.753C410.872 235.753 410.539 235.824 410.254 235.967C409.969 236.106 409.748 236.305 409.592 236.563C409.437 236.818 409.36 237.118 409.364 237.463C409.36 237.814 409.438 238.121 409.597 238.383C409.76 238.645 409.983 238.848 410.268 238.994C410.554 239.14 410.882 239.213 411.253 239.213ZM419.939 245H416.797V234.818H420.079C421.066 234.818 421.912 235.022 422.614 235.43C423.317 235.834 423.855 236.416 424.23 237.175C424.604 237.93 424.792 238.835 424.792 239.889C424.792 240.95 424.603 241.863 424.225 242.629C423.847 243.391 423.297 243.978 422.574 244.388C421.852 244.796 420.974 245 419.939 245ZM418.03 243.906H419.86C420.702 243.906 421.399 243.744 421.953 243.419C422.506 243.094 422.919 242.632 423.191 242.032C423.463 241.432 423.599 240.718 423.599 239.889C423.599 239.067 423.464 238.36 423.196 237.766C422.927 237.17 422.526 236.712 421.993 236.394C421.459 236.073 420.795 235.912 419.999 235.912H418.03V243.906ZM430.062 245.139C429.644 245.133 429.226 245.053 428.809 244.901C428.391 244.748 428.01 244.491 427.665 244.13C427.321 243.765 427.044 243.273 426.835 242.653C426.626 242.03 426.522 241.248 426.522 240.307C426.522 239.405 426.606 238.607 426.775 237.911C426.944 237.211 427.19 236.623 427.511 236.146C427.833 235.665 428.22 235.3 428.675 235.052C429.132 234.803 429.647 234.679 430.221 234.679C430.791 234.679 431.298 234.793 431.742 235.022C432.189 235.247 432.554 235.562 432.836 235.967C433.117 236.371 433.3 236.837 433.383 237.364H432.17C432.057 236.906 431.838 236.527 431.513 236.225C431.189 235.924 430.758 235.773 430.221 235.773C429.432 235.773 428.81 236.116 428.356 236.802C427.906 237.488 427.679 238.451 427.675 239.69H427.755C427.94 239.409 428.161 239.168 428.416 238.969C428.675 238.767 428.96 238.612 429.271 238.502C429.583 238.393 429.912 238.338 430.26 238.338C430.844 238.338 431.377 238.484 431.861 238.776C432.345 239.064 432.733 239.463 433.025 239.974C433.316 240.481 433.462 241.062 433.462 241.719C433.462 242.348 433.321 242.925 433.04 243.449C432.758 243.969 432.362 244.384 431.851 244.692C431.344 244.997 430.748 245.146 430.062 245.139ZM430.062 244.045C430.479 244.045 430.854 243.941 431.185 243.732C431.52 243.523 431.783 243.243 431.976 242.892C432.171 242.541 432.269 242.15 432.269 241.719C432.269 241.298 432.175 240.915 431.986 240.57C431.8 240.222 431.543 239.946 431.215 239.74C430.89 239.535 430.519 239.432 430.101 239.432C429.787 239.432 429.493 239.495 429.221 239.621C428.95 239.743 428.711 239.912 428.506 240.128C428.303 240.343 428.144 240.59 428.028 240.869C427.912 241.144 427.854 241.434 427.854 241.739C427.854 242.143 427.949 242.521 428.138 242.872C428.33 243.223 428.592 243.507 428.923 243.722C429.258 243.938 429.637 244.045 430.062 244.045ZM443.789 238H442.556C442.484 237.645 442.356 237.334 442.174 237.065C441.995 236.797 441.776 236.571 441.517 236.389C441.262 236.204 440.979 236.064 440.667 235.972C440.356 235.879 440.031 235.832 439.693 235.832C439.076 235.832 438.518 235.988 438.017 236.3C437.52 236.611 437.124 237.07 436.829 237.677C436.538 238.283 436.392 239.027 436.392 239.909C436.392 240.791 436.538 241.535 436.829 242.141C437.124 242.748 437.52 243.207 438.017 243.518C438.518 243.83 439.076 243.986 439.693 243.986C440.031 243.986 440.356 243.939 440.667 243.847C440.979 243.754 441.262 243.616 441.517 243.434C441.776 243.248 441.995 243.021 442.174 242.753C442.356 242.481 442.484 242.17 442.556 241.818H443.789C443.697 242.339 443.528 242.804 443.282 243.215C443.037 243.626 442.732 243.976 442.368 244.264C442.003 244.549 441.594 244.766 441.14 244.915C440.689 245.065 440.207 245.139 439.693 245.139C438.824 245.139 438.052 244.927 437.376 244.503C436.7 244.079 436.168 243.475 435.78 242.693C435.392 241.911 435.199 240.983 435.199 239.909C435.199 238.835 435.392 237.907 435.78 237.125C436.168 236.343 436.7 235.74 437.376 235.315C438.052 234.891 438.824 234.679 439.693 234.679C440.207 234.679 440.689 234.754 441.14 234.903C441.594 235.052 442.003 235.271 442.368 235.559C442.732 235.844 443.037 236.192 443.282 236.603C443.528 237.011 443.697 237.476 443.789 238ZM448.983 245.139C448.566 245.133 448.148 245.053 447.731 244.901C447.313 244.748 446.932 244.491 446.587 244.13C446.242 243.765 445.966 243.273 445.757 242.653C445.548 242.03 445.444 241.248 445.444 240.307C445.444 239.405 445.528 238.607 445.697 237.911C445.866 237.211 446.112 236.623 446.433 236.146C446.755 235.665 447.142 235.3 447.596 235.052C448.054 234.803 448.569 234.679 449.143 234.679C449.713 234.679 450.22 234.793 450.664 235.022C451.111 235.247 451.476 235.562 451.758 235.967C452.039 236.371 452.222 236.837 452.305 237.364H451.091C450.979 236.906 450.76 236.527 450.435 236.225C450.11 235.924 449.68 235.773 449.143 235.773C448.354 235.773 447.732 236.116 447.278 236.802C446.827 237.488 446.6 238.451 446.597 239.69H446.677C446.862 239.409 447.083 239.168 447.338 238.969C447.596 238.767 447.881 238.612 448.193 238.502C448.505 238.393 448.834 238.338 449.182 238.338C449.766 238.338 450.299 238.484 450.783 238.776C451.267 239.064 451.655 239.463 451.947 239.974C452.238 240.481 452.384 241.062 452.384 241.719C452.384 242.348 452.243 242.925 451.961 243.449C451.68 243.969 451.284 244.384 450.773 244.692C450.266 244.997 449.67 245.146 448.983 245.139ZM448.983 244.045C449.401 244.045 449.776 243.941 450.107 243.732C450.442 243.523 450.705 243.243 450.898 242.892C451.093 242.541 451.191 242.15 451.191 241.719C451.191 241.298 451.096 240.915 450.907 240.57C450.722 240.222 450.465 239.946 450.137 239.74C449.812 239.535 449.441 239.432 449.023 239.432C448.708 239.432 448.415 239.495 448.143 239.621C447.872 239.743 447.633 239.912 447.427 240.128C447.225 240.343 447.066 240.59 446.95 240.869C446.834 241.144 446.776 241.434 446.776 241.739C446.776 242.143 446.871 242.521 447.059 242.872C447.252 243.223 447.514 243.507 447.845 243.722C448.18 243.938 448.559 244.045 448.983 244.045Z" fill="#393E3F"/>
<rect x="542" y="206" width="56" height="56" rx="8" fill="#439167"/>
<path d="M615.244 224.159C614.396 224.159 613.64 224.013 612.977 223.722C612.318 223.426 611.797 223.021 611.415 222.506C611.036 221.987 610.841 221.388 610.83 220.71H613.307C613.322 220.994 613.415 221.244 613.585 221.46C613.759 221.672 613.991 221.837 614.278 221.955C614.566 222.072 614.89 222.131 615.25 222.131C615.625 222.131 615.956 222.064 616.244 221.932C616.532 221.799 616.758 221.616 616.92 221.381C617.083 221.146 617.165 220.875 617.165 220.568C617.165 220.258 617.078 219.983 616.903 219.744C616.733 219.502 616.487 219.312 616.165 219.176C615.847 219.04 615.468 218.972 615.028 218.972H613.943V217.165H615.028C615.4 217.165 615.727 217.1 616.011 216.972C616.299 216.843 616.523 216.665 616.682 216.438C616.841 216.206 616.92 215.938 616.92 215.631C616.92 215.339 616.85 215.083 616.71 214.864C616.574 214.64 616.381 214.466 616.131 214.341C615.884 214.216 615.597 214.153 615.267 214.153C614.934 214.153 614.629 214.214 614.352 214.335C614.076 214.453 613.854 214.621 613.688 214.841C613.521 215.061 613.432 215.318 613.42 215.614H611.062C611.074 214.943 611.265 214.352 611.636 213.841C612.008 213.33 612.508 212.93 613.136 212.642C613.769 212.35 614.483 212.205 615.278 212.205C616.081 212.205 616.784 212.35 617.386 212.642C617.989 212.934 618.456 213.328 618.79 213.824C619.127 214.316 619.294 214.869 619.29 215.483C619.294 216.134 619.091 216.678 618.682 217.114C618.277 217.549 617.748 217.826 617.097 217.943V218.034C617.953 218.144 618.604 218.441 619.051 218.926C619.502 219.407 619.725 220.009 619.722 220.733C619.725 221.396 619.534 221.985 619.148 222.5C618.765 223.015 618.237 223.42 617.562 223.716C616.888 224.011 616.116 224.159 615.244 224.159ZM626.053 224.256C625.075 224.252 624.234 224.011 623.53 223.534C622.829 223.057 622.289 222.366 621.911 221.46C621.536 220.555 621.35 219.466 621.354 218.193C621.354 216.924 621.541 215.843 621.916 214.949C622.295 214.055 622.835 213.375 623.536 212.909C624.24 212.439 625.079 212.205 626.053 212.205C627.026 212.205 627.863 212.439 628.564 212.909C629.268 213.379 629.81 214.061 630.189 214.955C630.568 215.845 630.755 216.924 630.751 218.193C630.751 219.47 630.562 220.561 630.183 221.466C629.808 222.371 629.27 223.062 628.57 223.54C627.869 224.017 627.03 224.256 626.053 224.256ZM626.053 222.216C626.719 222.216 627.251 221.881 627.649 221.21C628.047 220.54 628.244 219.534 628.24 218.193C628.24 217.311 628.149 216.576 627.967 215.989C627.789 215.402 627.536 214.96 627.206 214.665C626.88 214.369 626.496 214.222 626.053 214.222C625.39 214.222 624.859 214.553 624.462 215.216C624.064 215.879 623.863 216.871 623.859 218.193C623.859 219.087 623.948 219.833 624.126 220.432C624.308 221.027 624.564 221.473 624.893 221.773C625.223 222.068 625.609 222.216 626.053 222.216ZM637.068 224.256C636.091 224.252 635.25 224.011 634.545 223.534C633.845 223.057 633.305 222.366 632.926 221.46C632.551 220.555 632.366 219.466 632.369 218.193C632.369 216.924 632.557 215.843 632.932 214.949C633.311 214.055 633.85 213.375 634.551 212.909C635.256 212.439 636.095 212.205 637.068 212.205C638.042 212.205 638.879 212.439 639.58 212.909C640.284 213.379 640.826 214.061 641.205 214.955C641.583 215.845 641.771 216.924 641.767 218.193C641.767 219.47 641.578 220.561 641.199 221.466C640.824 222.371 640.286 223.062 639.585 223.54C638.884 224.017 638.045 224.256 637.068 224.256ZM637.068 222.216C637.735 222.216 638.267 221.881 638.665 221.21C639.063 220.54 639.259 219.534 639.256 218.193C639.256 217.311 639.165 216.576 638.983 215.989C638.805 215.402 638.551 214.96 638.222 214.665C637.896 214.369 637.511 214.222 637.068 214.222C636.405 214.222 635.875 214.553 635.477 215.216C635.08 215.879 634.879 216.871 634.875 218.193C634.875 219.087 634.964 219.833 635.142 220.432C635.324 221.027 635.58 221.473 635.909 221.773C636.239 222.068 636.625 222.216 637.068 222.216Z" fill="#1F2727"/>
<path d="M614.872 245L616.543 234.818H617.537L615.866 245H614.872ZM610.239 242.176L610.398 241.182H617.994L617.835 242.176H610.239ZM611.293 245L612.963 234.818H613.957L612.287 245H611.293ZM610.835 238.636L610.994 237.642H618.591L618.432 238.636H610.835ZM619.647 242.912V241.898L624.122 234.818H624.858V236.389H624.36L620.98 241.739V241.818H627.005V242.912H619.647ZM624.44 245V242.604V242.131V234.818H625.613V245H624.44ZM632.309 245.139C631.653 245.139 631.068 245.027 630.554 244.801C630.043 244.576 629.637 244.263 629.336 243.862C629.037 243.457 628.875 242.988 628.849 242.455H630.101C630.128 242.783 630.241 243.066 630.439 243.305C630.638 243.54 630.898 243.722 631.22 243.852C631.541 243.981 631.898 244.045 632.289 244.045C632.726 244.045 633.114 243.969 633.452 243.817C633.79 243.664 634.055 243.452 634.248 243.18C634.44 242.909 634.536 242.594 634.536 242.236C634.536 241.861 634.443 241.531 634.258 241.246C634.072 240.958 633.8 240.733 633.442 240.57C633.084 240.408 632.647 240.327 632.13 240.327H631.314V239.233H632.13C632.534 239.233 632.889 239.16 633.194 239.014C633.502 238.868 633.742 238.663 633.915 238.398C634.09 238.133 634.178 237.821 634.178 237.463C634.178 237.118 634.102 236.818 633.949 236.563C633.797 236.308 633.581 236.109 633.303 235.967C633.028 235.824 632.703 235.753 632.329 235.753C631.977 235.753 631.646 235.817 631.334 235.947C631.026 236.073 630.774 236.257 630.579 236.499C630.383 236.737 630.277 237.026 630.26 237.364H629.067C629.087 236.83 629.248 236.363 629.55 235.962C629.851 235.557 630.246 235.242 630.733 235.017C631.223 234.792 631.762 234.679 632.349 234.679C632.978 234.679 633.519 234.807 633.969 235.062C634.42 235.314 634.766 235.647 635.008 236.061C635.25 236.475 635.371 236.923 635.371 237.403C635.371 237.977 635.22 238.466 634.919 238.87C634.621 239.274 634.215 239.554 633.701 239.71V239.79C634.344 239.896 634.846 240.169 635.207 240.61C635.568 241.048 635.749 241.589 635.749 242.236C635.749 242.789 635.598 243.286 635.297 243.727C634.998 244.165 634.591 244.509 634.074 244.761C633.557 245.013 632.968 245.139 632.309 245.139ZM641.024 234.679C641.442 234.682 641.859 234.762 642.277 234.918C642.694 235.073 643.076 235.332 643.42 235.693C643.765 236.051 644.042 236.54 644.251 237.16C644.459 237.78 644.564 238.557 644.564 239.491C644.564 240.396 644.478 241.2 644.305 241.903C644.136 242.602 643.891 243.192 643.569 243.673C643.251 244.153 642.863 244.518 642.406 244.766C641.952 245.015 641.438 245.139 640.865 245.139C640.295 245.139 639.786 245.027 639.339 244.801C638.894 244.572 638.53 244.256 638.245 243.852C637.963 243.444 637.782 242.972 637.703 242.435H638.916C639.025 242.902 639.242 243.288 639.567 243.593C639.895 243.895 640.328 244.045 640.865 244.045C641.65 244.045 642.27 243.702 642.724 243.016C643.182 242.33 643.41 241.361 643.41 240.108H643.331C643.145 240.386 642.925 240.627 642.67 240.829C642.414 241.031 642.131 241.187 641.819 241.296C641.508 241.406 641.176 241.46 640.825 241.46C640.242 241.46 639.706 241.316 639.219 241.028C638.735 240.736 638.348 240.337 638.056 239.83C637.768 239.319 637.623 238.736 637.623 238.08C637.623 237.456 637.763 236.886 638.041 236.369C638.323 235.849 638.717 235.435 639.224 235.126C639.735 234.818 640.335 234.669 641.024 234.679ZM641.024 235.773C640.606 235.773 640.23 235.877 639.895 236.086C639.564 236.291 639.3 236.57 639.105 236.921C638.913 237.269 638.817 237.655 638.817 238.08C638.817 238.504 638.909 238.89 639.095 239.238C639.284 239.583 639.541 239.858 639.866 240.063C640.194 240.265 640.567 240.366 640.984 240.366C641.299 240.366 641.592 240.305 641.864 240.183C642.136 240.057 642.373 239.886 642.575 239.67C642.781 239.452 642.941 239.205 643.057 238.93C643.173 238.651 643.231 238.361 643.231 238.06C643.231 237.662 643.135 237.289 642.943 236.941C642.754 236.593 642.492 236.311 642.157 236.096C641.826 235.88 641.448 235.773 641.024 235.773ZM650.098 234.818V245H648.865V236.111H648.806L646.32 237.761V236.509L648.865 234.818H650.098ZM656.407 245.139C655.99 245.133 655.572 245.053 655.154 244.901C654.737 244.748 654.356 244.491 654.011 244.13C653.666 243.765 653.39 243.273 653.181 242.653C652.972 242.03 652.868 241.248 652.868 240.307C652.868 239.405 652.952 238.607 653.121 237.911C653.29 237.211 653.535 236.623 653.857 236.146C654.178 235.665 654.566 235.3 655.02 235.052C655.478 234.803 655.993 234.679 656.566 234.679C657.136 234.679 657.644 234.793 658.088 235.022C658.535 235.247 658.9 235.562 659.181 235.967C659.463 236.371 659.645 236.837 659.728 237.364H658.515C658.403 236.906 658.184 236.527 657.859 236.225C657.534 235.924 657.103 235.773 656.566 235.773C655.778 235.773 655.156 236.116 654.702 236.802C654.251 237.488 654.024 238.451 654.021 239.69H654.1C654.286 239.409 654.507 239.168 654.762 238.969C655.02 238.767 655.305 238.612 655.617 238.502C655.928 238.393 656.258 238.338 656.606 238.338C657.19 238.338 657.723 238.484 658.207 238.776C658.691 239.064 659.079 239.463 659.37 239.974C659.662 240.481 659.808 241.062 659.808 241.719C659.808 242.348 659.667 242.925 659.385 243.449C659.104 243.969 658.708 244.384 658.197 244.692C657.69 244.997 657.093 245.146 656.407 245.139ZM656.407 244.045C656.825 244.045 657.199 243.941 657.531 243.732C657.866 243.523 658.129 243.243 658.321 242.892C658.517 242.541 658.615 242.15 658.615 241.719C658.615 241.298 658.52 240.915 658.331 240.57C658.146 240.222 657.889 239.946 657.561 239.74C657.236 239.535 656.865 239.432 656.447 239.432C656.132 239.432 655.839 239.495 655.567 239.621C655.295 239.743 655.057 239.912 654.851 240.128C654.649 240.343 654.49 240.59 654.374 240.869C654.258 241.144 654.2 241.434 654.2 241.739C654.2 242.143 654.294 242.521 654.483 242.872C654.676 243.223 654.937 243.507 655.269 243.722C655.604 243.938 655.983 244.045 656.407 244.045ZM662.081 245L666.635 235.991V235.912H661.385V234.818H667.908V235.972L663.374 245H662.081Z" fill="#393E3F"/>
<rect x="763" y="206" width="56" height="56" rx="8" fill="#147641"/>
<path d="M831.767 221.955V220.017L836.625 212.364H838.295V215.045H837.307L834.244 219.892V219.983H841.148V221.955H831.767ZM837.352 224V221.364L837.398 220.506V212.364H839.705V224H837.352ZM847.349 224.256C846.372 224.252 845.531 224.011 844.827 223.534C844.126 223.057 843.586 222.366 843.207 221.46C842.832 220.555 842.647 219.466 842.651 218.193C842.651 216.924 842.838 215.843 843.213 214.949C843.592 214.055 844.132 213.375 844.832 212.909C845.537 212.439 846.376 212.205 847.349 212.205C848.323 212.205 849.16 212.439 849.861 212.909C850.565 213.379 851.107 214.061 851.486 214.955C851.865 215.845 852.052 216.924 852.048 218.193C852.048 219.47 851.859 220.561 851.48 221.466C851.105 222.371 850.567 223.062 849.866 223.54C849.166 224.017 848.327 224.256 847.349 224.256ZM847.349 222.216C848.016 222.216 848.548 221.881 848.946 221.21C849.344 220.54 849.541 219.534 849.537 218.193C849.537 217.311 849.446 216.576 849.264 215.989C849.086 215.402 848.832 214.96 848.503 214.665C848.177 214.369 847.793 214.222 847.349 214.222C846.687 214.222 846.156 214.553 845.759 215.216C845.361 215.879 845.16 216.871 845.156 218.193C845.156 219.087 845.245 219.833 845.423 220.432C845.605 221.027 845.861 221.473 846.19 221.773C846.52 222.068 846.906 222.216 847.349 222.216ZM858.365 224.256C857.388 224.252 856.547 224.011 855.842 223.534C855.142 223.057 854.602 222.366 854.223 221.46C853.848 220.555 853.662 219.466 853.666 218.193C853.666 216.924 853.854 215.843 854.229 214.949C854.607 214.055 855.147 213.375 855.848 212.909C856.553 212.439 857.392 212.205 858.365 212.205C859.339 212.205 860.176 212.439 860.876 212.909C861.581 213.379 862.123 214.061 862.501 214.955C862.88 215.845 863.068 216.924 863.064 218.193C863.064 219.47 862.875 220.561 862.496 221.466C862.121 222.371 861.583 223.062 860.882 223.54C860.181 224.017 859.342 224.256 858.365 224.256ZM858.365 222.216C859.032 222.216 859.564 221.881 859.962 221.21C860.359 220.54 860.556 219.534 860.553 218.193C860.553 217.311 860.462 216.576 860.28 215.989C860.102 215.402 859.848 214.96 859.518 214.665C859.193 214.369 858.808 214.222 858.365 214.222C857.702 214.222 857.172 214.553 856.774 215.216C856.376 215.879 856.176 216.871 856.172 218.193C856.172 219.087 856.261 219.833 856.439 220.432C856.621 221.027 856.876 221.473 857.206 221.773C857.536 222.068 857.922 222.216 858.365 222.216Z" fill="#1F2727"/>
<path d="M835.872 245L837.543 234.818H838.537L836.866 245H835.872ZM831.239 242.176L831.398 241.182H838.994L838.835 242.176H831.239ZM832.293 245L833.963 234.818H834.957L833.287 245H832.293ZM831.835 238.636L831.994 237.642H839.591L839.432 238.636H831.835ZM844.466 234.818V245H843.233V236.111H843.173L840.687 237.761V236.509L843.233 234.818H844.466ZM847.155 242.912V241.898L851.63 234.818H852.365V236.389H851.868L848.488 241.739V241.818H854.513V242.912H847.155ZM851.948 245V242.604V242.131V234.818H853.121V245H851.948ZM856.694 245L861.248 235.991V235.912H855.998V234.818H862.521V235.972L857.987 245H856.694ZM867.536 245.139C867.119 245.133 866.701 245.053 866.283 244.901C865.866 244.748 865.485 244.491 865.14 244.13C864.795 243.765 864.518 243.273 864.31 242.653C864.101 242.03 863.996 241.248 863.996 240.307C863.996 239.405 864.081 238.607 864.25 237.911C864.419 237.211 864.664 236.623 864.986 236.146C865.307 235.665 865.695 235.3 866.149 235.052C866.607 234.803 867.122 234.679 867.695 234.679C868.265 234.679 868.772 234.793 869.217 235.022C869.664 235.247 870.029 235.562 870.31 235.967C870.592 236.371 870.774 236.837 870.857 237.364H869.644C869.531 236.906 869.313 236.527 868.988 236.225C868.663 235.924 868.232 235.773 867.695 235.773C866.906 235.773 866.285 236.116 865.831 236.802C865.38 237.488 865.153 238.451 865.15 239.69H865.229C865.415 239.409 865.635 239.168 865.891 238.969C866.149 238.767 866.434 238.612 866.746 238.502C867.057 238.393 867.387 238.338 867.735 238.338C868.318 238.338 868.852 238.484 869.336 238.776C869.82 239.064 870.208 239.463 870.499 239.974C870.791 240.481 870.937 241.062 870.937 241.719C870.937 242.348 870.796 242.925 870.514 243.449C870.232 243.969 869.836 244.384 869.326 244.692C868.819 244.997 868.222 245.146 867.536 245.139ZM867.536 244.045C867.954 244.045 868.328 243.941 868.66 243.732C868.995 243.523 869.258 243.243 869.45 242.892C869.646 242.541 869.744 242.15 869.744 241.719C869.744 241.298 869.649 240.915 869.46 240.57C869.275 240.222 869.018 239.946 868.69 239.74C868.365 239.535 867.994 239.432 867.576 239.432C867.261 239.432 866.968 239.495 866.696 239.621C866.424 239.743 866.186 239.912 865.98 240.128C865.778 240.343 865.619 240.59 865.503 240.869C865.387 241.144 865.329 241.434 865.329 241.739C865.329 242.143 865.423 242.521 865.612 242.872C865.804 243.223 866.066 243.507 866.398 243.722C866.732 243.938 867.112 244.045 867.536 244.045ZM872.653 242.912V241.898L877.128 234.818H877.863V236.389H877.366L873.986 241.739V241.818H880.011V242.912H872.653ZM877.446 245V242.604V242.131V234.818H878.619V245H877.446ZM885.317 234.818V245H884.084V236.111H884.025L881.539 237.761V236.509L884.084 234.818H885.317Z" fill="#393E3F"/>
<path d="M110.415 372.091V407H103.034V372.091H110.415ZM123.612 391.864V407H116.351V380.818H123.271V385.438H123.578C124.158 383.915 125.129 382.71 126.493 381.824C127.857 380.926 129.51 380.477 131.453 380.477C133.271 380.477 134.857 380.875 136.209 381.67C137.561 382.466 138.612 383.602 139.362 385.08C140.112 386.545 140.487 388.295 140.487 390.33V407H133.226V391.625C133.237 390.023 132.828 388.773 131.999 387.875C131.169 386.966 130.027 386.511 128.572 386.511C127.595 386.511 126.732 386.722 125.982 387.142C125.243 387.562 124.663 388.176 124.243 388.983C123.834 389.778 123.624 390.739 123.612 391.864ZM160.29 380.818V386.273H144.131V380.818H160.29ZM147.83 407V378.926C147.83 377.028 148.199 375.455 148.938 374.205C149.688 372.955 150.71 372.017 152.006 371.392C153.301 370.767 154.773 370.455 156.42 370.455C157.534 370.455 158.551 370.54 159.472 370.71C160.403 370.881 161.097 371.034 161.551 371.17L160.256 376.625C159.972 376.534 159.619 376.449 159.199 376.369C158.79 376.29 158.369 376.25 157.938 376.25C156.869 376.25 156.125 376.5 155.705 377C155.284 377.489 155.074 378.176 155.074 379.062V407H147.83ZM175.618 407.511C172.97 407.511 170.68 406.949 168.749 405.824C166.828 404.687 165.345 403.108 164.3 401.085C163.254 399.051 162.732 396.693 162.732 394.011C162.732 391.307 163.254 388.943 164.3 386.92C165.345 384.886 166.828 383.307 168.749 382.182C170.68 381.045 172.97 380.477 175.618 380.477C178.266 380.477 180.55 381.045 182.47 382.182C184.402 383.307 185.891 384.886 186.936 386.92C187.982 388.943 188.504 391.307 188.504 394.011C188.504 396.693 187.982 399.051 186.936 401.085C185.891 403.108 184.402 404.687 182.47 405.824C180.55 406.949 178.266 407.511 175.618 407.511ZM175.652 401.886C176.857 401.886 177.862 401.545 178.669 400.864C179.476 400.17 180.084 399.227 180.493 398.034C180.913 396.841 181.124 395.483 181.124 393.96C181.124 392.438 180.913 391.08 180.493 389.886C180.084 388.693 179.476 387.75 178.669 387.057C177.862 386.364 176.857 386.017 175.652 386.017C174.436 386.017 173.413 386.364 172.584 387.057C171.766 387.75 171.146 388.693 170.726 389.886C170.317 391.08 170.112 392.438 170.112 393.96C170.112 395.483 170.317 396.841 170.726 398.034C171.146 399.227 171.766 400.17 172.584 400.864C173.413 401.545 174.436 401.886 175.652 401.886Z" fill="#111617"/>
<rect x="100" y="468" width="56" height="56" rx="8" fill="#E7F0F7"/>
<path d="M174.006 474.364V486H171.545V476.699H171.477L168.812 478.369V476.188L171.693 474.364H174.006ZM181.334 486.256C180.357 486.252 179.516 486.011 178.811 485.534C178.11 485.057 177.571 484.366 177.192 483.46C176.817 482.555 176.631 481.466 176.635 480.193C176.635 478.924 176.822 477.843 177.197 476.949C177.576 476.055 178.116 475.375 178.817 474.909C179.521 474.439 180.36 474.205 181.334 474.205C182.307 474.205 183.144 474.439 183.845 474.909C184.55 475.379 185.091 476.061 185.47 476.955C185.849 477.845 186.036 478.924 186.033 480.193C186.033 481.47 185.843 482.561 185.464 483.466C185.089 484.371 184.552 485.062 183.851 485.54C183.15 486.017 182.311 486.256 181.334 486.256ZM181.334 484.216C182 484.216 182.533 483.881 182.93 483.21C183.328 482.54 183.525 481.534 183.521 480.193C183.521 479.311 183.43 478.576 183.249 477.989C183.071 477.402 182.817 476.96 182.487 476.665C182.161 476.369 181.777 476.222 181.334 476.222C180.671 476.222 180.141 476.553 179.743 477.216C179.345 477.879 179.144 478.871 179.141 480.193C179.141 481.087 179.23 481.833 179.408 482.432C179.589 483.027 179.845 483.473 180.175 483.773C180.504 484.068 180.891 484.216 181.334 484.216ZM192.349 486.256C191.372 486.252 190.531 486.011 189.827 485.534C189.126 485.057 188.586 484.366 188.207 483.46C187.832 482.555 187.647 481.466 187.651 480.193C187.651 478.924 187.838 477.843 188.213 476.949C188.592 476.055 189.132 475.375 189.832 474.909C190.537 474.439 191.376 474.205 192.349 474.205C193.323 474.205 194.16 474.439 194.861 474.909C195.565 475.379 196.107 476.061 196.486 476.955C196.865 477.845 197.052 478.924 197.048 480.193C197.048 481.47 196.859 482.561 196.48 483.466C196.105 484.371 195.567 485.062 194.866 485.54C194.166 486.017 193.327 486.256 192.349 486.256ZM192.349 484.216C193.016 484.216 193.548 483.881 193.946 483.21C194.344 482.54 194.541 481.534 194.537 480.193C194.537 479.311 194.446 478.576 194.264 477.989C194.086 477.402 193.832 476.96 193.503 476.665C193.177 476.369 192.793 476.222 192.349 476.222C191.687 476.222 191.156 476.553 190.759 477.216C190.361 477.879 190.16 478.871 190.156 480.193C190.156 481.087 190.245 481.833 190.423 482.432C190.605 483.027 190.861 483.473 191.19 483.773C191.52 484.068 191.906 484.216 192.349 484.216Z" fill="#1F2727"/>
<path d="M172.872 507L174.543 496.818H175.537L173.866 507H172.872ZM168.239 504.176L168.398 503.182H175.994L175.835 504.176H168.239ZM169.293 507L170.963 496.818H171.957L170.287 507H169.293ZM168.835 500.636L168.994 499.642H176.591L176.432 500.636H168.835ZM178.065 507V496.818H184.21V497.912H179.298V501.352H183.892V502.446H179.298V505.906H184.289V507H178.065ZM186.571 507L191.125 497.991V497.912H185.875V496.818H192.398V497.972L187.864 507H186.571ZM194.43 507V496.818H200.535V497.912H195.663V501.352H200.078V502.446H195.663V507H194.43ZM205.789 507.139C205.04 507.139 204.402 506.935 203.875 506.528C203.348 506.117 202.945 505.522 202.667 504.743C202.388 503.961 202.249 503.016 202.249 501.909C202.249 500.809 202.388 499.869 202.667 499.09C202.949 498.308 203.353 497.711 203.88 497.3C204.41 496.886 205.047 496.679 205.789 496.679C206.531 496.679 207.166 496.886 207.693 497.3C208.223 497.711 208.628 498.308 208.906 499.09C209.188 499.869 209.329 500.809 209.329 501.909C209.329 503.016 209.19 503.961 208.911 504.743C208.633 505.522 208.23 506.117 207.703 506.528C207.176 506.935 206.538 507.139 205.789 507.139ZM205.789 506.045C206.531 506.045 207.108 505.687 207.519 504.972C207.93 504.256 208.136 503.235 208.136 501.909C208.136 501.027 208.041 500.277 207.852 499.657C207.667 499.037 207.398 498.565 207.047 498.24C206.699 497.915 206.28 497.753 205.789 497.753C205.053 497.753 204.478 498.116 204.064 498.842C203.65 499.564 203.442 500.587 203.442 501.909C203.442 502.791 203.535 503.54 203.721 504.156C203.906 504.773 204.173 505.242 204.521 505.563C204.873 505.885 205.295 506.045 205.789 506.045ZM211.397 507V496.818H217.502V497.912H212.63V501.352H217.045V502.446H212.63V507H211.397ZM219.753 507L224.307 497.991V497.912H219.057V496.818H225.58V497.972L221.046 507H219.753Z" fill="#393E3F"/>
<rect x="321" y="468" width="56" height="56" rx="8" fill="#7398D9"/>
<path d="M389.943 486V484.227L394.085 480.392C394.438 480.051 394.733 479.744 394.972 479.472C395.214 479.199 395.398 478.932 395.523 478.67C395.648 478.405 395.71 478.119 395.71 477.812C395.71 477.472 395.633 477.178 395.477 476.932C395.322 476.682 395.11 476.491 394.841 476.358C394.572 476.222 394.267 476.153 393.926 476.153C393.57 476.153 393.259 476.225 392.994 476.369C392.729 476.513 392.525 476.72 392.381 476.989C392.237 477.258 392.165 477.578 392.165 477.949H389.83C389.83 477.187 390.002 476.527 390.347 475.966C390.691 475.405 391.174 474.972 391.795 474.665C392.417 474.358 393.133 474.205 393.943 474.205C394.777 474.205 395.502 474.352 396.119 474.648C396.741 474.939 397.223 475.345 397.568 475.864C397.913 476.383 398.085 476.977 398.085 477.648C398.085 478.087 397.998 478.521 397.824 478.949C397.653 479.377 397.348 479.852 396.909 480.375C396.47 480.894 395.85 481.517 395.051 482.244L393.352 483.909V483.989H398.239V486H389.943ZM404.584 486.256C403.607 486.252 402.766 486.011 402.061 485.534C401.36 485.057 400.821 484.366 400.442 483.46C400.067 482.555 399.881 481.466 399.885 480.193C399.885 478.924 400.072 477.843 400.447 476.949C400.826 476.055 401.366 475.375 402.067 474.909C402.771 474.439 403.61 474.205 404.584 474.205C405.557 474.205 406.394 474.439 407.095 474.909C407.8 475.379 408.341 476.061 408.72 476.955C409.099 477.845 409.286 478.924 409.283 480.193C409.283 481.47 409.093 482.561 408.714 483.466C408.339 484.371 407.802 485.062 407.101 485.54C406.4 486.017 405.561 486.256 404.584 486.256ZM404.584 484.216C405.25 484.216 405.783 483.881 406.18 483.21C406.578 482.54 406.775 481.534 406.771 480.193C406.771 479.311 406.68 478.576 406.499 477.989C406.321 477.402 406.067 476.96 405.737 476.665C405.411 476.369 405.027 476.222 404.584 476.222C403.921 476.222 403.391 476.553 402.993 477.216C402.595 477.879 402.394 478.871 402.391 480.193C402.391 481.087 402.48 481.833 402.658 482.432C402.839 483.027 403.095 483.473 403.425 483.773C403.754 484.068 404.141 484.216 404.584 484.216ZM415.599 486.256C414.622 486.252 413.781 486.011 413.077 485.534C412.376 485.057 411.836 484.366 411.457 483.46C411.082 482.555 410.897 481.466 410.901 480.193C410.901 478.924 411.088 477.843 411.463 476.949C411.842 476.055 412.382 475.375 413.082 474.909C413.787 474.439 414.626 474.205 415.599 474.205C416.573 474.205 417.41 474.439 418.111 474.909C418.815 475.379 419.357 476.061 419.736 476.955C420.115 477.845 420.302 478.924 420.298 480.193C420.298 481.47 420.109 482.561 419.73 483.466C419.355 484.371 418.817 485.062 418.116 485.54C417.416 486.017 416.577 486.256 415.599 486.256ZM415.599 484.216C416.266 484.216 416.798 483.881 417.196 483.21C417.594 482.54 417.791 481.534 417.787 480.193C417.787 479.311 417.696 478.576 417.514 477.989C417.336 477.402 417.082 476.96 416.753 476.665C416.427 476.369 416.043 476.222 415.599 476.222C414.937 476.222 414.406 476.553 414.009 477.216C413.611 477.879 413.41 478.871 413.406 480.193C413.406 481.087 413.495 481.833 413.673 482.432C413.855 483.027 414.111 483.473 414.44 483.773C414.77 484.068 415.156 484.216 415.599 484.216Z" fill="#1F2727"/>
<path d="M393.872 507L395.543 496.818H396.537L394.866 507H393.872ZM389.239 504.176L389.398 503.182H396.994L396.835 504.176H389.239ZM390.293 507L391.963 496.818H392.957L391.287 507H390.293ZM389.835 500.636L389.994 499.642H397.591L397.432 500.636H389.835ZM399.204 507L403.758 497.991V497.912H398.508V496.818H405.031V497.972L400.497 507H399.204ZM410.092 507.139C409.436 507.139 408.851 507.027 408.337 506.801C407.827 506.576 407.421 506.263 407.119 505.862C406.821 505.457 406.658 504.988 406.632 504.455H407.885C407.911 504.783 408.024 505.066 408.223 505.305C408.422 505.54 408.682 505.722 409.003 505.852C409.325 505.981 409.681 506.045 410.072 506.045C410.51 506.045 410.897 505.969 411.235 505.817C411.574 505.664 411.839 505.452 412.031 505.18C412.223 504.909 412.319 504.594 412.319 504.236C412.319 503.861 412.226 503.531 412.041 503.246C411.855 502.958 411.583 502.733 411.225 502.57C410.868 502.408 410.43 502.327 409.913 502.327H409.098V501.233H409.913C410.317 501.233 410.672 501.16 410.977 501.014C411.285 500.868 411.525 500.663 411.698 500.398C411.873 500.133 411.961 499.821 411.961 499.463C411.961 499.118 411.885 498.818 411.733 498.563C411.58 498.308 411.365 498.109 411.086 497.967C410.811 497.824 410.486 497.753 410.112 497.753C409.761 497.753 409.429 497.817 409.118 497.947C408.809 498.073 408.557 498.257 408.362 498.499C408.166 498.737 408.06 499.026 408.044 499.364H406.85C406.87 498.83 407.031 498.363 407.333 497.962C407.634 497.557 408.029 497.242 408.516 497.017C409.007 496.792 409.545 496.679 410.132 496.679C410.761 496.679 411.302 496.807 411.752 497.062C412.203 497.314 412.55 497.647 412.792 498.061C413.033 498.475 413.154 498.923 413.154 499.403C413.154 499.977 413.004 500.466 412.702 500.87C412.404 501.274 411.998 501.554 411.484 501.71V501.79C412.127 501.896 412.629 502.169 412.99 502.61C413.352 503.048 413.532 503.589 413.532 504.236C413.532 504.789 413.382 505.286 413.08 505.727C412.782 506.165 412.374 506.509 411.857 506.761C411.34 507.013 410.752 507.139 410.092 507.139ZM418.807 496.679C419.225 496.682 419.642 496.762 420.06 496.918C420.478 497.073 420.859 497.332 421.203 497.693C421.548 498.051 421.825 498.54 422.034 499.16C422.243 499.78 422.347 500.557 422.347 501.491C422.347 502.396 422.261 503.2 422.088 503.903C421.919 504.602 421.674 505.192 421.353 505.673C421.034 506.153 420.647 506.518 420.189 506.766C419.735 507.015 419.221 507.139 418.648 507.139C418.078 507.139 417.569 507.027 417.122 506.801C416.678 506.572 416.313 506.256 416.028 505.852C415.746 505.444 415.566 504.972 415.486 504.435H416.699C416.809 504.902 417.026 505.288 417.35 505.593C417.679 505.895 418.111 506.045 418.648 506.045C419.434 506.045 420.053 505.702 420.507 505.016C420.965 504.33 421.194 503.361 421.194 502.108H421.114C420.928 502.386 420.708 502.627 420.453 502.829C420.198 503.031 419.914 503.187 419.603 503.296C419.291 503.406 418.96 503.46 418.608 503.46C418.025 503.46 417.49 503.316 417.002 503.028C416.519 502.736 416.131 502.337 415.839 501.83C415.551 501.319 415.407 500.736 415.407 500.08C415.407 499.456 415.546 498.886 415.824 498.369C416.106 497.849 416.5 497.435 417.007 497.126C417.518 496.818 418.118 496.669 418.807 496.679ZM418.807 497.773C418.39 497.773 418.013 497.877 417.679 498.086C417.347 498.291 417.084 498.57 416.888 498.921C416.696 499.269 416.6 499.655 416.6 500.08C416.6 500.504 416.693 500.89 416.878 501.238C417.067 501.583 417.324 501.858 417.649 502.063C417.977 502.265 418.35 502.366 418.767 502.366C419.082 502.366 419.376 502.305 419.647 502.183C419.919 502.057 420.156 501.886 420.358 501.67C420.564 501.452 420.725 501.205 420.841 500.93C420.957 500.651 421.015 500.361 421.015 500.06C421.015 499.662 420.918 499.289 420.726 498.941C420.537 498.593 420.275 498.311 419.941 498.096C419.609 497.88 419.231 497.773 418.807 497.773ZM427.563 507.139C426.881 507.139 426.277 507.018 425.754 506.776C425.233 506.531 424.827 506.195 424.536 505.767C424.244 505.336 424.1 504.846 424.103 504.295C424.1 503.865 424.184 503.467 424.357 503.102C424.529 502.734 424.764 502.428 425.063 502.183C425.364 501.934 425.701 501.777 426.072 501.71V501.651C425.585 501.525 425.197 501.251 424.909 500.83C424.62 500.406 424.478 499.924 424.481 499.384C424.478 498.866 424.609 498.404 424.874 497.996C425.139 497.589 425.503 497.267 425.968 497.032C426.435 496.797 426.967 496.679 427.563 496.679C428.153 496.679 428.68 496.797 429.144 497.032C429.608 497.267 429.973 497.589 430.238 497.996C430.507 498.404 430.642 498.866 430.646 499.384C430.642 499.924 430.495 500.406 430.203 500.83C429.915 501.251 429.532 501.525 429.055 501.651V501.71C429.423 501.777 429.754 501.934 430.049 502.183C430.344 502.428 430.579 502.734 430.755 503.102C430.931 503.467 431.02 503.865 431.024 504.295C431.02 504.846 430.871 505.336 430.576 505.767C430.285 506.195 429.878 506.531 429.358 506.776C428.841 507.018 428.243 507.139 427.563 507.139ZM427.563 506.045C428.024 506.045 428.422 505.971 428.757 505.822C429.091 505.673 429.35 505.462 429.532 505.19C429.714 504.919 429.807 504.6 429.811 504.236C429.807 503.851 429.708 503.512 429.512 503.217C429.317 502.922 429.05 502.69 428.712 502.521C428.377 502.352 427.994 502.267 427.563 502.267C427.129 502.267 426.741 502.352 426.4 502.521C426.062 502.69 425.795 502.922 425.6 503.217C425.407 503.512 425.313 503.851 425.316 504.236C425.313 504.6 425.401 504.919 425.58 505.19C425.762 505.462 426.022 505.673 426.36 505.822C426.698 505.971 427.099 506.045 427.563 506.045ZM427.563 501.213C427.928 501.213 428.251 501.14 428.533 500.994C428.818 500.848 429.042 500.645 429.204 500.383C429.366 500.121 429.449 499.814 429.453 499.463C429.449 499.118 429.368 498.818 429.209 498.563C429.05 498.305 428.829 498.106 428.548 497.967C428.266 497.824 427.938 497.753 427.563 497.753C427.182 497.753 426.849 497.824 426.564 497.967C426.279 498.106 426.059 498.305 425.903 498.563C425.747 498.818 425.671 499.118 425.674 499.463C425.671 499.814 425.749 500.121 425.908 500.383C426.07 500.645 426.294 500.848 426.579 500.994C426.864 501.14 427.192 501.213 427.563 501.213ZM436.25 507H433.108V496.818H436.389C437.377 496.818 438.222 497.022 438.925 497.43C439.627 497.834 440.166 498.416 440.54 499.175C440.915 499.93 441.102 500.835 441.102 501.889C441.102 502.95 440.913 503.863 440.536 504.629C440.158 505.391 439.607 505.978 438.885 506.388C438.162 506.796 437.284 507 436.25 507ZM434.341 505.906H436.17C437.012 505.906 437.71 505.744 438.263 505.419C438.817 505.094 439.23 504.632 439.501 504.032C439.773 503.432 439.909 502.718 439.909 501.889C439.909 501.067 439.775 500.36 439.506 499.766C439.238 499.17 438.837 498.712 438.303 498.394C437.77 498.073 437.105 497.912 436.31 497.912H434.341V505.906ZM446.233 496.679C446.651 496.682 447.068 496.762 447.486 496.918C447.903 497.073 448.285 497.332 448.629 497.693C448.974 498.051 449.251 498.54 449.46 499.16C449.668 499.78 449.773 500.557 449.773 501.491C449.773 502.396 449.687 503.2 449.514 503.903C449.345 504.602 449.1 505.192 448.778 505.673C448.46 506.153 448.072 506.518 447.615 506.766C447.161 507.015 446.647 507.139 446.074 507.139C445.504 507.139 444.995 507.027 444.548 506.801C444.103 506.572 443.739 506.256 443.454 505.852C443.172 505.444 442.991 504.972 442.912 504.435H444.125C444.234 504.902 444.451 505.288 444.776 505.593C445.104 505.895 445.537 506.045 446.074 506.045C446.859 506.045 447.479 505.702 447.933 505.016C448.391 504.33 448.619 503.361 448.619 502.108H448.54C448.354 502.386 448.134 502.627 447.879 502.829C447.623 503.031 447.34 503.187 447.028 503.296C446.717 503.406 446.385 503.46 446.034 503.46C445.451 503.46 444.915 503.316 444.428 503.028C443.944 502.736 443.557 502.337 443.265 501.83C442.977 501.319 442.832 500.736 442.832 500.08C442.832 499.456 442.972 498.886 443.25 498.369C443.532 497.849 443.926 497.435 444.433 497.126C444.944 496.818 445.544 496.669 446.233 496.679ZM446.233 497.773C445.815 497.773 445.439 497.877 445.104 498.086C444.773 498.291 444.509 498.57 444.314 498.921C444.122 499.269 444.026 499.655 444.026 500.08C444.026 500.504 444.118 500.89 444.304 501.238C444.493 501.583 444.75 501.858 445.075 502.063C445.403 502.265 445.776 502.366 446.193 502.366C446.508 502.366 446.801 502.305 447.073 502.183C447.345 502.057 447.582 501.886 447.784 501.67C447.99 501.452 448.15 501.205 448.266 500.93C448.382 500.651 448.44 500.361 448.44 500.06C448.44 499.662 448.344 499.289 448.152 498.941C447.963 498.593 447.701 498.311 447.366 498.096C447.035 497.88 446.657 497.773 446.233 497.773Z" fill="#393E3F"/>
<rect x="542" y="468" width="56" height="56" rx="8" fill="#4575CD"/>
<path d="M615.244 486.159C614.396 486.159 613.64 486.013 612.977 485.722C612.318 485.426 611.797 485.021 611.415 484.506C611.036 483.987 610.841 483.388 610.83 482.71H613.307C613.322 482.994 613.415 483.244 613.585 483.46C613.759 483.672 613.991 483.837 614.278 483.955C614.566 484.072 614.89 484.131 615.25 484.131C615.625 484.131 615.956 484.064 616.244 483.932C616.532 483.799 616.758 483.616 616.92 483.381C617.083 483.146 617.165 482.875 617.165 482.568C617.165 482.258 617.078 481.983 616.903 481.744C616.733 481.502 616.487 481.312 616.165 481.176C615.847 481.04 615.468 480.972 615.028 480.972H613.943V479.165H615.028C615.4 479.165 615.727 479.1 616.011 478.972C616.299 478.843 616.523 478.665 616.682 478.438C616.841 478.206 616.92 477.938 616.92 477.631C616.92 477.339 616.85 477.083 616.71 476.864C616.574 476.64 616.381 476.466 616.131 476.341C615.884 476.216 615.597 476.153 615.267 476.153C614.934 476.153 614.629 476.214 614.352 476.335C614.076 476.453 613.854 476.621 613.688 476.841C613.521 477.061 613.432 477.318 613.42 477.614H611.062C611.074 476.943 611.265 476.352 611.636 475.841C612.008 475.33 612.508 474.93 613.136 474.642C613.769 474.35 614.483 474.205 615.278 474.205C616.081 474.205 616.784 474.35 617.386 474.642C617.989 474.934 618.456 475.328 618.79 475.824C619.127 476.316 619.294 476.869 619.29 477.483C619.294 478.134 619.091 478.678 618.682 479.114C618.277 479.549 617.748 479.826 617.097 479.943V480.034C617.953 480.144 618.604 480.441 619.051 480.926C619.502 481.407 619.725 482.009 619.722 482.733C619.725 483.396 619.534 483.985 619.148 484.5C618.765 485.015 618.237 485.42 617.562 485.716C616.888 486.011 616.116 486.159 615.244 486.159ZM626.053 486.256C625.075 486.252 624.234 486.011 623.53 485.534C622.829 485.057 622.289 484.366 621.911 483.46C621.536 482.555 621.35 481.466 621.354 480.193C621.354 478.924 621.541 477.843 621.916 476.949C622.295 476.055 622.835 475.375 623.536 474.909C624.24 474.439 625.079 474.205 626.053 474.205C627.026 474.205 627.863 474.439 628.564 474.909C629.268 475.379 629.81 476.061 630.189 476.955C630.568 477.845 630.755 478.924 630.751 480.193C630.751 481.47 630.562 482.561 630.183 483.466C629.808 484.371 629.27 485.062 628.57 485.54C627.869 486.017 627.03 486.256 626.053 486.256ZM626.053 484.216C626.719 484.216 627.251 483.881 627.649 483.21C628.047 482.54 628.244 481.534 628.24 480.193C628.24 479.311 628.149 478.576 627.967 477.989C627.789 477.402 627.536 476.96 627.206 476.665C626.88 476.369 626.496 476.222 626.053 476.222C625.39 476.222 624.859 476.553 624.462 477.216C624.064 477.879 623.863 478.871 623.859 480.193C623.859 481.087 623.948 481.833 624.126 482.432C624.308 483.027 624.564 483.473 624.893 483.773C625.223 484.068 625.609 484.216 626.053 484.216ZM637.068 486.256C636.091 486.252 635.25 486.011 634.545 485.534C633.845 485.057 633.305 484.366 632.926 483.46C632.551 482.555 632.366 481.466 632.369 480.193C632.369 478.924 632.557 477.843 632.932 476.949C633.311 476.055 633.85 475.375 634.551 474.909C635.256 474.439 636.095 474.205 637.068 474.205C638.042 474.205 638.879 474.439 639.58 474.909C640.284 475.379 640.826 476.061 641.205 476.955C641.583 477.845 641.771 478.924 641.767 480.193C641.767 481.47 641.578 482.561 641.199 483.466C640.824 484.371 640.286 485.062 639.585 485.54C638.884 486.017 638.045 486.256 637.068 486.256ZM637.068 484.216C637.735 484.216 638.267 483.881 638.665 483.21C639.063 482.54 639.259 481.534 639.256 480.193C639.256 479.311 639.165 478.576 638.983 477.989C638.805 477.402 638.551 476.96 638.222 476.665C637.896 476.369 637.511 476.222 637.068 476.222C636.405 476.222 635.875 476.553 635.477 477.216C635.08 477.879 634.879 478.871 634.875 480.193C634.875 481.087 634.964 481.833 635.142 482.432C635.324 483.027 635.58 483.473 635.909 483.773C636.239 484.068 636.625 484.216 637.068 484.216Z" fill="#1F2727"/>
<path d="M614.872 507L616.543 496.818H617.537L615.866 507H614.872ZM610.239 504.176L610.398 503.182H617.994L617.835 504.176H610.239ZM611.293 507L612.963 496.818H613.957L612.287 507H611.293ZM610.835 500.636L610.994 499.642H618.591L618.432 500.636H610.835ZM619.647 504.912V503.898L624.122 496.818H624.858V498.389H624.36L620.98 503.739V503.818H627.005V504.912H619.647ZM624.44 507V504.604V504.131V496.818H625.613V507H624.44ZM632.05 507.139C631.467 507.139 630.942 507.023 630.474 506.791C630.007 506.559 629.632 506.241 629.351 505.837C629.069 505.432 628.915 504.972 628.888 504.455H630.081C630.128 504.915 630.337 505.296 630.708 505.598C631.082 505.896 631.53 506.045 632.05 506.045C632.468 506.045 632.839 505.948 633.164 505.752C633.492 505.557 633.749 505.288 633.934 504.947C634.123 504.602 634.218 504.213 634.218 503.778C634.218 503.334 634.12 502.938 633.925 502.59C633.732 502.239 633.467 501.962 633.129 501.76C632.791 501.558 632.405 501.455 631.971 501.452C631.659 501.448 631.339 501.496 631.011 501.596C630.683 501.692 630.413 501.816 630.201 501.969L629.047 501.83L629.664 496.818H634.954V497.912H630.698L630.34 500.915H630.4C630.608 500.749 630.87 500.612 631.185 500.502C631.5 500.393 631.828 500.338 632.17 500.338C632.793 500.338 633.348 500.487 633.835 500.786C634.326 501.08 634.71 501.485 634.988 501.999C635.27 502.512 635.411 503.099 635.411 503.759C635.411 504.408 635.265 504.988 634.974 505.499C634.685 506.006 634.287 506.407 633.78 506.702C633.273 506.993 632.697 507.139 632.05 507.139ZM637.704 507L642.258 497.991V497.912H637.008V496.818H643.531V497.972L638.997 507H637.704ZM648.429 507.139C647.846 507.139 647.32 507.023 646.853 506.791C646.386 506.559 646.011 506.241 645.73 505.837C645.448 505.432 645.294 504.972 645.267 504.455H646.46C646.507 504.915 646.716 505.296 647.087 505.598C647.461 505.896 647.909 506.045 648.429 506.045C648.847 506.045 649.218 505.948 649.543 505.752C649.871 505.557 650.128 505.288 650.313 504.947C650.502 504.602 650.597 504.213 650.597 503.778C650.597 503.334 650.499 502.938 650.303 502.59C650.111 502.239 649.846 501.962 649.508 501.76C649.17 501.558 648.784 501.455 648.35 501.452C648.038 501.448 647.718 501.496 647.39 501.596C647.062 501.692 646.792 501.816 646.58 501.969L645.426 501.83L646.043 496.818H651.333V497.912H647.077L646.719 500.915H646.779C646.987 500.749 647.249 500.612 647.564 500.502C647.879 500.393 648.207 500.338 648.548 500.338C649.172 500.338 649.727 500.487 650.214 500.786C650.704 501.08 651.089 501.485 651.367 501.999C651.649 502.512 651.79 503.099 651.79 503.759C651.79 504.408 651.644 504.988 651.352 505.499C651.064 506.006 650.666 506.407 650.159 506.702C649.652 506.993 649.075 507.139 648.429 507.139ZM662.137 500H660.904C660.831 499.645 660.704 499.334 660.521 499.065C660.342 498.797 660.124 498.571 659.865 498.389C659.61 498.204 659.326 498.064 659.015 497.972C658.703 497.879 658.379 497.832 658.04 497.832C657.424 497.832 656.866 497.988 656.365 498.3C655.868 498.611 655.472 499.07 655.177 499.677C654.885 500.283 654.739 501.027 654.739 501.909C654.739 502.791 654.885 503.535 655.177 504.141C655.472 504.748 655.868 505.207 656.365 505.518C656.866 505.83 657.424 505.986 658.04 505.986C658.379 505.986 658.703 505.939 659.015 505.847C659.326 505.754 659.61 505.616 659.865 505.434C660.124 505.248 660.342 505.021 660.521 504.753C660.704 504.481 660.831 504.17 660.904 503.818H662.137C662.044 504.339 661.875 504.804 661.63 505.215C661.385 505.626 661.08 505.976 660.715 506.264C660.351 506.549 659.941 506.766 659.487 506.915C659.036 507.065 658.554 507.139 658.04 507.139C657.172 507.139 656.4 506.927 655.724 506.503C655.048 506.079 654.516 505.475 654.128 504.693C653.74 503.911 653.546 502.983 653.546 501.909C653.546 500.835 653.74 499.907 654.128 499.125C654.516 498.343 655.048 497.74 655.724 497.315C656.4 496.891 657.172 496.679 658.04 496.679C658.554 496.679 659.036 496.754 659.487 496.903C659.941 497.052 660.351 497.271 660.715 497.559C661.08 497.844 661.385 498.192 661.63 498.603C661.875 499.011 662.044 499.476 662.137 500ZM667.271 507H664.129V496.818H667.411C668.398 496.818 669.244 497.022 669.946 497.43C670.649 497.834 671.187 498.416 671.562 499.175C671.936 499.93 672.124 500.835 672.124 501.889C672.124 502.95 671.935 503.863 671.557 504.629C671.179 505.391 670.629 505.978 669.906 506.388C669.184 506.796 668.306 507 667.271 507ZM665.362 505.906H667.192C668.034 505.906 668.731 505.744 669.285 505.419C669.838 505.094 670.251 504.632 670.523 504.032C670.795 503.432 670.931 502.718 670.931 501.889C670.931 501.067 670.796 500.36 670.528 499.766C670.259 499.17 669.858 498.712 669.325 498.394C668.791 498.073 668.127 497.912 667.331 497.912H665.362V505.906Z" fill="#393E3F"/>
<rect x="763" y="468" width="56" height="56" rx="8" fill="#1653C0"/>
<path d="M831.767 483.955V482.017L836.625 474.364H838.295V477.045H837.307L834.244 481.892V481.983H841.148V483.955H831.767ZM837.352 486V483.364L837.398 482.506V474.364H839.705V486H837.352ZM847.349 486.256C846.372 486.252 845.531 486.011 844.827 485.534C844.126 485.057 843.586 484.366 843.207 483.46C842.832 482.555 842.647 481.466 842.651 480.193C842.651 478.924 842.838 477.843 843.213 476.949C843.592 476.055 844.132 475.375 844.832 474.909C845.537 474.439 846.376 474.205 847.349 474.205C848.323 474.205 849.16 474.439 849.861 474.909C850.565 475.379 851.107 476.061 851.486 476.955C851.865 477.845 852.052 478.924 852.048 480.193C852.048 481.47 851.859 482.561 851.48 483.466C851.105 484.371 850.567 485.062 849.866 485.54C849.166 486.017 848.327 486.256 847.349 486.256ZM847.349 484.216C848.016 484.216 848.548 483.881 848.946 483.21C849.344 482.54 849.541 481.534 849.537 480.193C849.537 479.311 849.446 478.576 849.264 477.989C849.086 477.402 848.832 476.96 848.503 476.665C848.177 476.369 847.793 476.222 847.349 476.222C846.687 476.222 846.156 476.553 845.759 477.216C845.361 477.879 845.16 478.871 845.156 480.193C845.156 481.087 845.245 481.833 845.423 482.432C845.605 483.027 845.861 483.473 846.19 483.773C846.52 484.068 846.906 484.216 847.349 484.216ZM858.365 486.256C857.388 486.252 856.547 486.011 855.842 485.534C855.142 485.057 854.602 484.366 854.223 483.46C853.848 482.555 853.662 481.466 853.666 480.193C853.666 478.924 853.854 477.843 854.229 476.949C854.607 476.055 855.147 475.375 855.848 474.909C856.553 474.439 857.392 474.205 858.365 474.205C859.339 474.205 860.176 474.439 860.876 474.909C861.581 475.379 862.123 476.061 862.501 476.955C862.88 477.845 863.068 478.924 863.064 480.193C863.064 481.47 862.875 482.561 862.496 483.466C862.121 484.371 861.583 485.062 860.882 485.54C860.181 486.017 859.342 486.256 858.365 486.256ZM858.365 484.216C859.032 484.216 859.564 483.881 859.962 483.21C860.359 482.54 860.556 481.534 860.553 480.193C860.553 479.311 860.462 478.576 860.28 477.989C860.102 477.402 859.848 476.96 859.518 476.665C859.193 476.369 858.808 476.222 858.365 476.222C857.702 476.222 857.172 476.553 856.774 477.216C856.376 477.879 856.176 478.871 856.172 480.193C856.172 481.087 856.261 481.833 856.439 482.432C856.621 483.027 856.876 483.473 857.206 483.773C857.536 484.068 857.922 484.216 858.365 484.216Z" fill="#1F2727"/>
<path d="M835.872 507L837.543 496.818H838.537L836.866 507H835.872ZM831.239 504.176L831.398 503.182H838.994L838.835 504.176H831.239ZM832.293 507L833.963 496.818H834.957L833.287 507H832.293ZM831.835 500.636L831.994 499.642H839.591L839.432 500.636H831.835ZM844.466 496.818V507H843.233V498.111H843.173L840.687 499.761V498.509L843.233 496.818H844.466ZM850.775 507.139C850.357 507.133 849.939 507.053 849.522 506.901C849.104 506.748 848.723 506.491 848.378 506.13C848.033 505.765 847.757 505.273 847.548 504.653C847.339 504.03 847.235 503.248 847.235 502.307C847.235 501.405 847.319 500.607 847.488 499.911C847.657 499.211 847.903 498.623 848.224 498.146C848.546 497.665 848.933 497.3 849.387 497.052C849.845 496.803 850.36 496.679 850.934 496.679C851.504 496.679 852.011 496.793 852.455 497.022C852.902 497.247 853.267 497.562 853.549 497.967C853.83 498.371 854.013 498.837 854.096 499.364H852.882C852.77 498.906 852.551 498.527 852.226 498.225C851.901 497.924 851.471 497.773 850.934 497.773C850.145 497.773 849.523 498.116 849.069 498.802C848.618 499.488 848.391 500.451 848.388 501.69H848.468C848.653 501.409 848.874 501.168 849.129 500.969C849.387 500.767 849.672 500.612 849.984 500.502C850.296 500.393 850.625 500.338 850.973 500.338C851.557 500.338 852.09 500.484 852.574 500.776C853.058 501.064 853.446 501.463 853.738 501.974C854.029 502.481 854.175 503.062 854.175 503.719C854.175 504.348 854.034 504.925 853.752 505.449C853.471 505.969 853.075 506.384 852.564 506.692C852.057 506.997 851.461 507.146 850.775 507.139ZM850.775 506.045C851.192 506.045 851.567 505.941 851.898 505.732C852.233 505.523 852.496 505.243 852.689 504.892C852.884 504.541 852.982 504.15 852.982 503.719C852.982 503.298 852.887 502.915 852.699 502.57C852.513 502.222 852.256 501.946 851.928 501.74C851.603 501.535 851.232 501.432 850.814 501.432C850.499 501.432 850.206 501.495 849.934 501.621C849.663 501.743 849.424 501.912 849.218 502.128C849.016 502.343 848.857 502.59 848.741 502.869C848.625 503.144 848.567 503.434 848.567 503.739C848.567 504.143 848.662 504.521 848.85 504.872C849.043 505.223 849.305 505.507 849.636 505.722C849.971 505.938 850.35 506.045 850.775 506.045ZM859.312 507.139C858.729 507.139 858.203 507.023 857.736 506.791C857.269 506.559 856.894 506.241 856.612 505.837C856.331 505.432 856.177 504.972 856.15 504.455H857.343C857.39 504.915 857.598 505.296 857.97 505.598C858.344 505.896 858.792 506.045 859.312 506.045C859.73 506.045 860.101 505.948 860.426 505.752C860.754 505.557 861.011 505.288 861.196 504.947C861.385 504.602 861.48 504.213 861.48 503.778C861.48 503.334 861.382 502.938 861.186 502.59C860.994 502.239 860.729 501.962 860.391 501.76C860.053 501.558 859.667 501.455 859.232 501.452C858.921 501.448 858.601 501.496 858.273 501.596C857.945 501.692 857.675 501.816 857.463 501.969L856.309 501.83L856.926 496.818H862.215V497.912H857.96L857.602 500.915H857.661C857.87 500.749 858.132 500.612 858.447 500.502C858.762 500.393 859.09 500.338 859.431 500.338C860.054 500.338 860.61 500.487 861.097 500.786C861.587 501.08 861.972 501.485 862.25 501.999C862.532 502.512 862.673 503.099 862.673 503.759C862.673 504.408 862.527 504.988 862.235 505.499C861.947 506.006 861.549 506.407 861.042 506.702C860.535 506.993 859.958 507.139 859.312 507.139ZM868.088 507.139C867.432 507.139 866.847 507.027 866.333 506.801C865.823 506.576 865.417 506.263 865.115 505.862C864.817 505.457 864.654 504.988 864.628 504.455H865.881C865.907 504.783 866.02 505.066 866.219 505.305C866.418 505.54 866.678 505.722 866.999 505.852C867.321 505.981 867.677 506.045 868.068 506.045C868.506 506.045 868.893 505.969 869.232 505.817C869.57 505.664 869.835 505.452 870.027 505.18C870.219 504.909 870.315 504.594 870.315 504.236C870.315 503.861 870.223 503.531 870.037 503.246C869.851 502.958 869.58 502.733 869.222 502.57C868.864 502.408 868.426 502.327 867.909 502.327H867.094V501.233H867.909C868.313 501.233 868.668 501.16 868.973 501.014C869.281 500.868 869.522 500.663 869.694 500.398C869.87 500.133 869.957 499.821 869.957 499.463C869.957 499.118 869.881 498.818 869.729 498.563C869.576 498.308 869.361 498.109 869.082 497.967C868.807 497.824 868.482 497.753 868.108 497.753C867.757 497.753 867.425 497.817 867.114 497.947C866.805 498.073 866.554 498.257 866.358 498.499C866.162 498.737 866.056 499.026 866.04 499.364H864.847C864.866 498.83 865.027 498.363 865.329 497.962C865.63 497.557 866.025 497.242 866.512 497.017C867.003 496.792 867.541 496.679 868.128 496.679C868.758 496.679 869.298 496.807 869.749 497.062C870.199 497.314 870.546 497.647 870.788 498.061C871.03 498.475 871.151 498.923 871.151 499.403C871.151 499.977 871 500.466 870.698 500.87C870.4 501.274 869.994 501.554 869.48 501.71V501.79C870.123 501.896 870.625 502.169 870.987 502.61C871.348 503.048 871.528 503.589 871.528 504.236C871.528 504.789 871.378 505.286 871.076 505.727C870.778 506.165 870.37 506.509 869.853 506.761C869.336 507.013 868.748 507.139 868.088 507.139ZM881.934 500H880.701C880.628 499.645 880.5 499.334 880.318 499.065C880.139 498.797 879.92 498.571 879.662 498.389C879.407 498.204 879.123 498.064 878.812 497.972C878.5 497.879 878.175 497.832 877.837 497.832C877.221 497.832 876.662 497.988 876.162 498.3C875.665 498.611 875.269 499.07 874.974 499.677C874.682 500.283 874.536 501.027 874.536 501.909C874.536 502.791 874.682 503.535 874.974 504.141C875.269 504.748 875.665 505.207 876.162 505.518C876.662 505.83 877.221 505.986 877.837 505.986C878.175 505.986 878.5 505.939 878.812 505.847C879.123 505.754 879.407 505.616 879.662 505.434C879.92 505.248 880.139 505.021 880.318 504.753C880.5 504.481 880.628 504.17 880.701 503.818H881.934C881.841 504.339 881.672 504.804 881.427 505.215C881.182 505.626 880.877 505.976 880.512 506.264C880.147 506.549 879.738 506.766 879.284 506.915C878.833 507.065 878.351 507.139 877.837 507.139C876.969 507.139 876.197 506.927 875.521 506.503C874.844 506.079 874.313 505.475 873.925 504.693C873.537 503.911 873.343 502.983 873.343 501.909C873.343 500.835 873.537 499.907 873.925 499.125C874.313 498.343 874.844 497.74 875.521 497.315C876.197 496.891 876.969 496.679 877.837 496.679C878.351 496.679 878.833 496.754 879.284 496.903C879.738 497.052 880.147 497.271 880.512 497.559C880.877 497.844 881.182 498.192 881.427 498.603C881.672 499.011 881.841 499.476 881.934 500ZM887.068 507.139C886.319 507.139 885.681 506.935 885.154 506.528C884.627 506.117 884.225 505.522 883.946 504.743C883.668 503.961 883.529 503.016 883.529 501.909C883.529 500.809 883.668 499.869 883.946 499.09C884.228 498.308 884.632 497.711 885.159 497.3C885.69 496.886 886.326 496.679 887.068 496.679C887.811 496.679 888.445 496.886 888.972 497.3C889.503 497.711 889.907 498.308 890.186 499.09C890.467 499.869 890.608 500.809 890.608 501.909C890.608 503.016 890.469 503.961 890.191 504.743C889.912 505.522 889.509 506.117 888.982 506.528C888.455 506.935 887.817 507.139 887.068 507.139ZM887.068 506.045C887.811 506.045 888.387 505.687 888.798 504.972C889.209 504.256 889.415 503.235 889.415 501.909C889.415 501.027 889.32 500.277 889.132 499.657C888.946 499.037 888.677 498.565 888.326 498.24C887.978 497.915 887.559 497.753 887.068 497.753C886.333 497.753 885.758 498.116 885.343 498.842C884.929 499.564 884.722 500.587 884.722 501.909C884.722 502.791 884.815 503.54 885 504.156C885.186 504.773 885.453 505.242 885.801 505.563C886.152 505.885 886.575 506.045 887.068 506.045Z" fill="#393E3F"/>
</svg>
