<svg width="1920" height="1080" viewBox="0 0 1920 1080" fill="none" xmlns="http://www.w3.org/2000/svg">
<g clip-path="url(#clip0_845_7576)">
<rect width="1920" height="1080" fill="white"/>
<path d="M1305.64 102.615C1320.22 83.9491 1341.81 64.4293 1364.47 56.2914C1367.19 55.3118 1377.96 50.361 1381.38 53.3502C1386.53 57.8625 1369.46 46.535 1363.91 42.5046C1348.62 31.3841 1335.51 18.3239 1322.19 5.00476" stroke="#171717" stroke-width="6" stroke-linecap="round"/>
<path d="M800 342.627C800 314.163 800 285.699 800 257.236C800 229.074 803.361 181.644 834.112 168.95C864.443 156.429 886.205 178.759 900.889 203.524C926.327 246.424 940.09 295.872 950.61 344.235C954.145 360.485 966.605 408.79 962.034 392.8C949.679 349.583 945.038 305.837 944.817 260.934C944.611 219.11 935.101 153.655 972.815 123.761C1000.69 101.668 1027.77 114.005 1048.44 141.29C1073.03 173.745 1091.42 217.217 1105.24 255.467C1109.47 267.171 1122.38 301.553 1115.06 291.489C1108.75 282.815 1106.7 266.777 1104.12 256.753C1096.84 228.539 1095.62 200.298 1093.98 171.362C1093.49 162.718 1087.99 63.6296 1118.28 104.625C1142.97 138.061 1164.23 176.469 1176.52 216.389C1182.09 234.456 1184.48 181.769 1185.21 176.99C1191.15 138.108 1201.98 89.3138 1232.84 62.1704C1245.52 51.024 1259.19 53.1649 1275 53.1649" stroke="#454545" stroke-width="6" stroke-linecap="round"/>
<path d="M1229 25C1253.62 25 1276.85 41.7838 1302.32 41.7838C1305.57 41.7838 1296.23 44.0594 1293.33 45.5135C1284.54 49.9146 1278.06 54.1737 1270.99 61.2613C1261.24 71.0285 1253.2 79.9209 1253.2 94" stroke="#454545" stroke-width="6" stroke-linecap="round"/>
<path d="M791.678 359.491C808.905 359.491 827.599 357.098 825.376 335.147C824.168 323.216 806.148 322.759 796.967 323.101C783.915 323.587 784 342.076 784 351.152C784 361.727 796.244 369.228 806.693 366.399C820.799 362.58 827.886 341.562 826.911 328.576C826.21 319.225 813.64 315.974 805.84 319.226C796.667 323.05 797.21 337.014 797.906 344.918C799.513 363.172 831.258 337.679 815.053 332.536C796.126 326.528 784.368 356.061 802.086 356.459C807.688 356.585 816.077 353.977 816.077 346.772C816.077 345.17 803.658 345.371 802.427 346.519C795.151 353.304 811.382 353.646 814.456 353.342C820.616 352.734 822.52 344.415 817.783 341.296" stroke="#454545" stroke-width="6" stroke-linecap="round"/>
<path d="M1616.16 1148.58C1597.45 1148.58 1582.18 1147.66 1565.73 1137.3C1541.87 1122.28 1522.24 1100.92 1504.27 1079.48C1463.13 1030.38 1427.07 973.918 1402.07 914.845C1387.42 880.214 1379.99 843.337 1374.92 806.223C1372.1 785.659 1368.1 760.229 1374.19 739.79C1385.73 701.034 1441.12 725.42 1461.59 741.244C1513.09 781.033 1550.56 832.922 1587.07 885.993C1601.44 906.878 1617.45 928.785 1627.92 952.063C1635.88 969.752 1623.02 945.608 1621.01 940.304C1608.49 907.219 1600.89 870.924 1600.89 835.561C1600.89 809.253 1600.24 782.454 1618.47 761.49C1643.47 732.738 1684.43 810.939 1692.05 823.438C1717.97 865.937 1739 911.172 1764.31 953.881C1769.12 962 1772.15 969.949 1775.94 978.37C1776.96 980.622 1778.45 983.44 1777.4 978.976C1760.89 908.834 1725.73 796.295 1796.19 743.063C1842.14 708.348 1889.74 771.266 1908.08 806.466C1935.83 859.707 1957.27 920.036 1971.85 978.37" stroke="#454545" stroke-width="6" stroke-linecap="round"/>
<rect width="512" height="691" transform="matrix(-1 0 0 1 1857 353)" fill="url(#paint0_radial_845_7576)"/>
<path fill-rule="evenodd" clip-rule="evenodd" d="M1470.7 729.632C1474.63 714.397 1478.24 707.937 1485.22 702.642C1491.75 697.688 1501.27 693.528 1515.18 690.49C1529.66 687.958 1530.07 680.433 1533.7 668.337C1534.76 664.701 1540.01 663.733 1542.27 666.354C1542.59 666.009 1542.93 665.694 1543.27 665.409C1542.96 663.674 1545.49 658.704 1545.4 657.045C1544.52 639.731 1550.19 631.036 1564.32 627.804C1567.4 627.1 1588.28 626.686 1591.28 627.515C1604.38 631.138 1617.28 642.641 1615.31 656.497C1619.42 661.872 1623.45 665.153 1629.79 666.885C1639.68 668.14 1634.71 808.143 1617.55 892.02C1610.18 928.007 1434.09 866.755 1442.05 848.731C1440.92 845.427 1442.97 841.796 1442.05 838.384C1441.37 835.915 1439.65 834.894 1438.79 832.449C1437.57 829.008 1438.89 824.393 1440.27 820.882C1440.83 819.132 1439.23 817.249 1438.79 815.464C1436.68 807.042 1441.5 807.785 1444.98 802.155C1444.92 802.137 1444.02 798.118 1444.03 798.138C1443.49 795.269 1444.83 791.593 1445.99 789.198C1446.77 787.579 1448.46 786.566 1450.13 786.751C1448.44 781.035 1446.32 776.279 1444.03 770.772C1439.98 761.065 1436.12 750.91 1430.31 742.124C1427.93 738.526 1429.85 735.217 1433.7 734.972C1446.18 734.179 1458.52 732.383 1470.7 729.632Z" fill="#D08B5B"/>
<path fill-rule="evenodd" clip-rule="evenodd" d="M1490.17 730.809L1518.65 778.998C1518.65 778.998 1511.89 779.672 1509.16 780.985C1506.42 782.299 1493.87 798.256 1493.87 798.256L1491.88 807.042L1496.6 814.126L1494.76 818.574C1494.76 818.574 1493.45 815.561 1490.17 813.222C1486.9 810.882 1479.68 807.042 1479.68 807.042C1479.68 807.042 1482.08 805.759 1482.08 804.252C1482.08 802.745 1484.19 796.316 1479.68 793.888C1475.17 791.46 1451.85 785.776 1451.85 785.776L1428.21 735.927L1490.17 730.809Z" fill="#79676C"/>
<path fill-rule="evenodd" clip-rule="evenodd" d="M1617.2 667.212L1526.78 683.081L1485.22 702.642L1478.43 707.869L1518.65 778.998L1580.74 790.327L1596.56 831.417L1593.33 877.734L1492.32 865.69L1448.74 860.513L1438.5 901.864L1440.35 918.874L1443.04 927.501L1551.06 956.663C1551.06 956.663 1606.07 951.332 1615.82 951.332C1625.57 951.332 1697.06 958.431 1697.06 958.431L1713.6 956.663C1713.6 956.663 1750.2 918.093 1755.87 904.366C1761.55 890.638 1773.82 807.193 1773.82 807.193L1772.47 794.371L1740.85 713.004C1740.85 713.004 1736.63 709.17 1731.31 702.642C1725.99 696.113 1617.2 667.212 1617.2 667.212Z" fill="#0C3FF4"/>
<path fill-rule="evenodd" clip-rule="evenodd" d="M1453.55 784.749C1461.72 785.164 1469.9 787.107 1477.3 790.627C1480.32 792.069 1483.06 794.152 1483.86 797.577C1484.27 799.327 1484.17 801.134 1483.95 802.901C1483.79 804.24 1483.75 805.948 1482.59 806.854C1482.39 807.007 1482.18 807.124 1481.96 807.21C1484.68 808.441 1487.28 809.919 1489.59 811.443C1491.7 812.835 1493.86 814.981 1494.84 817.401C1494.92 817.127 1495 816.87 1495.08 816.626C1496.74 811.722 1499.29 807.706 1503.32 805.006C1503.78 803.34 1508.68 796.172 1513.24 796.442C1518.23 796.735 1522.24 797.1 1526.75 799.394C1528.4 799.358 1530.04 799.38 1531.66 799.453C1531.94 799.462 1531.93 799.841 1531.66 799.872C1530.34 800.039 1529.03 800.223 1527.71 800.44C1524.58 800.941 1521.46 801.576 1518.41 802.364C1514.75 803.311 1510.97 804.262 1507.55 805.916C1500.91 809.131 1496.81 817.533 1497.65 824.843C1497.79 826.042 1498.25 829.666 1499.92 829.292C1501.32 828.977 1501.88 826.042 1502.37 824.956C1503.69 822.071 1506.06 820.187 1508.9 818.911C1512.24 817.411 1515.82 816.396 1519.28 815.216C1521.24 814.544 1523.2 813.872 1525.16 813.205C1527.17 812.516 1529.09 811.564 1531.23 812.047C1532.52 812.34 1532.67 813.881 1531.94 814.765C1530.84 816.112 1529.2 816.509 1527.61 817.063C1525.51 817.794 1523.41 818.524 1521.32 819.254C1518.08 820.381 1514.68 821.332 1511.52 822.711L1511.62 822.937C1511.88 822.865 1512.18 823.122 1512.13 823.437C1511.66 826.353 1511 829.725 1511.73 832.646C1512.31 834.963 1514.34 837.528 1516.98 836.847C1516.57 836.468 1516.41 835.815 1516.69 835.211C1517.74 832.975 1531.44 824.149 1532.66 827.427C1532.7 827.543 1532.57 827.629 1532.48 827.611C1531.43 827.395 1529.69 829.171 1528.86 829.734C1527.65 830.546 1526.43 831.339 1525.24 832.173C1523.94 833.084 1522.67 834.039 1521.43 835.026C1520.45 835.802 1519.72 836.608 1518.6 837.001C1519.19 837.28 1519.65 837.798 1519.85 838.461C1520.36 840.187 1521.33 841.652 1523.02 842.414C1524.79 843.207 1526.79 842.707 1528.65 842.901C1531.2 843.157 1533.41 844.366 1535.27 846.092C1539.15 849.725 1541.11 856.126 1546.55 857.843C1549.8 858.866 1553.4 858.221 1556.69 857.757C1560.36 857.239 1563.94 856.829 1567.64 857.37C1571.19 857.888 1574.53 859.114 1577.77 860.61C1580.8 862.012 1584.16 863.599 1586.85 865.69C1587.4 863.982 1587.96 862.292 1588.39 860.547C1589.39 856.423 1589.93 852.222 1590.06 847.985C1590.18 843.951 1589.95 839.899 1589.61 835.882C1589.44 833.876 1589.16 831.88 1588.99 829.874C1588.95 829.369 1588.86 828.828 1588.79 828.288C1583.99 825.452 1578.94 823.28 1573.85 821.044C1573.84 821.039 1573.82 821.03 1573.81 821.026C1573.65 820.953 1573.5 820.886 1573.34 820.819C1573.35 820.809 1573.35 820.801 1573.36 820.791C1572.78 820.435 1572.37 819.962 1572.13 819.43C1564.8 814.566 1558.67 807.927 1554.1 800.183C1552.18 796.937 1550.34 793.57 1547.83 790.727C1545.16 787.693 1541.99 785.89 1538.07 784.952C1533.49 783.853 1528.77 783.194 1524.07 782.82C1521.51 782.618 1518.64 782.302 1515.84 782.316C1513.9 782.329 1511.99 782.495 1510.24 782.978C1507.65 783.69 1506.14 785.66 1504.51 787.652C1502.95 789.564 1501.41 791.479 1499.96 793.472C1498.58 795.36 1497.28 797.312 1496.16 799.358C1495.48 800.584 1494.85 801.847 1494.33 803.149C1494.14 803.609 1493.9 804.131 1493.79 804.609C1493.67 805.091 1493.88 805.601 1493.34 805.601C1495.57 805.632 1497.05 811.196 1494.84 811.065C1491.72 810.884 1490.15 807.146 1490.76 803.829C1491.85 797.912 1497.74 790.766 1498.9 789.252C1501.48 785.908 1504.13 781.544 1508.25 779.989C1508.31 779.967 1508.37 779.945 1508.43 779.926C1507.23 778.79 1506.28 777.429 1505.38 776.045C1504.45 774.621 1503.33 772.989 1503.03 771.299C1502.83 770.222 1504.17 769.608 1504.81 770.551C1505.73 771.925 1506.18 773.665 1506.87 775.176C1507.57 776.708 1508.43 778.155 1509.1 779.701C1510.73 779.2 1512.49 778.971 1514.28 778.894C1512.02 775.838 1508.16 769.942 1507.7 769.185C1505.56 765.678 1503.53 762.063 1501.58 758.443C1499.48 754.522 1497.69 750.438 1495.68 746.471C1494.53 744.223 1493.39 741.955 1492.12 739.773C1491.68 739.025 1491.21 738.277 1490.68 737.596C1490.58 737.461 1490.45 737.349 1490.33 737.222C1490.19 737.145 1490.04 737.06 1489.96 737.015C1489.23 736.596 1488.97 735.622 1488.46 735.004C1487.64 734.009 1486.67 733.891 1485.44 733.877C1482.81 733.85 1480.17 733.954 1477.54 734.026C1473.68 734.134 1469.82 734.288 1465.96 734.491C1464.79 734.554 1463.63 734.617 1462.46 734.689C1456.85 735.023 1451.24 735.46 1445.65 735.996C1440.7 736.469 1435.75 737.241 1430.8 737.61C1437.51 753.544 1444.94 769.19 1453.36 784.29C1453.45 784.443 1453.51 784.596 1453.55 784.749ZM1490.76 825.799C1491.84 826.295 1492.89 826.912 1493.87 827.616C1493.71 826.521 1493.67 825.366 1493.71 824.208C1492.91 825.073 1491.88 825.569 1490.76 825.799ZM1444.59 798.389C1444.66 798.398 1444.74 798.438 1444.77 798.515C1446.27 801.603 1445.64 805.051 1443.2 807.471C1441.92 808.734 1439.13 810.158 1439.22 812.231C1439.3 813.908 1441.12 815.314 1441.9 816.698C1442.63 817.987 1442.9 819.403 1442.32 820.801C1441.57 822.59 1439.49 823.302 1438.78 825.06C1437.88 827.291 1439.35 829.982 1440.37 831.925C1441.33 833.723 1442.56 835.522 1443.38 837.424C1448.88 840.268 1461.35 845.434 1462.85 845.723C1464.68 846.078 1466.51 846.416 1468.35 846.732C1471.88 847.345 1475.42 847.913 1478.96 848.413C1480.98 848.697 1483.01 848.977 1485.03 849.197C1486.8 849.387 1488.79 849.644 1490.21 848.314C1493.08 845.627 1491.47 841.124 1489.66 838.411C1489.62 838.357 1489.62 838.307 1489.64 838.262C1487.92 837.861 1486.21 837.392 1484.51 837.063C1481.23 836.432 1477.94 835.901 1474.63 835.427C1467.84 834.458 1461.01 833.818 1454.19 833.174C1452.5 833.011 1452.48 830.352 1454.19 830.51C1463.99 831.407 1473.84 832.258 1483.52 834.147C1485.94 834.616 1488.35 835.148 1490.74 835.747C1491.87 836.027 1493.08 836.464 1494.27 836.478C1494.34 836.478 1494.41 836.478 1494.49 836.473C1496.81 836.401 1497.14 834.413 1495.87 832.759C1495.71 832.556 1495.55 832.353 1495.38 832.159C1493.13 829.473 1490.32 827.679 1487.43 825.821C1484.19 825.38 1480.96 824.397 1477.78 823.676C1469.95 821.891 1462.12 820.106 1454.28 818.326C1452.74 817.974 1453.39 815.612 1454.93 815.959C1460.88 817.307 1466.83 818.655 1472.78 820.002L1481.49 821.977C1483.23 822.369 1485.4 823.158 1487.45 823.442C1488.45 823.581 1489.43 823.599 1490.32 823.392C1493.17 822.716 1493.31 819.15 1492.08 817.032C1490.7 814.652 1488.1 813.164 1485.79 811.817C1481.78 809.477 1477.52 807.796 1473.35 805.858C1472.61 805.695 1471.87 805.533 1471.13 805.371C1466.83 804.424 1461.92 803.96 1457.87 802.225C1456.66 801.711 1457.33 799.8 1458.52 799.827C1461.67 799.895 1464.95 801.012 1468.02 801.675C1471.34 802.396 1474.67 803.113 1477.99 803.829C1478.32 803.902 1480.3 804.533 1480.59 804.393C1480.78 804.303 1480.85 803.645 1480.91 803.212C1481.12 801.787 1481.27 800.291 1481.05 798.862C1480.56 795.657 1477.89 794.152 1475.18 792.921C1469.16 790.185 1462.56 788.473 1455.99 787.787C1454.47 787.629 1452.96 787.531 1451.43 787.481C1449.65 787.427 1448.17 787.111 1447.27 788.873C1445.84 791.65 1445.06 795.221 1444.59 798.389ZM1452.95 899.062C1454.26 894.523 1453.91 889.678 1454.8 885.049C1455.27 882.661 1455.9 880.292 1456.59 877.961C1457.15 876.077 1458.08 874.074 1458.19 872.109C1458.19 871.978 1458.04 871.902 1457.93 871.963C1456.08 873.023 1454.66 875.315 1453.6 877.113C1452.34 879.266 1451.38 881.519 1450.6 883.889C1449.05 888.61 1447.77 894.304 1449.77 899.062C1450.37 900.478 1452.46 900.761 1452.95 899.062ZM1504.15 933.416C1506.11 932.052 1507.53 930.144 1509.19 928.46C1510.82 926.805 1508.27 924.255 1506.64 925.911C1505.23 927.347 1504 929.141 1502.33 930.302C1501.53 930.861 1501.16 931.871 1501.69 932.769C1502.15 933.562 1503.35 933.974 1504.15 933.416ZM1515.06 880.973C1511.49 879.429 1507.98 877.748 1504.24 876.637C1502.01 875.972 1501.07 879.453 1503.28 880.113C1506.72 881.138 1509.95 882.665 1513.24 884.086C1515.35 884.998 1517.18 881.891 1515.06 880.973ZM1552.75 879.893C1553.62 877.739 1550.13 876.811 1549.27 878.934C1548.28 881.378 1547.15 883.76 1546.16 886.204C1545.29 888.357 1548.77 889.286 1549.63 887.162C1550.62 884.718 1551.76 882.337 1552.75 879.893ZM1589.95 922.903C1590.53 923.678 1591.5 924.098 1592.42 923.55C1593.19 923.09 1593.66 921.868 1593.07 921.083C1591.35 918.792 1589.61 916.529 1587.59 914.487C1585.96 912.831 1583.41 915.383 1585.04 917.037C1586.84 918.86 1588.42 920.857 1589.95 922.903ZM1595.27 681.575C1593.62 682.706 1592.17 684.079 1590.75 685.492C1589.11 687.135 1591.66 689.685 1593.3 688.042C1594.5 686.851 1595.7 685.642 1597.09 684.689C1597.9 684.138 1598.26 683.114 1597.74 682.222C1597.27 681.423 1596.08 681.026 1595.27 681.575ZM1541.15 739.603C1542.08 741.477 1542.93 743.314 1542.98 745.444C1543.04 747.764 1546.64 747.765 1546.58 745.444C1546.51 742.657 1545.49 740.24 1544.26 737.783C1543.22 735.704 1540.11 737.533 1541.15 739.603ZM1521.29 692.999C1519.35 691.707 1517.55 694.832 1519.47 696.113C1521.03 697.151 1522.58 698.19 1524.14 699.228C1526.08 700.52 1527.88 697.396 1525.96 696.115C1524.4 695.076 1522.85 694.037 1521.29 692.999ZM1607.42 774.482C1607.76 776.774 1611.23 775.794 1610.9 773.524C1610.39 770.016 1609.78 766.555 1608.82 763.138C1608.2 760.903 1604.72 761.858 1605.35 764.097C1606.3 767.514 1606.92 770.975 1607.42 774.482ZM1620.07 815.789C1622.39 815.74 1622.39 812.134 1620.07 812.183C1617.97 812.228 1615.9 812.78 1613.88 813.286C1611.62 813.849 1612.58 817.326 1614.83 816.763C1616.55 816.335 1618.29 815.827 1620.07 815.789ZM1624.73 898.998C1625.53 899.386 1626.35 899.735 1627.15 900.104C1628.77 900.842 1630.38 901.58 1631.99 902.321C1635.35 903.863 1638.71 905.411 1642.07 906.964C1648.78 910.073 1655.55 913.072 1662.28 916.147C1669.14 919.283 1675.99 922.461 1682.83 925.655C1686.05 927.159 1689.3 928.608 1692.54 930.073C1695.31 931.326 1698.73 933.515 1701.77 933.721C1701.93 933.732 1701.98 933.534 1701.89 933.432C1700.74 932.126 1698.91 931.366 1697.4 930.516C1695.86 929.648 1694.29 928.832 1692.72 928.004C1689.46 926.276 1686.2 924.562 1682.91 922.896C1676.32 919.563 1669.72 916.255 1663.12 912.95C1656.39 909.58 1649.67 906.187 1642.88 902.937C1639.69 901.406 1636.49 899.88 1633.29 898.359C1631.55 897.535 1629.82 896.712 1628.08 895.891C1627.33 895.536 1626.59 895.154 1625.83 894.836C1624.81 894.415 1624.03 894.501 1622.98 894.241C1621.27 893.819 1620.53 895.997 1621.84 896.945C1622.93 897.726 1623.5 898.394 1624.73 898.998ZM1648.8 935.973C1649.17 935.074 1648.4 933.98 1647.54 933.755C1646.52 933.485 1645.7 934.107 1645.33 935.014C1644.34 937.419 1642.93 939.626 1641.12 941.489C1639.5 943.154 1642.05 945.705 1643.67 944.039C1645.94 941.703 1647.57 938.973 1648.8 935.973ZM1666.51 878.092C1668.16 876.448 1665.61 873.899 1663.96 875.542L1659.29 880.215C1657.65 881.859 1660.2 884.409 1661.84 882.765L1666.51 878.092ZM1714.45 870.473C1717.81 871.458 1721.73 872.364 1724.02 875.23C1724.13 875.371 1724.32 875.191 1724.25 875.051C1721.32 868.971 1712.91 866.839 1707.09 864.709C1702.97 863.202 1698.75 861.953 1694.49 860.837C1694.91 855.975 1693.74 850.765 1693.33 845.928C1692.89 840.763 1692.54 835.585 1692.36 830.404C1692.17 825.119 1692.13 819.798 1692.3 814.512C1692.47 809.245 1693.16 804.042 1693.46 798.793C1693.48 798.285 1692.78 798.261 1692.63 798.68C1690.86 803.552 1690.1 808.948 1689.52 814.084C1688.93 819.375 1688.73 824.651 1688.81 829.973C1688.89 835.445 1689.21 840.904 1689.64 846.359C1689.85 848.945 1690.09 851.526 1690.32 854.11C1690.49 856.082 1690.57 858.037 1690.97 859.946C1688.4 859.316 1685.83 858.719 1683.26 858.139C1675.07 856.291 1666.85 854.577 1658.7 852.578C1654.69 851.598 1650.75 850.423 1646.77 849.38C1643.01 848.398 1639.05 847.207 1635.2 846.769C1633.83 846.612 1633.65 848.493 1634.56 849.131C1637.69 851.329 1641.85 852.86 1645.47 854.091C1649.1 855.325 1652.87 856.214 1656.59 857.128C1664.34 859.036 1672.18 860.596 1679.99 862.221C1687.8 863.845 1695.63 865.455 1703.35 867.458C1707.06 868.423 1710.77 869.391 1714.45 870.473ZM1732.86 774.002C1734.87 775.181 1736.68 772.063 1734.68 770.888C1732.07 769.352 1729.28 768.198 1726.46 767.072C1724.31 766.208 1723.38 769.697 1725.51 770.549C1728.03 771.561 1730.51 772.622 1732.86 774.002ZM1740.13 907.972C1742.15 909.139 1743.96 906.022 1741.95 904.858C1739.13 903.224 1736.05 902.134 1733.13 900.704C1731.05 899.686 1729.22 902.798 1731.31 903.818C1734.23 905.248 1737.31 906.338 1740.13 907.972ZM1743.4 831.924C1741.46 833.773 1738.86 834.644 1736.41 835.615C1734.27 836.461 1735.21 839.947 1737.37 839.092C1740.42 837.882 1743.53 836.777 1745.95 834.474C1747.64 832.872 1745.08 830.326 1743.4 831.924ZM1721.87 728.646C1719.73 729.485 1720.67 732.971 1722.83 732.124C1725.23 731.183 1727.7 730.468 1730.1 729.527C1732.24 728.688 1731.3 725.202 1729.14 726.05C1726.74 726.99 1724.27 727.706 1721.87 728.646ZM1683.89 687.624C1681.62 687.241 1680.65 690.716 1682.93 691.102C1685.76 691.58 1688.55 692.139 1691.24 693.179C1693.41 694.018 1694.34 690.53 1692.2 689.702C1689.51 688.662 1686.72 688.102 1683.89 687.624ZM1671.34 787.503C1673.42 786.478 1671.59 783.369 1669.52 784.389C1667.33 785.464 1665.07 786.296 1662.68 786.804C1660.41 787.288 1661.38 790.763 1663.64 790.281C1666.33 789.709 1668.88 788.712 1671.34 787.503ZM1659.49 731.242C1657.24 730.628 1656.29 734.107 1658.53 734.72C1662.46 735.797 1666.51 736.358 1670.47 737.316C1672.73 737.863 1673.68 734.385 1671.43 733.839C1667.47 732.88 1663.42 732.321 1659.49 731.242ZM1609.2 713.587C1606.92 714.01 1607.89 717.485 1610.16 717.065C1612.58 716.618 1615.02 716.611 1617.47 716.61C1619.79 716.609 1619.79 713.003 1617.47 713.004C1614.69 713.005 1611.94 713.08 1609.2 713.587ZM1445.21 732.427C1451.1 731.863 1457 731.412 1462.91 731.074C1463.18 731.06 1463.45 731.043 1463.73 731.029C1463.76 730.966 1463.8 730.907 1463.84 730.844C1465.77 728.013 1467.19 725.183 1468.42 721.982C1469.6 718.935 1470.74 715.794 1472.55 713.044C1474.62 709.912 1477.41 707.46 1480.46 705.336C1482.32 706.583 1484.04 708.044 1485.61 709.592C1487.27 711.22 1489.82 708.671 1488.16 707.042C1486.76 705.666 1485.27 704.395 1483.69 703.247C1485.52 702.139 1487.38 701.098 1489.19 700.062C1495.99 696.182 1502.95 692.593 1510.06 689.312C1513.37 687.784 1516.71 686.427 1520.08 685.052C1521.89 684.313 1523.68 683.362 1525.49 682.506C1525.36 681.225 1525.74 679.792 1526.72 678.949C1527.45 678.332 1528.01 678.102 1528.88 677.665C1529.07 677.597 1529.19 677.556 1529.24 677.534C1529.2 677.543 1529.09 677.579 1528.89 677.642C1528.43 677.854 1528.4 677.791 1528.78 677.457C1528.81 676.727 1530.24 675.186 1530.57 674.433C1531.72 671.85 1532.07 669.118 1533.76 666.765C1536.09 663.524 1540.01 662.299 1543.65 663.398C1544.03 659.499 1544.13 655.429 1545.6 651.949C1545.64 651.855 1545.77 651.814 1545.83 651.918C1547.36 654.528 1547.49 657.435 1547.61 660.446C1547.72 663.272 1547.61 666.161 1547.24 668.969C1547.48 669.15 1547.72 669.322 1547.97 669.488C1549.13 670.254 1550.38 670.845 1551.7 671.282C1554.2 672.111 1556.83 672.472 1559.46 672.598C1566.24 672.923 1573.23 672.237 1579.9 671.074C1586.65 669.898 1596.99 668.131 1603 664.755C1606.96 662.529 1610.61 659.81 1614.32 657.178C1612.98 652.851 1612.63 648.199 1613.99 644.543C1614.15 644.106 1614.83 644.025 1614.96 644.543C1615.81 648.032 1616.06 651.539 1617.19 654.987C1617.2 655.037 1617.22 655.091 1617.24 655.14C1617.59 654.902 1617.94 654.667 1618.29 654.433C1619.11 653.896 1620.21 654.298 1620.7 655.064C1628.48 667.329 1640.81 668.032 1653.75 670.223C1667.92 672.621 1682.15 675.208 1695.77 679.9C1708.8 684.39 1721.25 690.926 1731.11 700.689C1733.34 702.9 1735.43 705.255 1737.4 707.714C1735.49 707.954 1733.6 708.328 1731.74 708.914C1729.53 709.609 1730.48 713.089 1732.7 712.392C1735.09 711.638 1737.52 711.265 1739.97 711.079C1746.67 720.247 1751.89 730.642 1756.41 740.873C1765.08 760.49 1770.72 781.382 1773.31 802.651C1771.89 801.797 1770.44 800.983 1768.95 800.227C1766.89 799.176 1765.06 802.288 1767.13 803.34C1769.43 804.509 1771.66 805.796 1773.82 807.193C1774.76 816.503 1775.13 825.873 1774.91 835.229C1774.38 857.532 1771.37 880.488 1764.56 901.768C1761.22 912.212 1756.8 922.571 1750.2 931.397C1747.22 935.394 1743.83 939 1739.84 942.007C1737.9 943.467 1735.86 944.77 1733.7 945.87C1730.92 947.294 1727.29 947.763 1724.89 949.778C1724.11 950.441 1723.5 951.315 1723.04 952.302C1723.3 954.177 1723.33 956.057 1722.82 957.932C1722.66 958.518 1722.22 958.996 1721.67 959.226C1721.66 959.388 1721.66 959.546 1721.66 959.699C1721.66 959.771 1721.55 959.789 1721.54 959.717C1721.52 959.577 1721.5 959.437 1721.47 959.294C1721.3 959.352 1721.11 959.379 1720.92 959.379C1714.08 959.405 1707.22 959.238 1700.37 959.006C1700.9 957.381 1701.47 955.771 1702.02 954.147C1702.77 951.941 1699.29 951.003 1698.55 953.189C1697.9 955.088 1697.23 956.969 1696.63 958.875C1689.28 958.602 1681.94 958.273 1674.61 958.031C1659.02 957.513 1643.43 957.341 1627.84 957.013C1603.62 956.499 1579.23 955.448 1554.98 956.476C1554.14 954.696 1553.2 952.956 1552.31 951.2C1551.26 949.128 1548.15 950.955 1549.2 953.02C1549.81 954.241 1550.45 955.446 1551.06 956.663C1546.15 956.919 1541.24 957.256 1536.35 957.716C1527.99 958.5 1519.72 959.893 1511.37 960.759C1502.88 961.642 1494.58 961.484 1486.16 960.082C1484.65 959.83 1483.75 958.914 1483.38 957.779C1483.37 957.774 1483.36 957.766 1483.35 957.752C1482.92 957.247 1482.51 956.828 1482.1 956.462C1481.6 956.138 1481.05 955.863 1480.42 955.62C1479.23 955.169 1478 954.894 1476.75 954.709C1475.37 954.502 1473.97 954.484 1472.59 954.313C1471.43 954.164 1470.29 953.943 1469.16 953.673C1467.11 953.186 1465.18 952.55 1463.25 951.707C1461.57 950.973 1460.05 949.918 1458.61 948.768C1455.65 946.6 1453.08 943.833 1450.83 940.957C1449.53 939.275 1448.3 937.531 1447.18 935.715C1445.23 932.568 1443.57 929.3 1441.9 926.005C1441.29 925.029 1440.73 924.029 1440.23 923.008C1443.5 922.043 1446.81 921.256 1450.28 921.2C1452.61 921.162 1452.61 917.556 1450.28 917.594C1446.3 917.657 1442.53 918.588 1438.79 919.697C1438.61 919.212 1438.43 918.724 1438.27 918.23C1437.82 917.198 1437.45 916.138 1437.15 915.066C1436.97 914.579 1436.79 914.092 1436.61 913.605C1436.2 911.919 1435.79 910.229 1435.38 908.539C1434.57 905.834 1433.92 903.089 1433.45 900.308C1433.05 898.478 1432.75 896.634 1432.54 894.768C1431.91 890.247 1431.4 885.735 1431.36 881.165C1431.41 878.347 1431.59 875.535 1431.9 872.736C1432.03 870.833 1432.25 868.94 1432.55 867.061C1432.94 864.266 1433.32 861.499 1433.96 858.74C1434.45 856.874 1434.93 855.008 1435.41 853.141C1436.61 849.252 1438.03 845.438 1439.67 841.71C1439.76 841.476 1440.22 840.962 1440.49 840.958C1440.7 840.953 1440.99 841.142 1440.89 841.395C1440.88 841.417 1440.87 841.444 1440.87 841.467C1440.96 841.255 1441.05 841.039 1441.14 840.827C1441.23 840.629 1441.54 840.232 1441.78 840.237C1441.8 840.237 1441.81 840.237 1441.83 840.241C1441.77 840.196 1441.71 840.137 1441.65 840.07C1440.03 838.154 1438.98 835.634 1437.82 833.417C1436.86 831.587 1435.96 829.657 1435.7 827.588C1435.47 825.772 1435.78 823.982 1436.92 822.513C1438.21 820.841 1440.66 820.056 1439.3 817.64C1437.76 814.891 1435.49 812.506 1437.75 809.383C1438.9 807.791 1440.72 806.917 1442.07 805.533C1443.63 803.933 1444.37 801.792 1444.33 799.606C1444.23 799.66 1444.11 799.633 1444.06 799.498C1442.75 795.549 1443.7 791.213 1445.04 787.368C1445.77 785.281 1447.32 784.709 1449.11 784.605C1441.33 769.393 1434.04 753.936 1427.54 738.124C1427.33 737.605 1427.11 737.087 1426.9 736.568C1426.59 735.793 1427.25 734.761 1428.02 734.59C1433.64 733.359 1439.49 732.967 1445.21 732.427Z" fill="black"/>
<path fill-rule="evenodd" clip-rule="evenodd" d="M1510.56 544.008C1511.63 530.15 1509.97 515.625 1515.3 502.454C1524.6 480.599 1550.67 473.312 1570.87 464.992C1578.97 462.594 1606.21 462.259 1615.69 459.086C1637.14 451.905 1642.27 443.349 1659.31 457.022C1662.19 459.358 1663.99 461.896 1665.31 465.365L1665.25 465.38C1665.63 466.826 1665.23 468.269 1664.38 469.371C1671.77 476.943 1674.86 488.294 1671.07 498.373C1658.7 524.602 1659.28 538.784 1663.27 566.981C1668.47 593.305 1656.57 602.921 1636.87 617.244C1637.67 618.803 1637.84 620.875 1636.79 622.251C1614 654.344 1571.04 669.667 1534.22 653.378C1519.28 646.712 1512.61 630.763 1508.8 616.372C1504.37 600.258 1503 583.278 1506.61 566.864C1508.07 559.272 1509.97 551.735 1510.56 544.008Z" fill="#D08B5B"/>
<path fill-rule="evenodd" clip-rule="evenodd" d="M1673.77 504.697L1660.23 513.743L1611.72 462.499L1627.86 449.767C1627.86 449.767 1657.15 471.456 1662.9 477.181C1668.66 482.905 1673.77 504.697 1673.77 504.697Z" fill="#570CF4"/>
<path fill-rule="evenodd" clip-rule="evenodd" d="M1642 390.474C1639.24 390.058 1637.15 391.778 1636.16 394.202L1636.1 394.333C1635.78 395.157 1635.43 395.96 1635.05 396.749C1628.12 393.345 1618.25 394.22 1613.87 401.112C1610.74 406.034 1612.65 411.876 1613.83 417.095L1614.6 420.535C1613.11 421.488 1611.98 423.196 1612.03 424.965L1612.04 425.101L1612.35 429.897C1611.35 428.883 1610.44 427.778 1609.63 426.602C1609.06 425.57 1608.46 424.555 1607.8 423.573C1603.97 417.79 1595.36 422.815 1598.52 429.009C1599.13 430.203 1599.81 431.335 1600.55 432.425C1601.37 434.035 1602.05 435.689 1602.57 437.388C1601.08 438.042 1599.93 439.493 1599.8 441.684C1599.52 446.8 1602.2 451.068 1606.46 453.75C1607.72 454.539 1609.01 454.692 1610.19 454.399C1610.4 454.679 1610.6 454.958 1610.8 455.242C1609.1 456.626 1607.57 458.204 1606.25 459.953C1602.28 459.358 1598.29 459.078 1594.3 459.069C1589.43 456.676 1583.59 456.725 1578.35 457.622C1574.98 458.199 1571.74 459.322 1568.42 460.129C1564.92 460.976 1561.37 461.007 1557.83 461.584C1553.37 462.31 1549.45 464.375 1546.99 467.67C1544.29 467.751 1541.45 468.86 1539.09 470.365C1533.6 473.872 1528.15 477.428 1522.68 480.958C1520.57 482.313 1519.79 484.476 1520.18 486.888L1520.2 487.043L1520.39 488.043L1519.95 488.659C1518.28 491.03 1516.46 493.513 1515.37 496.13C1513.37 499.028 1511.55 502.066 1509.95 505.199C1507.78 509.409 1506 513.871 1504.79 518.451C1504.49 519.61 1504.19 520.777 1503.99 521.958C1503.71 523.626 1504.14 524.919 1504.38 526.52C1504.68 528.548 1504.78 530.603 1505.1 532.636C1505.31 533.984 1506.45 534.647 1507.65 534.683C1507.2 538.113 1506.88 541.566 1506.57 544.991C1506.13 549.886 1505.83 554.795 1505.58 559.704C1504.25 561.628 1501.55 563.152 1499.6 563.679C1496.9 564.405 1494.06 563.616 1491.51 562.692C1489.9 562.111 1488.58 564.135 1489.37 565.487C1491.83 569.733 1497.09 569.715 1501.07 567.835C1502.76 567.042 1504.24 565.893 1505.34 564.396C1505.27 565.82 1505.2 567.245 1505.13 568.674L1505.06 569.968C1504.25 585.082 1502.5 600.717 1505.33 615.682C1510.24 641.605 1531.64 661.343 1557.79 662.876C1571.51 663.68 1582.94 659.619 1588.62 657.353C1594.3 655.087 1592.09 650.467 1588.15 651.788C1581.36 654.063 1568.87 657.452 1557.7 655.988C1531.37 652.539 1509.05 639.35 1511.34 582.548C1511.67 574.493 1512.67 566.433 1512.88 558.379C1513.09 550.504 1513.01 542.625 1513.36 534.755L1513.48 532.07C1513.61 528.932 1513.76 525.78 1513.99 522.639C1514.27 521.422 1514.51 520.186 1514.85 518.992C1515.79 515.742 1517.02 512.582 1518.55 509.567C1518.88 509.824 1519.26 510.009 1519.67 510.081C1522.78 510.64 1525.69 510.482 1528.6 509.184C1529.96 508.584 1531.16 507.786 1532.27 506.799C1532.8 506.335 1533.16 505.884 1533.44 505.415C1534.85 505.438 1536.25 505.014 1537.14 504C1538.14 502.844 1538.31 501.65 1537.91 500.545L1537.87 500.435L1537.97 500.399C1539.16 503.477 1541.52 506.186 1544.12 508.016C1548.22 510.919 1553.35 511.757 1558.27 511.834C1563.71 511.915 1569.44 511.077 1574.8 510.22C1576.21 509.995 1577.62 509.738 1579 509.391C1579.06 509.445 1579.11 509.508 1579.17 509.562C1583.77 513.975 1590.24 515.111 1596.08 512.591C1599.45 511.135 1602.28 508.792 1604.78 506.105C1604.82 507.511 1604.89 508.918 1605.01 510.311L1605.06 510.864C1605.31 513.458 1605.79 516.209 1607.75 518.081C1610.91 521.115 1615.5 519.898 1619.14 517.924C1619.14 518.018 1619.14 518.118 1619.14 518.217C1618.15 521.57 1617.16 524.928 1616.17 528.286L1615.96 529.002C1615.24 531.386 1614.45 533.774 1614.24 536.269C1613.82 541.038 1616.99 545.749 1622.28 544.148C1625.05 543.312 1627.27 540.974 1629.41 539.102L1630.75 537.937C1627.27 549.327 1624.86 561.124 1624.64 573.01C1624.63 573.654 1625.18 574.141 1625.79 574.164C1627.22 574.222 1628.76 573.938 1630.2 573.366C1630.28 573.361 1630.36 573.357 1630.45 573.343C1632.9 572.987 1635.18 572.099 1637.19 570.788C1636.73 572.262 1636.52 573.844 1636.64 575.498C1636.67 575.899 1637.3 576.039 1637.39 575.597C1638.55 569.877 1645.23 565.554 1650.99 566.65C1657.17 567.826 1661.72 573.154 1662.83 579.217C1664.03 585.73 1661.74 593.262 1657.5 598.288C1655.55 600.605 1652.98 602.539 1649.93 603.025C1648.53 603.246 1647.09 603.17 1645.73 602.773C1645.16 602.602 1644.62 602.363 1644.07 602.137C1643.27 601.813 1642.33 601.763 1641.58 601.421C1639.86 600.65 1638.14 602.232 1639.01 603.994C1639.76 605.532 1640.44 606.568 1641.7 607.362C1640.68 608.606 1639.76 610.336 1639.42 610.801C1637.67 613.163 1635.9 615.394 1633.91 617.553C1631.89 619.744 1629.68 621.745 1627.35 623.598L1626.37 624.375C1624.12 626.162 1622.16 627.818 1620.57 630.381C1619.32 632.405 1620.94 635.15 1623.29 635.119C1630.62 635.015 1635.95 628.56 1639.74 622.921C1640.28 622.115 1640.79 621.263 1641.26 620.388C1641.43 620.663 1641.62 620.92 1641.83 621.154L1641.41 622.281C1640.17 625.599 1645.52 627.767 1647.07 624.67C1648.2 622.426 1649.51 620.289 1650.97 618.27C1651.83 618.148 1652.67 617.625 1653.14 616.949C1654.32 615.232 1655.65 613.496 1656.77 611.666C1657.39 611.076 1658.02 610.508 1658.68 609.953C1658.87 610.12 1659.06 610.287 1659.24 610.463C1660.06 612.333 1661.07 614.042 1662.33 615.651L1662.6 615.994C1665 619.03 1668.13 622.138 1672.01 622.881C1673.19 623.106 1674.33 621.632 1673.28 620.69C1670.57 618.247 1667.36 616.584 1664.86 613.857C1663.63 612.513 1662.5 611.034 1661.52 609.483L1661.3 609.124C1661.14 608.858 1660.97 608.592 1660.8 608.322C1661.93 607.551 1663.06 606.776 1664.19 606C1667.3 608.661 1671.35 609.878 1674.78 612.082L1675.12 612.306C1678.23 614.389 1681.51 609.782 1679.01 607.253C1676.27 604.476 1673.97 601.165 1671.54 598.078C1672.69 595.966 1673.23 593.468 1673.43 590.944C1673.51 590.229 1673.57 589.515 1673.64 588.8C1675.38 588.827 1677.13 588.227 1678.62 587.195L1679.18 586.794C1680.98 587.371 1682.88 587.65 1684.69 587.601C1688.95 587.474 1690.7 582.593 1688.03 579.505C1685.31 576.35 1680.55 575.66 1676.77 577.193C1676.65 577.13 1676.53 577.062 1676.41 576.994C1676.59 576.165 1676.55 575.413 1676.34 574.752L1676.4 574.349C1677.23 573.073 1677.78 571.616 1677.98 570.077C1678.15 568.858 1678.11 567.649 1677.83 566.445C1677.74 566.044 1677.54 565.629 1677.39 565.211C1677.7 564.435 1677.88 563.633 1677.94 562.826C1678.02 562.724 1678.11 562.619 1678.19 562.505C1680.06 559.871 1679.68 556.696 1677.9 554.564C1677.89 554.428 1677.88 554.292 1677.86 554.158C1677.97 553.922 1678.06 553.685 1678.15 553.445C1679.89 551.684 1681.17 549.566 1680.93 546.942C1680.79 545.397 1680.16 544.007 1679.2 542.968C1679.37 542.464 1679.39 541.881 1679.18 541.393C1680.71 537.316 1680.52 532.405 1679.41 527.845C1679.66 527.151 1679.78 526.398 1679.76 525.6C1679.63 522.215 1676.71 519.105 1673.24 519.145C1672.83 519.149 1672.44 519.203 1672.06 519.283L1672.06 519.202C1671.92 518.186 1671.65 517.248 1671.24 516.405C1671.44 516.333 1671.62 516.228 1671.79 516.09C1674.01 517.276 1676.35 518.183 1678.82 518.801C1680.63 519.256 1682.48 517.193 1681.35 515.491C1680.83 514.7 1680.26 513.991 1679.64 513.343C1680.52 513.348 1681.41 513.408 1682.32 513.524C1683.95 513.736 1685.77 512.623 1686.82 511.117C1688.14 512.397 1689.45 513.673 1690.77 514.949C1694.11 518.19 1699.15 515.805 1699.68 511.532C1700.67 511.266 1701.6 510.815 1702.41 510.171C1707.67 512.461 1713.34 513.718 1719.12 513.957C1723.28 514.128 1725.71 509.278 1723.76 505.853C1722.46 503.554 1720.84 501.489 1718.97 499.695C1721.87 500.583 1724.86 501.223 1727.92 501.634C1729.57 501.854 1731.9 500.484 1732.56 498.965C1735.09 493.123 1734.87 487.034 1731.96 481.35C1731.85 481.124 1731.73 480.908 1731.6 480.692C1731.3 479.939 1730.97 479.195 1730.62 478.465C1734.2 474.724 1734.51 469.162 1732.58 464.505C1733.35 463.248 1733.65 461.733 1733.12 460.363C1731.63 456.419 1729.47 452.777 1726.74 449.649C1727 449.144 1727.23 448.607 1727.43 448.03C1728.96 443.365 1727.18 437.735 1723.6 434.485C1721.35 432.439 1718.75 431.213 1715.99 430.429C1714.82 428.364 1713.33 426.503 1711.58 424.934C1711.51 424.785 1711.45 424.636 1711.37 424.488C1708.65 419.358 1703.71 416.609 1698.4 415.973C1698.2 413.967 1696.85 412.052 1694.89 411.429C1694.35 409.694 1693.54 408.035 1692.44 406.53C1690.69 404.159 1687.8 403.041 1685.08 404.596C1683.58 405.448 1682.15 406.426 1680.81 407.508C1680.21 407.225 1679.53 407.042 1678.76 406.984L1678.56 406.972L1674.13 406.746C1672.27 405.921 1670.42 405.056 1668.56 404.213C1667.45 403.289 1666.2 402.518 1664.84 401.946C1663.3 401.301 1661.73 400.936 1660.15 400.814C1658.87 400.395 1657.58 400.025 1656.27 399.737C1653.18 399.061 1649.95 398.682 1646.75 398.714C1646.68 397.883 1646.65 397.043 1646.66 396.192L1646.66 395.766C1646.74 393.039 1644.56 390.862 1642 390.474ZM1645.11 608.66C1645.55 608.754 1646 608.831 1646.44 608.885C1646.31 609.219 1646.17 609.552 1646.04 609.886C1645.68 610.089 1645.32 610.282 1644.95 610.463C1645.06 609.85 1645.13 609.232 1645.11 608.66ZM1668.22 601.778L1668.52 602.33C1668.57 602.42 1668.61 602.509 1668.66 602.597C1668.03 602.548 1667.39 602.561 1666.76 602.633L1666.76 602.566C1666.84 602.538 1666.92 602.513 1667 602.475C1667.43 602.266 1667.84 602.032 1668.22 601.778ZM1655.73 576.602C1651.75 576.835 1648.38 577.446 1644.76 579.191L1644.45 579.343C1641.25 580.934 1635.96 583.873 1636.41 588.088C1636.54 589.286 1637.4 590.549 1638.77 590.454C1642.52 590.197 1644.66 586.411 1647.19 584.049C1649.75 581.669 1652.9 579.221 1656 577.585C1656.43 577.355 1656.26 576.626 1655.78 576.602L1655.73 576.602ZM1673.77 521.074C1674.73 521.106 1674.41 522.035 1673.92 521.259C1673.88 521.196 1673.83 521.133 1673.77 521.074ZM1622.31 459.086C1631.34 459.324 1640.43 464.668 1647.19 470.069C1653.07 474.768 1658.16 480.358 1662.66 486.382C1663.81 489.382 1664.81 492.445 1665.65 495.53C1666.2 497.568 1666.55 499.628 1667.01 501.683L1667.15 502.313C1667.52 502.995 1667.79 503.728 1667.99 504.486C1667.17 505.31 1666.1 505.9 1664.93 506.18C1664.55 506.27 1664.24 506.465 1663.99 506.724C1663.05 505.147 1662.23 503.483 1661.75 501.719L1661.73 501.637C1659.92 498.663 1657.95 495.781 1655.84 492.997C1650.02 485.312 1643.61 478.307 1635.91 472.479C1630.06 468.062 1623.53 464.6 1616.59 462.351C1618.29 460.976 1620.22 459.889 1622.31 459.086Z" fill="black"/>
<path fill-rule="evenodd" clip-rule="evenodd" d="M1551.61 626.572C1554.64 625.336 1557.34 623.274 1559.32 620.64C1560.01 619.725 1560.18 618.758 1560.04 617.873C1559.88 616.879 1559.29 615.978 1558.49 615.373C1557.68 614.767 1556.68 614.467 1555.7 614.62C1554.86 614.752 1554.01 615.215 1553.35 616.176L1553.21 616.368C1552.03 617.958 1550.5 619.262 1548.76 620.103C1547.08 620.913 1545.2 621.291 1543.25 621.071C1539.54 620.653 1536.99 618.648 1534.27 615.926C1533.94 615.582 1533.6 615.227 1533.26 614.867C1533.05 614.541 1532.75 614.331 1532.42 614.221C1532.06 614.099 1531.64 614.105 1531.26 614.238C1530.9 614.365 1530.57 614.607 1530.35 614.928C1530.15 615.234 1530.03 615.612 1530.07 616.046C1530.31 618.867 1531.79 621.385 1533.88 623.362C1536.21 625.558 1539.29 627.077 1542.2 627.61C1545.4 628.197 1548.66 627.777 1551.61 626.572V626.572ZM1540.69 583.048C1537.29 585.117 1532.1 589.941 1535.76 595.071C1540.07 599.593 1546.28 594.408 1549.33 592.063C1552.17 590.245 1555.35 594.92 1552.72 597.042C1530.63 613.402 1521.66 583.589 1538.97 580.615C1540.87 580.288 1541.58 582.408 1540.69 583.048ZM1580.28 564.017C1579.91 559.349 1572.8 558.289 1572.09 562.908C1571.46 567.046 1572.2 570.847 1574.07 574.573C1575.85 578.132 1580.32 576.471 1580.66 573.23C1581.12 568.886 1580.52 566.921 1580.28 564.017ZM1526.17 561.95C1525.18 560.652 1523.75 559.766 1522.03 560.267C1516.68 561.832 1518.26 569.438 1520.14 573.14C1521.16 575.15 1524.46 575.66 1525.96 573.89C1528.39 571.003 1529.56 565.239 1526.46 562.395C1526.38 562.248 1526.29 562.1 1526.17 561.95ZM1574.14 543.591L1573.3 543.443C1570.68 542.99 1567.43 542.555 1565.57 544.66C1564.59 545.776 1564.25 547.85 1565.57 548.918C1567.9 550.798 1570.46 550.07 1573.25 550.229C1575.54 550.36 1577.74 550.74 1579.95 551.371C1584.8 552.756 1588.75 555.285 1592.88 558.062C1593.43 558.426 1593.98 557.731 1593.72 557.223C1591.33 552.543 1586.7 548.699 1582.07 546.355C1579.59 545.105 1576.88 544.067 1574.14 543.591ZM1531.05 541.494L1530.41 541.627C1523.36 543.1 1514.2 546.043 1510.86 552.967C1510.74 553.946 1510.87 554.155 1510.98 554.293L1511.02 554.338C1511.11 554.455 1511.18 554.617 1511.6 554.75C1511.72 554.722 1511.84 554.692 1511.96 554.661C1513.49 554.26 1514.7 553.707 1515.87 553.134L1517.14 552.508C1518.62 551.785 1520.1 551.089 1521.68 550.575C1525.04 549.477 1528.5 548.705 1532.02 548.292C1532.78 548.203 1533.51 547.946 1534.09 547.505C1534.64 547.087 1535.06 546.508 1535.25 545.739C1535.5 544.743 1535.42 543.989 1534.89 543.091C1534.49 542.416 1533.91 541.949 1533.25 541.68C1532.58 541.406 1531.82 541.342 1531.05 541.494Z" fill="black"/>
<path fill-rule="evenodd" clip-rule="evenodd" d="M1540.19 600.61C1545.21 598.352 1554.21 600.322 1557.47 601.105C1565.07 602.927 1572.71 606.865 1575.07 613.033C1577.74 619.985 1572.43 622.173 1571.64 621.816C1566.39 622.187 1560.12 618.88 1554.61 618.027C1550.14 617.328 1545.42 616.718 1541.23 614.341C1538.17 616.025 1531.26 616.935 1525.68 618.407C1520.93 619.66 1518.87 622.378 1514.46 621.8C1509.19 621.107 1511.35 610.004 1517.23 605.506C1523.67 600.583 1534.56 598.587 1540.19 600.61ZM1530.27 648.085C1534.65 649.154 1534.95 639.542 1535.44 636.146C1535.82 633.493 1537.99 626.651 1543.48 626.946C1548.96 627.241 1551.03 632.974 1550.75 636.539C1550.57 638.851 1548.44 650.562 1555.24 652.044C1559.57 652.029 1564.59 651.736 1569.15 650.895C1574.51 649.68 1581.49 645.425 1583.33 653.805C1583.99 656.82 1560.36 665.78 1549.87 666.59C1539.24 668.746 1526.79 665.431 1519.22 657.294C1517.5 655.443 1512.65 647.759 1512.3 645.876C1511.57 641.921 1513.26 639.376 1518.15 640.77C1521.61 642.616 1527.45 647.397 1530.27 648.085Z" fill="black"/>
<path fill-rule="evenodd" clip-rule="evenodd" d="M1500.35 585.793C1505.82 591.448 1514.96 593.071 1522.24 590.038C1540.93 582.227 1531.78 557.864 1517.37 551.321C1515.57 550.873 1513.16 549.807 1510.97 549.566C1510.77 549.468 1510.34 549.75 1509.81 549.484C1493.92 551.259 1490.3 575.938 1500.35 585.793M1560.65 587.241C1566.78 595.382 1578.19 597.893 1587.52 594.109C1605.93 586.855 1599.4 565.251 1586.8 556.782C1560.18 546.779 1549.19 572.23 1560.65 587.241M1600.57 569.203C1600.59 569.195 1600.6 569.191 1600.62 569.182C1600.52 569.14 1600.43 569.097 1600.33 569.053C1600.36 569.136 1600.4 569.217 1600.43 569.3C1600.47 569.267 1600.52 569.228 1600.57 569.203M1487.68 560.403C1489.19 560.406 1491.36 560.653 1492.6 561.695C1495.67 551.349 1506.99 541.774 1516.84 548.756C1524.59 551.25 1530.35 556.781 1533.62 564.135C1539.51 560.627 1548.78 562.125 1553.9 566.764C1557.25 555.697 1565.49 551.822 1575.3 551.25C1586 549.496 1596.68 559.896 1600.01 568.238C1602.77 567.923 1606.91 567.042 1609.52 568.751C1626.42 564.317 1655.98 561.873 1659.41 564.336C1661.86 565.276 1663.21 571.057 1659.78 571.369C1656.8 570.946 1660.13 567.133 1657.13 566.717C1641.12 565.724 1625.57 568.949 1609.73 570.302C1608.32 572.205 1603.75 572.841 1601.31 572.077C1605.15 586.228 1596.86 595.856 1584.44 598.74C1565.21 603.158 1548.48 585.954 1553.51 568.059C1547.69 565.161 1540.99 565.285 1534.64 566.812C1545.24 605.842 1482.39 604.091 1492.21 563.033C1485.67 566.283 1484.25 561.059 1487.68 560.403" fill="black"/>
<g filter="url(#filter0_di_845_7576)">
<path fill-rule="evenodd" clip-rule="evenodd" d="M1428 168C1455.61 168 1478 190.386 1478 218V414C1478 437.061 1462.39 456.476 1441.16 462.251L1398 537L1355.85 464H957C929.386 464 907 441.614 907 414V218C907 190.386 929.386 168 957 168H1428Z" fill="white"/>
</g>
<path d="M974.143 270H983.583V290.68H996.223V298H974.143V270ZM1021.83 287.04C1021.83 287.173 1021.79 287.88 1021.71 289.16H1006.51C1006.83 289.987 1007.36 290.627 1008.11 291.08C1008.86 291.507 1009.79 291.72 1010.91 291.72C1011.87 291.72 1012.67 291.6 1013.31 291.36C1013.98 291.12 1014.7 290.707 1015.47 290.12L1020.19 294.88C1018.06 297.227 1014.87 298.4 1010.63 298.4C1007.99 298.4 1005.67 297.92 1003.67 296.96C1001.67 295.973 1000.12 294.613 999.031 292.88C997.937 291.147 997.391 289.2 997.391 287.04C997.391 284.853 997.924 282.907 998.991 281.2C1000.08 279.467 1001.56 278.12 1003.43 277.16C1005.32 276.2 1007.44 275.72 1009.79 275.72C1012 275.72 1014.02 276.16 1015.83 277.04C1017.67 277.92 1019.12 279.213 1020.19 280.92C1021.28 282.627 1021.83 284.667 1021.83 287.04ZM1009.87 281.88C1008.94 281.88 1008.16 282.133 1007.55 282.64C1006.94 283.147 1006.54 283.867 1006.35 284.8H1013.39C1013.2 283.893 1012.8 283.187 1012.19 282.68C1011.58 282.147 1010.8 281.88 1009.87 281.88ZM1040.8 297.24C1039.44 298.013 1037.59 298.4 1035.24 298.4C1032.18 298.4 1029.82 297.667 1028.16 296.2C1026.51 294.707 1025.68 292.48 1025.68 289.52V283.92H1022.68V277.32H1025.68V271.2H1034.72V277.32H1039.2V283.92H1034.72V289.44C1034.72 290.107 1034.9 290.627 1035.24 291C1035.59 291.373 1036.04 291.56 1036.6 291.56C1037.38 291.56 1038.06 291.36 1038.64 290.96L1040.8 297.24ZM1042.36 270H1049.96L1049.36 282H1042.96L1042.36 270ZM1061.8 298.4C1059.93 298.4 1058.09 298.2 1056.28 297.8C1054.46 297.4 1053 296.88 1051.88 296.24L1054.36 290.28C1055.37 290.893 1056.57 291.373 1057.96 291.72C1059.34 292.067 1060.69 292.24 1062 292.24C1063.04 292.24 1063.76 292.16 1064.16 292C1064.58 291.813 1064.8 291.547 1064.8 291.2C1064.8 290.853 1064.53 290.613 1064 290.48C1063.49 290.347 1062.65 290.213 1061.48 290.08C1059.69 289.867 1058.17 289.6 1056.92 289.28C1055.66 288.933 1054.56 288.28 1053.6 287.32C1052.66 286.36 1052.2 284.987 1052.2 283.2C1052.2 281.787 1052.62 280.52 1053.48 279.4C1054.33 278.28 1055.6 277.387 1057.28 276.72C1058.98 276.053 1061.02 275.72 1063.4 275.72C1065.05 275.72 1066.66 275.88 1068.24 276.2C1069.84 276.493 1071.2 276.933 1072.32 277.52L1069.84 283.48C1067.92 282.413 1065.81 281.88 1063.52 281.88C1061.54 281.88 1060.56 282.227 1060.56 282.92C1060.56 283.267 1060.82 283.52 1061.36 283.68C1061.89 283.813 1062.73 283.947 1063.88 284.08C1065.66 284.293 1067.17 284.573 1068.4 284.92C1069.65 285.267 1070.74 285.92 1071.68 286.88C1072.64 287.84 1073.12 289.213 1073.12 291C1073.12 292.36 1072.69 293.6 1071.84 294.72C1070.98 295.84 1069.7 296.733 1068 297.4C1066.29 298.067 1064.22 298.4 1061.8 298.4ZM1102.45 275.72C1104.37 275.72 1106.13 276.187 1107.73 277.12C1109.35 278.027 1110.63 279.347 1111.57 281.08C1112.53 282.787 1113.01 284.773 1113.01 287.04C1113.01 289.307 1112.53 291.307 1111.57 293.04C1110.63 294.773 1109.35 296.107 1107.73 297.04C1106.13 297.947 1104.37 298.4 1102.45 298.4C1099.75 298.4 1097.75 297.667 1096.45 296.2V298H1087.85V268.32H1096.89V277.6C1098.17 276.347 1100.02 275.72 1102.45 275.72ZM1100.29 291.36C1101.33 291.36 1102.18 290.987 1102.85 290.24C1103.51 289.467 1103.85 288.4 1103.85 287.04C1103.85 285.68 1103.51 284.627 1102.85 283.88C1102.18 283.133 1101.33 282.76 1100.29 282.76C1099.25 282.76 1098.39 283.133 1097.73 283.88C1097.06 284.627 1096.73 285.68 1096.73 287.04C1096.73 288.4 1097.06 289.467 1097.73 290.24C1098.39 290.987 1099.25 291.36 1100.29 291.36ZM1139.78 276.12V298H1131.18V295.92C1130.38 296.747 1129.44 297.373 1128.38 297.8C1127.31 298.2 1126.18 298.4 1124.98 298.4C1122.2 298.4 1119.98 297.56 1118.3 295.88C1116.62 294.173 1115.78 291.613 1115.78 288.2V276.12H1124.82V286.64C1124.82 288.133 1125.06 289.2 1125.54 289.84C1126.02 290.48 1126.72 290.8 1127.66 290.8C1128.54 290.8 1129.27 290.453 1129.86 289.76C1130.44 289.04 1130.74 287.92 1130.74 286.4V276.12H1139.78ZM1143.79 276.12H1152.83V298H1143.79V276.12ZM1148.31 274.36C1146.68 274.36 1145.36 273.933 1144.35 273.08C1143.36 272.2 1142.87 271.093 1142.87 269.76C1142.87 268.427 1143.36 267.333 1144.35 266.48C1145.36 265.6 1146.68 265.16 1148.31 265.16C1149.96 265.16 1151.28 265.573 1152.27 266.4C1153.25 267.227 1153.75 268.293 1153.75 269.6C1153.75 270.987 1153.25 272.133 1152.27 273.04C1151.28 273.92 1149.96 274.36 1148.31 274.36ZM1156.83 268.32H1165.87V298H1156.83V268.32ZM1194.08 268.32V298H1185.48V296.2C1184.17 297.667 1182.17 298.4 1179.48 298.4C1177.56 298.4 1175.79 297.947 1174.16 297.04C1172.56 296.107 1171.28 294.773 1170.32 293.04C1169.39 291.307 1168.92 289.307 1168.92 287.04C1168.92 284.773 1169.39 282.787 1170.32 281.08C1171.28 279.347 1172.56 278.027 1174.16 277.12C1175.79 276.187 1177.56 275.72 1179.48 275.72C1181.91 275.72 1183.76 276.347 1185.04 277.6V268.32H1194.08ZM1181.64 291.36C1182.68 291.36 1183.53 290.987 1184.2 290.24C1184.87 289.467 1185.2 288.4 1185.2 287.04C1185.2 285.68 1184.87 284.627 1184.2 283.88C1183.53 283.133 1182.68 282.76 1181.64 282.76C1180.6 282.76 1179.75 283.133 1179.08 283.88C1178.41 284.627 1178.08 285.68 1178.08 287.04C1178.08 288.4 1178.41 289.467 1179.08 290.24C1179.75 290.987 1180.6 291.36 1181.64 291.36ZM1219.87 275.72C1223.71 275.72 1226.65 276.587 1228.67 278.32C1230.7 280.027 1231.71 282.667 1231.71 286.24V298H1223.31V295.12C1222.27 297.307 1220.21 298.4 1217.11 298.4C1215.38 298.4 1213.9 298.107 1212.67 297.52C1211.47 296.907 1210.55 296.093 1209.91 295.08C1209.3 294.04 1208.99 292.88 1208.99 291.6C1208.99 289.44 1209.82 287.8 1211.47 286.68C1213.13 285.56 1215.63 285 1218.99 285H1222.63C1222.34 283.293 1220.97 282.44 1218.51 282.44C1217.53 282.44 1216.53 282.6 1215.51 282.92C1214.5 283.213 1213.63 283.627 1212.91 284.16L1210.03 278.2C1211.29 277.427 1212.79 276.827 1214.55 276.4C1216.34 275.947 1218.11 275.72 1219.87 275.72ZM1219.83 292.96C1220.47 292.96 1221.05 292.787 1221.55 292.44C1222.06 292.093 1222.43 291.573 1222.67 290.88V289.36H1220.43C1218.59 289.36 1217.67 289.973 1217.67 291.2C1217.67 291.707 1217.86 292.133 1218.23 292.48C1218.63 292.8 1219.17 292.96 1219.83 292.96ZM1271.81 268.32V298H1263.21V296.2C1261.91 297.667 1259.91 298.4 1257.21 298.4C1255.29 298.4 1253.52 297.947 1251.89 297.04C1250.29 296.107 1249.01 294.773 1248.05 293.04C1247.12 291.307 1246.65 289.307 1246.65 287.04C1246.65 284.773 1247.12 282.787 1248.05 281.08C1249.01 279.347 1250.29 278.027 1251.89 277.12C1253.52 276.187 1255.29 275.72 1257.21 275.72C1259.64 275.72 1261.49 276.347 1262.77 277.6V268.32H1271.81ZM1259.37 291.36C1260.41 291.36 1261.27 290.987 1261.93 290.24C1262.6 289.467 1262.93 288.4 1262.93 287.04C1262.93 285.68 1262.6 284.627 1261.93 283.88C1261.27 283.133 1260.41 282.76 1259.37 282.76C1258.33 282.76 1257.48 283.133 1256.81 283.88C1256.15 284.627 1255.81 285.68 1255.81 287.04C1255.81 288.4 1256.15 289.467 1256.81 290.24C1257.48 290.987 1258.33 291.36 1259.37 291.36ZM1299.1 287.04C1299.1 287.173 1299.06 287.88 1298.98 289.16H1283.78C1284.1 289.987 1284.63 290.627 1285.38 291.08C1286.12 291.507 1287.06 291.72 1288.18 291.72C1289.14 291.72 1289.94 291.6 1290.58 291.36C1291.24 291.12 1291.96 290.707 1292.74 290.12L1297.46 294.88C1295.32 297.227 1292.14 298.4 1287.9 298.4C1285.26 298.4 1282.94 297.92 1280.94 296.96C1278.94 295.973 1277.39 294.613 1276.3 292.88C1275.2 291.147 1274.66 289.2 1274.66 287.04C1274.66 284.853 1275.19 282.907 1276.26 281.2C1277.35 279.467 1278.83 278.12 1280.7 277.16C1282.59 276.2 1284.71 275.72 1287.06 275.72C1289.27 275.72 1291.28 276.16 1293.1 277.04C1294.94 277.92 1296.39 279.213 1297.46 280.92C1298.55 282.627 1299.1 284.667 1299.1 287.04ZM1287.14 281.88C1286.2 281.88 1285.43 282.133 1284.82 282.64C1284.2 283.147 1283.8 283.867 1283.62 284.8H1290.66C1290.47 283.893 1290.07 283.187 1289.46 282.68C1288.84 282.147 1288.07 281.88 1287.14 281.88ZM1310.51 298.4C1308.64 298.4 1306.8 298.2 1304.99 297.8C1303.18 297.4 1301.71 296.88 1300.59 296.24L1303.07 290.28C1304.08 290.893 1305.28 291.373 1306.67 291.72C1308.06 292.067 1309.4 292.24 1310.71 292.24C1311.75 292.24 1312.47 292.16 1312.87 292C1313.3 291.813 1313.51 291.547 1313.51 291.2C1313.51 290.853 1313.24 290.613 1312.71 290.48C1312.2 290.347 1311.36 290.213 1310.19 290.08C1308.4 289.867 1306.88 289.6 1305.63 289.28C1304.38 288.933 1303.27 288.28 1302.31 287.32C1301.38 286.36 1300.91 284.987 1300.91 283.2C1300.91 281.787 1301.34 280.52 1302.19 279.4C1303.04 278.28 1304.31 277.387 1305.99 276.72C1307.7 276.053 1309.74 275.72 1312.11 275.72C1313.76 275.72 1315.38 275.88 1316.95 276.2C1318.55 276.493 1319.91 276.933 1321.03 277.52L1318.55 283.48C1316.63 282.413 1314.52 281.88 1312.23 281.88C1310.26 281.88 1309.27 282.227 1309.27 282.92C1309.27 283.267 1309.54 283.52 1310.07 283.68C1310.6 283.813 1311.44 283.947 1312.59 284.08C1314.38 284.293 1315.88 284.573 1317.11 284.92C1318.36 285.267 1319.46 285.92 1320.39 286.88C1321.35 287.84 1321.83 289.213 1321.83 291C1321.83 292.36 1321.4 293.6 1320.55 294.72C1319.7 295.84 1318.42 296.733 1316.71 297.4C1315 298.067 1312.94 298.4 1310.51 298.4ZM1324.57 276.12H1333.61V298H1324.57V276.12ZM1329.09 274.36C1327.46 274.36 1326.14 273.933 1325.13 273.08C1324.14 272.2 1323.65 271.093 1323.65 269.76C1323.65 268.427 1324.14 267.333 1325.13 266.48C1326.14 265.6 1327.46 265.16 1329.09 265.16C1330.74 265.16 1332.06 265.573 1333.05 266.4C1334.03 267.227 1334.53 268.293 1334.53 269.6C1334.53 270.987 1334.03 272.133 1333.05 273.04C1332.06 273.92 1330.74 274.36 1329.09 274.36ZM1362.05 276.12V293.64C1362.05 297.8 1360.89 300.92 1358.57 303C1356.28 305.107 1353 306.16 1348.73 306.16C1346.55 306.16 1344.51 305.92 1342.61 305.44C1340.72 304.987 1339.11 304.32 1337.77 303.44L1340.81 297.28C1341.67 297.92 1342.75 298.44 1344.05 298.84C1345.36 299.24 1346.61 299.44 1347.81 299.44C1349.63 299.44 1350.95 299.053 1351.77 298.28C1352.6 297.507 1353.01 296.373 1353.01 294.88V294.48C1351.65 296.027 1349.64 296.8 1346.97 296.8C1345.11 296.8 1343.36 296.373 1341.73 295.52C1340.13 294.64 1338.85 293.4 1337.89 291.8C1336.93 290.173 1336.45 288.32 1336.45 286.24C1336.45 284.16 1336.93 282.32 1337.89 280.72C1338.85 279.12 1340.13 277.893 1341.73 277.04C1343.36 276.16 1345.11 275.72 1346.97 275.72C1349.96 275.72 1352.12 276.68 1353.45 278.6V276.12H1362.05ZM1349.37 289.76C1350.44 289.76 1351.32 289.44 1352.01 288.8C1352.73 288.133 1353.09 287.28 1353.09 286.24C1353.09 285.2 1352.73 284.36 1352.01 283.72C1351.32 283.08 1350.44 282.76 1349.37 282.76C1348.28 282.76 1347.37 283.08 1346.65 283.72C1345.96 284.36 1345.61 285.2 1345.61 286.24C1345.61 287.28 1345.97 288.133 1346.69 288.8C1347.41 289.44 1348.31 289.76 1349.37 289.76ZM1381.25 275.72C1383.94 275.72 1386.1 276.533 1387.73 278.16C1389.38 279.787 1390.21 282.24 1390.21 285.52V298H1381.17V287.08C1381.17 284.573 1380.28 283.32 1378.49 283.32C1377.48 283.32 1376.65 283.68 1376.01 284.4C1375.4 285.093 1375.09 286.2 1375.09 287.72V298H1366.05V276.12H1374.65V278.28C1375.5 277.427 1376.49 276.787 1377.61 276.36C1378.73 275.933 1379.94 275.72 1381.25 275.72ZM1102.11 347.4C1100.24 347.4 1098.4 347.2 1096.59 346.8C1094.78 346.4 1093.31 345.88 1092.19 345.24L1094.67 339.28C1095.68 339.893 1096.88 340.373 1098.27 340.72C1099.66 341.067 1101 341.24 1102.31 341.24C1103.35 341.24 1104.07 341.16 1104.47 341C1104.9 340.813 1105.11 340.547 1105.11 340.2C1105.11 339.853 1104.84 339.613 1104.31 339.48C1103.8 339.347 1102.96 339.213 1101.79 339.08C1100 338.867 1098.48 338.6 1097.23 338.28C1095.98 337.933 1094.87 337.28 1093.91 336.32C1092.98 335.36 1092.51 333.987 1092.51 332.2C1092.51 330.787 1092.94 329.52 1093.79 328.4C1094.64 327.28 1095.91 326.387 1097.59 325.72C1099.3 325.053 1101.34 324.72 1103.71 324.72C1105.36 324.72 1106.98 324.88 1108.55 325.2C1110.15 325.493 1111.51 325.933 1112.63 326.52L1110.15 332.48C1108.23 331.413 1106.12 330.88 1103.83 330.88C1101.86 330.88 1100.87 331.227 1100.87 331.92C1100.87 332.267 1101.14 332.52 1101.67 332.68C1102.2 332.813 1103.04 332.947 1104.19 333.08C1105.98 333.293 1107.48 333.573 1108.71 333.92C1109.96 334.267 1111.06 334.92 1111.99 335.88C1112.95 336.84 1113.43 338.213 1113.43 340C1113.43 341.36 1113 342.6 1112.15 343.72C1111.3 344.84 1110.02 345.733 1108.31 346.4C1106.6 347.067 1104.54 347.4 1102.11 347.4ZM1140.14 325.12L1131.14 347.44C1129.99 350.293 1128.56 352.293 1126.86 353.44C1125.15 354.587 1123.06 355.16 1120.58 355.16C1119.35 355.16 1118.11 354.973 1116.86 354.6C1115.63 354.253 1114.66 353.787 1113.94 353.2L1116.94 347C1117.39 347.347 1117.9 347.627 1118.46 347.84C1119.04 348.053 1119.6 348.16 1120.14 348.16C1121.12 348.16 1121.87 347.867 1122.38 347.28L1113.18 325.12H1122.46L1126.98 336.84L1131.58 325.12H1140.14ZM1149.69 347.4C1147.82 347.4 1145.98 347.2 1144.17 346.8C1142.36 346.4 1140.89 345.88 1139.77 345.24L1142.25 339.28C1143.26 339.893 1144.46 340.373 1145.85 340.72C1147.24 341.067 1148.58 341.24 1149.89 341.24C1150.93 341.24 1151.65 341.16 1152.05 341C1152.48 340.813 1152.69 340.547 1152.69 340.2C1152.69 339.853 1152.42 339.613 1151.89 339.48C1151.38 339.347 1150.54 339.213 1149.37 339.08C1147.58 338.867 1146.06 338.6 1144.81 338.28C1143.56 337.933 1142.45 337.28 1141.49 336.32C1140.56 335.36 1140.09 333.987 1140.09 332.2C1140.09 330.787 1140.52 329.52 1141.37 328.4C1142.22 327.28 1143.49 326.387 1145.17 325.72C1146.88 325.053 1148.92 324.72 1151.29 324.72C1152.94 324.72 1154.56 324.88 1156.13 325.2C1157.73 325.493 1159.09 325.933 1160.21 326.52L1157.73 332.48C1155.81 331.413 1153.7 330.88 1151.41 330.88C1149.44 330.88 1148.45 331.227 1148.45 331.92C1148.45 332.267 1148.72 332.52 1149.25 332.68C1149.78 332.813 1150.62 332.947 1151.77 333.08C1153.56 333.293 1155.06 333.573 1156.29 333.92C1157.54 334.267 1158.64 334.92 1159.57 335.88C1160.53 336.84 1161.01 338.213 1161.01 340C1161.01 341.36 1160.58 342.6 1159.73 343.72C1158.88 344.84 1157.6 345.733 1155.89 346.4C1154.18 347.067 1152.12 347.4 1149.69 347.4ZM1179.87 346.24C1178.51 347.013 1176.65 347.4 1174.31 347.4C1171.24 347.4 1168.88 346.667 1167.23 345.2C1165.57 343.707 1164.75 341.48 1164.75 338.52V332.92H1161.75V326.32H1164.75V320.2H1173.79V326.32H1178.27V332.92H1173.79V338.44C1173.79 339.107 1173.96 339.627 1174.31 340C1174.65 340.373 1175.11 340.56 1175.67 340.56C1176.44 340.56 1177.12 340.36 1177.71 339.96L1179.87 346.24ZM1204.84 336.04C1204.84 336.173 1204.8 336.88 1204.72 338.16H1189.52C1189.84 338.987 1190.37 339.627 1191.12 340.08C1191.87 340.507 1192.8 340.72 1193.92 340.72C1194.88 340.72 1195.68 340.6 1196.32 340.36C1196.99 340.12 1197.71 339.707 1198.48 339.12L1203.2 343.88C1201.07 346.227 1197.88 347.4 1193.64 347.4C1191 347.4 1188.68 346.92 1186.68 345.96C1184.68 344.973 1183.13 343.613 1182.04 341.88C1180.95 340.147 1180.4 338.2 1180.4 336.04C1180.4 333.853 1180.93 331.907 1182 330.2C1183.09 328.467 1184.57 327.12 1186.44 326.16C1188.33 325.2 1190.45 324.72 1192.8 324.72C1195.01 324.72 1197.03 325.16 1198.84 326.04C1200.68 326.92 1202.13 328.213 1203.2 329.92C1204.29 331.627 1204.84 333.667 1204.84 336.04ZM1192.88 330.88C1191.95 330.88 1191.17 331.133 1190.56 331.64C1189.95 332.147 1189.55 332.867 1189.36 333.8H1196.4C1196.21 332.893 1195.81 332.187 1195.2 331.68C1194.59 331.147 1193.81 330.88 1192.88 330.88ZM1236.65 324.72C1239.29 324.72 1241.4 325.533 1242.97 327.16C1244.57 328.787 1245.37 331.24 1245.37 334.52V347H1236.33V336.08C1236.33 333.573 1235.52 332.32 1233.89 332.32C1233.04 332.32 1232.34 332.64 1231.81 333.28C1231.3 333.92 1231.05 334.933 1231.05 336.32V347H1222.01V336.08C1222.01 333.573 1221.2 332.32 1219.57 332.32C1218.72 332.32 1218.02 332.64 1217.49 333.28C1216.98 333.92 1216.73 334.933 1216.73 336.32V347H1207.69V325.12H1216.29V327.16C1217.92 325.533 1219.98 324.72 1222.49 324.72C1223.96 324.72 1225.28 325 1226.45 325.56C1227.62 326.093 1228.58 326.92 1229.33 328.04C1230.21 326.973 1231.28 326.16 1232.53 325.6C1233.78 325.013 1235.16 324.72 1236.65 324.72ZM1248.17 319H1258.97L1257.17 336.28H1249.97L1248.17 319ZM1253.57 347.4C1252.03 347.4 1250.76 346.933 1249.77 346C1248.79 345.067 1248.29 343.933 1248.29 342.6C1248.29 341.24 1248.79 340.12 1249.77 339.24C1250.76 338.333 1252.03 337.88 1253.57 337.88C1255.12 337.88 1256.39 338.333 1257.37 339.24C1258.36 340.12 1258.85 341.24 1258.85 342.6C1258.85 343.933 1258.36 345.067 1257.37 346C1256.39 346.933 1255.12 347.4 1253.57 347.4ZM1260.75 319H1271.55L1269.75 336.28H1262.55L1260.75 319ZM1266.15 347.4C1264.6 347.4 1263.34 346.933 1262.35 346C1261.36 345.067 1260.87 343.933 1260.87 342.6C1260.87 341.24 1261.36 340.12 1262.35 339.24C1263.34 338.333 1264.6 337.88 1266.15 337.88C1267.7 337.88 1268.96 338.333 1269.95 339.24C1270.94 340.12 1271.43 341.24 1271.43 342.6C1271.43 343.933 1270.94 345.067 1269.95 346C1268.96 346.933 1267.7 347.4 1266.15 347.4Z" fill="black"/>
<path d="M232.52 559.622H214.764C214.527 557.799 214.042 556.154 213.308 554.686C212.574 553.218 211.604 551.964 210.396 550.922C209.189 549.88 207.757 549.087 206.099 548.543C204.466 547.974 202.655 547.69 200.666 547.69C197.139 547.69 194.097 548.554 191.54 550.283C189.007 552.011 187.054 554.509 185.68 557.776C184.331 561.043 183.656 564.996 183.656 569.636C183.656 574.466 184.343 578.514 185.716 581.781C187.113 585.025 189.066 587.475 191.575 589.132C194.108 590.766 197.103 591.582 200.56 591.582C202.501 591.582 204.265 591.334 205.851 590.837C207.461 590.339 208.869 589.617 210.077 588.67C211.308 587.7 212.314 586.528 213.095 585.155C213.9 583.758 214.456 582.184 214.764 580.432L232.52 580.538C232.212 583.758 231.277 586.93 229.714 590.055C228.176 593.18 226.057 596.033 223.358 598.614C220.659 601.17 217.368 603.206 213.486 604.722C209.627 606.237 205.2 606.994 200.205 606.994C193.623 606.994 187.728 605.55 182.52 602.662C177.335 599.75 173.24 595.512 170.233 589.949C167.226 584.385 165.723 577.615 165.723 569.636C165.723 561.634 167.25 554.852 170.304 549.288C173.358 543.725 177.489 539.499 182.697 536.611C187.906 533.723 193.741 532.278 200.205 532.278C204.608 532.278 208.68 532.894 212.42 534.125C216.161 535.332 219.452 537.108 222.293 539.452C225.134 541.772 227.442 544.625 229.217 548.01C230.993 551.395 232.094 555.266 232.52 559.622ZM239.578 606V551.455H256.446V561.398H257.015C258.009 557.799 259.631 555.124 261.88 553.372C264.129 551.597 266.745 550.709 269.728 550.709C270.533 550.709 271.361 550.768 272.213 550.886C273.066 550.981 273.859 551.135 274.593 551.348V566.44C273.764 566.156 272.675 565.931 271.326 565.766C270 565.6 268.816 565.517 267.775 565.517C265.715 565.517 263.856 565.979 262.199 566.902C260.566 567.802 259.275 569.068 258.328 570.702C257.405 572.312 256.944 574.205 256.944 576.384V606H239.578ZM301.333 607.03C295.628 607.03 290.704 605.905 286.561 603.656C282.441 601.384 279.269 598.152 277.044 593.962C274.842 589.748 273.741 584.741 273.741 578.94C273.741 573.306 274.854 568.382 277.079 564.168C279.305 559.93 282.441 556.639 286.49 554.295C290.538 551.928 295.308 550.744 300.801 550.744C304.683 550.744 308.234 551.348 311.454 552.555C314.674 553.763 317.456 555.55 319.799 557.918C322.143 560.285 323.966 563.209 325.268 566.689C326.57 570.145 327.221 574.111 327.221 578.585V582.918H279.814V572.832H311.064C311.04 570.986 310.602 569.34 309.75 567.896C308.897 566.452 307.725 565.328 306.234 564.523C304.766 563.694 303.074 563.28 301.156 563.28C299.215 563.28 297.475 563.718 295.936 564.594C294.397 565.446 293.178 566.618 292.278 568.109C291.378 569.577 290.905 571.246 290.858 573.116V583.379C290.858 585.605 291.296 587.558 292.172 589.239C293.047 590.896 294.29 592.186 295.9 593.109C297.51 594.033 299.428 594.494 301.653 594.494C303.192 594.494 304.589 594.281 305.843 593.855C307.098 593.429 308.175 592.802 309.075 591.973C309.975 591.144 310.649 590.126 311.099 588.919L327.044 589.381C326.381 592.955 324.925 596.069 322.676 598.72C320.45 601.348 317.527 603.396 313.904 604.864C310.282 606.308 306.092 607.03 301.333 607.03ZM348.467 606.923C344.987 606.923 341.897 606.343 339.198 605.183C336.523 604 334.404 602.224 332.842 599.857C331.303 597.465 330.533 594.471 330.533 590.872C330.533 587.842 331.066 585.285 332.131 583.202C333.197 581.118 334.665 579.426 336.535 578.124C338.405 576.821 340.559 575.839 342.998 575.176C345.436 574.49 348.04 574.028 350.81 573.791C353.912 573.507 356.409 573.211 358.303 572.903C360.197 572.572 361.57 572.11 362.423 571.518C363.299 570.903 363.737 570.039 363.737 568.926V568.749C363.737 566.926 363.109 565.517 361.854 564.523C360.6 563.528 358.907 563.031 356.776 563.031C354.48 563.031 352.633 563.528 351.237 564.523C349.84 565.517 348.952 566.89 348.573 568.642L332.558 568.074C333.031 564.759 334.25 561.8 336.215 559.196C338.204 556.568 340.926 554.509 344.383 553.017C347.863 551.502 352.041 550.744 356.918 550.744C360.398 550.744 363.606 551.159 366.542 551.987C369.478 552.792 372.034 553.976 374.212 555.538C376.39 557.077 378.071 558.971 379.255 561.22C380.462 563.469 381.066 566.038 381.066 568.926V606H364.731V598.401H364.305C363.334 600.247 362.091 601.81 360.576 603.088C359.085 604.366 357.321 605.325 355.285 605.964C353.272 606.604 351 606.923 348.467 606.923ZM353.829 595.56C355.699 595.56 357.38 595.181 358.871 594.423C360.387 593.666 361.594 592.624 362.494 591.298C363.393 589.949 363.843 588.386 363.843 586.611V581.426C363.346 581.687 362.742 581.923 362.032 582.136C361.345 582.349 360.588 582.551 359.759 582.74C358.931 582.929 358.078 583.095 357.202 583.237C356.326 583.379 355.486 583.509 354.681 583.628C353.048 583.888 351.651 584.291 350.491 584.835C349.354 585.38 348.478 586.09 347.863 586.966C347.271 587.818 346.975 588.836 346.975 590.02C346.975 591.819 347.614 593.192 348.893 594.139C350.195 595.086 351.84 595.56 353.829 595.56ZM419.472 551.455V564.239H385.062V551.455H419.472ZM392.271 538.386H409.636V588.848C409.636 589.913 409.801 590.777 410.133 591.44C410.488 592.08 410.997 592.541 411.66 592.825C412.323 593.086 413.116 593.216 414.039 593.216C414.702 593.216 415.4 593.157 416.134 593.038C416.892 592.896 417.46 592.778 417.839 592.683L420.467 605.219C419.638 605.455 418.466 605.751 416.951 606.107C415.46 606.462 413.672 606.687 411.589 606.781C407.517 606.971 404.025 606.497 401.113 605.361C398.225 604.201 396.011 602.402 394.472 599.963C392.957 597.525 392.223 594.459 392.271 590.766V538.386ZM425.332 606V551.455H442.697V606H425.332ZM434.033 545.098C431.594 545.098 429.499 544.293 427.747 542.683C425.995 541.05 425.119 539.085 425.119 536.788C425.119 534.516 425.995 532.574 427.747 530.964C429.499 529.331 431.594 528.514 434.033 528.514C436.495 528.514 438.59 529.331 440.318 530.964C442.07 532.574 442.946 534.516 442.946 536.788C442.946 539.085 442.07 541.05 440.318 542.683C438.59 544.293 436.495 545.098 434.033 545.098ZM468.115 574.892V606H450.75V551.455H467.263V561.469H467.867C469.074 558.131 471.134 555.515 474.046 553.621C476.958 551.703 480.426 550.744 484.451 550.744C488.286 550.744 491.612 551.608 494.429 553.337C497.27 555.041 499.472 557.432 501.034 560.51C502.621 563.564 503.402 567.139 503.378 571.234V606H486.013V574.643C486.037 571.613 485.267 569.246 483.705 567.541C482.166 565.837 480.024 564.984 477.277 564.984C475.454 564.984 473.845 565.387 472.448 566.192C471.075 566.973 470.009 568.098 469.252 569.565C468.518 571.033 468.139 572.809 468.115 574.892ZM536.555 627.591C531.371 627.591 526.932 626.869 523.239 625.425C519.545 623.981 516.645 622.004 514.538 619.494C512.431 616.985 511.165 614.144 510.739 610.972L527.18 610.048C527.488 611.161 528.056 612.132 528.885 612.96C529.737 613.789 530.838 614.428 532.188 614.878C533.561 615.328 535.17 615.553 537.017 615.553C539.929 615.553 542.332 614.842 544.226 613.422C546.143 612.025 547.102 609.575 547.102 606.071V596.483H546.499C545.812 598.164 544.77 599.667 543.374 600.993C541.977 602.319 540.237 603.36 538.153 604.118C536.094 604.875 533.726 605.254 531.051 605.254C527.074 605.254 523.428 604.331 520.114 602.484C516.823 600.614 514.183 597.726 512.195 593.82C510.23 589.89 509.247 584.835 509.247 578.656C509.247 572.288 510.265 567.044 512.301 562.925C514.337 558.782 517 555.716 520.291 553.727C523.606 551.739 527.169 550.744 530.98 550.744C533.845 550.744 536.295 551.241 538.331 552.236C540.391 553.206 542.083 554.461 543.409 556C544.735 557.539 545.741 559.137 546.428 560.794H546.925V551.455H564.219V606.213C564.219 610.83 563.059 614.724 560.739 617.896C558.419 621.069 555.175 623.472 551.009 625.105C546.842 626.762 542.024 627.591 536.555 627.591ZM537.088 592.612C539.195 592.612 540.994 592.056 542.486 590.943C543.977 589.83 545.125 588.232 545.93 586.149C546.735 584.066 547.138 581.568 547.138 578.656C547.138 575.697 546.735 573.152 545.93 571.021C545.149 568.867 544.001 567.21 542.486 566.05C540.994 564.89 539.195 564.31 537.088 564.31C534.934 564.31 533.111 564.902 531.619 566.085C530.128 567.269 528.991 568.938 528.21 571.092C527.453 573.223 527.074 575.744 527.074 578.656C527.074 581.568 527.464 584.066 528.246 586.149C529.027 588.232 530.152 589.83 531.619 590.943C533.111 592.056 534.934 592.612 537.088 592.612ZM606.15 606.923C602.67 606.923 599.581 606.343 596.882 605.183C594.207 604 592.088 602.224 590.525 599.857C588.986 597.465 588.217 594.471 588.217 590.872C588.217 587.842 588.75 585.285 589.815 583.202C590.88 581.118 592.348 579.426 594.218 578.124C596.089 576.821 598.243 575.839 600.681 575.176C603.12 574.49 605.724 574.028 608.494 573.791C611.595 573.507 614.093 573.211 615.987 572.903C617.881 572.572 619.254 572.11 620.106 571.518C620.982 570.903 621.42 570.039 621.42 568.926V568.749C621.42 566.926 620.793 565.517 619.538 564.523C618.283 563.528 616.591 563.031 614.46 563.031C612.163 563.031 610.317 563.528 608.92 564.523C607.523 565.517 606.636 566.89 606.257 568.642L590.241 568.074C590.715 564.759 591.934 561.8 593.899 559.196C595.887 556.568 598.61 554.509 602.066 553.017C605.547 551.502 609.725 550.744 614.602 550.744C618.082 550.744 621.29 551.159 624.225 551.987C627.161 552.792 629.718 553.976 631.896 555.538C634.074 557.077 635.755 558.971 636.939 561.22C638.146 563.469 638.75 566.038 638.75 568.926V606H622.414V598.401H621.988C621.018 600.247 619.775 601.81 618.26 603.088C616.768 604.366 615.004 605.325 612.968 605.964C610.956 606.604 608.683 606.923 606.15 606.923ZM611.512 595.56C613.383 595.56 615.064 595.181 616.555 594.423C618.07 593.666 619.278 592.624 620.177 591.298C621.077 589.949 621.527 588.386 621.527 586.611V581.426C621.029 581.687 620.426 581.923 619.716 582.136C619.029 582.349 618.271 582.551 617.443 582.74C616.614 582.929 615.762 583.095 614.886 583.237C614.01 583.379 613.17 583.509 612.365 583.628C610.731 583.888 609.334 584.291 608.174 584.835C607.038 585.38 606.162 586.09 605.547 586.966C604.955 587.818 604.659 588.836 604.659 590.02C604.659 591.819 605.298 593.192 606.576 594.139C607.878 595.086 609.524 595.56 611.512 595.56ZM186.426 727.781C182.402 727.781 178.744 726.74 175.453 724.656C172.162 722.573 169.535 719.448 167.57 715.281C165.605 711.115 164.622 705.942 164.622 699.763C164.622 693.347 165.64 688.068 167.676 683.925C169.712 679.782 172.375 676.716 175.666 674.727C178.981 672.739 182.544 671.744 186.355 671.744C189.22 671.744 191.67 672.241 193.706 673.236C195.742 674.206 197.423 675.461 198.749 677C200.074 678.539 201.08 680.137 201.767 681.794H202.122V654.273H219.487V727H202.3V718.158H201.767C201.033 719.839 199.991 721.413 198.642 722.881C197.293 724.348 195.6 725.532 193.564 726.432C191.552 727.331 189.172 727.781 186.426 727.781ZM192.463 714.251C194.57 714.251 196.369 713.66 197.861 712.476C199.352 711.268 200.5 709.576 201.305 707.398C202.11 705.22 202.513 702.663 202.513 699.727C202.513 696.744 202.11 694.176 201.305 692.021C200.524 689.867 199.376 688.21 197.861 687.05C196.369 685.89 194.57 685.31 192.463 685.31C190.309 685.31 188.486 685.902 186.994 687.085C185.503 688.269 184.366 689.938 183.585 692.092C182.828 694.247 182.449 696.792 182.449 699.727C182.449 702.663 182.839 705.22 183.621 707.398C184.402 709.576 185.527 711.268 186.994 712.476C188.486 713.66 190.309 714.251 192.463 714.251ZM252.966 728.03C247.261 728.03 242.337 726.905 238.194 724.656C234.074 722.384 230.902 719.152 228.676 714.962C226.475 710.748 225.374 705.741 225.374 699.94C225.374 694.306 226.487 689.382 228.712 685.168C230.937 680.93 234.074 677.639 238.123 675.295C242.171 672.928 246.941 671.744 252.434 671.744C256.316 671.744 259.867 672.348 263.087 673.555C266.307 674.763 269.088 676.55 271.432 678.918C273.776 681.285 275.599 684.209 276.901 687.689C278.203 691.145 278.854 695.111 278.854 699.585V703.918H231.446V693.832H262.696C262.673 691.986 262.235 690.34 261.382 688.896C260.53 687.452 259.358 686.328 257.867 685.523C256.399 684.694 254.706 684.28 252.789 684.28C250.847 684.28 249.107 684.718 247.569 685.594C246.03 686.446 244.81 687.618 243.911 689.109C243.011 690.577 242.538 692.246 242.49 694.116V704.379C242.49 706.605 242.928 708.558 243.804 710.239C244.68 711.896 245.923 713.186 247.533 714.109C249.143 715.033 251.06 715.494 253.286 715.494C254.825 715.494 256.221 715.281 257.476 714.855C258.731 714.429 259.808 713.802 260.708 712.973C261.607 712.144 262.282 711.126 262.732 709.919L278.676 710.381C278.014 713.955 276.558 717.069 274.309 719.72C272.083 722.348 269.159 724.396 265.537 725.864C261.915 727.308 257.725 728.03 252.966 728.03ZM332.344 689.109L316.399 689.536C316.233 688.399 315.784 687.393 315.05 686.517C314.316 685.617 313.357 684.919 312.173 684.422C311.013 683.901 309.664 683.641 308.125 683.641C306.113 683.641 304.396 684.043 302.976 684.848C301.579 685.653 300.893 686.742 300.916 688.115C300.893 689.18 301.319 690.104 302.195 690.885C303.094 691.666 304.692 692.294 306.989 692.767L317.5 694.756C322.945 695.797 326.993 697.526 329.645 699.94C332.32 702.355 333.67 705.551 333.693 709.528C333.67 713.269 332.557 716.524 330.355 719.294C328.177 722.064 325.194 724.218 321.406 725.757C317.618 727.272 313.286 728.03 308.409 728.03C300.62 728.03 294.477 726.432 289.979 723.236C285.504 720.016 282.947 715.707 282.308 710.31L299.46 709.884C299.839 711.872 300.821 713.387 302.408 714.429C303.994 715.471 306.018 715.991 308.48 715.991C310.705 715.991 312.517 715.577 313.913 714.749C315.31 713.92 316.02 712.819 316.044 711.446C316.02 710.215 315.476 709.232 314.411 708.499C313.345 707.741 311.676 707.149 309.403 706.723L299.886 704.912C294.418 703.918 290.346 702.083 287.67 699.408C284.995 696.709 283.67 693.276 283.693 689.109C283.67 685.464 284.64 682.35 286.605 679.77C288.57 677.166 291.364 675.177 294.986 673.804C298.608 672.431 302.881 671.744 307.805 671.744C315.192 671.744 321.016 673.295 325.277 676.396C329.538 679.474 331.894 683.712 332.344 689.109ZM339.243 727V672.455H356.608V727H339.243ZM347.943 666.098C345.504 666.098 343.409 665.293 341.657 663.683C339.905 662.05 339.029 660.085 339.029 657.788C339.029 655.516 339.905 653.574 341.657 651.964C343.409 650.331 345.504 649.514 347.943 649.514C350.405 649.514 352.5 650.331 354.228 651.964C355.98 653.574 356.856 655.516 356.856 657.788C356.856 660.085 355.98 662.05 354.228 663.683C352.5 665.293 350.405 666.098 347.943 666.098ZM390.087 748.591C384.902 748.591 380.463 747.869 376.77 746.425C373.077 744.981 370.177 743.004 368.07 740.494C365.963 737.985 364.696 735.144 364.27 731.972L380.712 731.048C381.019 732.161 381.588 733.132 382.416 733.96C383.268 734.789 384.369 735.428 385.719 735.878C387.092 736.328 388.702 736.553 390.548 736.553C393.46 736.553 395.863 735.842 397.757 734.422C399.675 733.025 400.634 730.575 400.634 727.071V717.483H400.03C399.343 719.164 398.302 720.667 396.905 721.993C395.508 723.319 393.768 724.36 391.685 725.118C389.625 725.875 387.258 726.254 384.582 726.254C380.605 726.254 376.959 725.331 373.645 723.484C370.354 721.614 367.714 718.726 365.726 714.82C363.761 710.89 362.778 705.835 362.778 699.656C362.778 693.288 363.796 688.044 365.832 683.925C367.868 679.782 370.532 676.716 373.822 674.727C377.137 672.739 380.7 671.744 384.511 671.744C387.376 671.744 389.826 672.241 391.862 673.236C393.922 674.206 395.615 675.461 396.94 677C398.266 678.539 399.272 680.137 399.959 681.794H400.456V672.455H417.75V727.213C417.75 731.83 416.59 735.724 414.27 738.896C411.95 742.069 408.706 744.472 404.54 746.105C400.373 747.762 395.555 748.591 390.087 748.591ZM390.619 713.612C392.726 713.612 394.526 713.056 396.017 711.943C397.509 710.83 398.657 709.232 399.462 707.149C400.267 705.066 400.669 702.568 400.669 699.656C400.669 696.697 400.267 694.152 399.462 692.021C398.68 689.867 397.532 688.21 396.017 687.05C394.526 685.89 392.726 685.31 390.619 685.31C388.465 685.31 386.642 685.902 385.151 687.085C383.659 688.269 382.523 689.938 381.741 692.092C380.984 694.223 380.605 696.744 380.605 699.656C380.605 702.568 380.996 705.066 381.777 707.149C382.558 709.232 383.683 710.83 385.151 711.943C386.642 713.056 388.465 713.612 390.619 713.612ZM443.186 695.892V727H425.821V672.455H442.333V682.469H442.937C444.145 679.131 446.204 676.515 449.116 674.621C452.028 672.703 455.496 671.744 459.521 671.744C463.356 671.744 466.682 672.608 469.5 674.337C472.341 676.041 474.542 678.432 476.105 681.51C477.691 684.564 478.472 688.139 478.449 692.234V727H461.083V695.643C461.107 692.613 460.338 690.246 458.775 688.541C457.236 686.837 455.094 685.984 452.348 685.984C450.525 685.984 448.915 686.387 447.518 687.192C446.145 687.973 445.08 689.098 444.322 690.565C443.588 692.033 443.209 693.809 443.186 695.892ZM552.305 689.109L536.36 689.536C536.194 688.399 535.745 687.393 535.011 686.517C534.277 685.617 533.318 684.919 532.134 684.422C530.974 683.901 529.625 683.641 528.086 683.641C526.074 683.641 524.357 684.043 522.937 684.848C521.54 685.653 520.853 686.742 520.877 688.115C520.853 689.18 521.28 690.104 522.156 690.885C523.055 691.666 524.653 692.294 526.95 692.767L537.461 694.756C542.906 695.797 546.954 697.526 549.606 699.94C552.281 702.355 553.63 705.551 553.654 709.528C553.63 713.269 552.518 716.524 550.316 719.294C548.138 722.064 545.155 724.218 541.367 725.757C537.579 727.272 533.247 728.03 528.37 728.03C520.581 728.03 514.438 726.432 509.94 723.236C505.465 720.016 502.908 715.707 502.269 710.31L519.421 709.884C519.8 711.872 520.782 713.387 522.369 714.429C523.955 715.471 525.979 715.991 528.441 715.991C530.666 715.991 532.478 715.577 533.874 714.749C535.271 713.92 535.981 712.819 536.005 711.446C535.981 710.215 535.437 709.232 534.371 708.499C533.306 707.741 531.637 707.149 529.364 706.723L519.847 704.912C514.379 703.918 510.307 702.083 507.631 699.408C504.956 696.709 503.63 693.276 503.654 689.109C503.63 685.464 504.601 682.35 506.566 679.77C508.531 677.166 511.325 675.177 514.947 673.804C518.569 672.431 522.842 671.744 527.766 671.744C535.153 671.744 540.977 673.295 545.238 676.396C549.499 679.474 551.855 683.712 552.305 689.109ZM569.821 747.455C567.738 747.455 565.773 747.289 563.926 746.957C562.08 746.65 560.494 746.235 559.168 745.714L563.003 733.108C564.708 733.676 566.247 734.008 567.62 734.102C569.016 734.197 570.212 733.972 571.206 733.428C572.224 732.907 573.006 731.972 573.55 730.622L574.225 728.989L554.836 672.455H573.017L583.067 711.375H583.635L593.827 672.455H612.115L591.554 732.22C590.56 735.203 589.151 737.831 587.328 740.104C585.529 742.4 583.197 744.199 580.333 745.501C577.492 746.804 573.988 747.455 569.821 747.455ZM663.395 689.109L647.45 689.536C647.284 688.399 646.834 687.393 646.1 686.517C645.367 685.617 644.408 684.919 643.224 684.422C642.064 683.901 640.715 683.641 639.176 683.641C637.163 683.641 635.447 684.043 634.027 684.848C632.63 685.653 631.943 686.742 631.967 688.115C631.943 689.18 632.369 690.104 633.245 690.885C634.145 691.666 635.743 692.294 638.039 692.767L648.551 694.756C653.996 695.797 658.044 697.526 660.696 699.94C663.371 702.355 664.72 705.551 664.744 709.528C664.72 713.269 663.608 716.524 661.406 719.294C659.228 722.064 656.245 724.218 652.457 725.757C648.669 727.272 644.337 728.03 639.46 728.03C631.671 728.03 625.528 726.432 621.029 723.236C616.555 720.016 613.998 715.707 613.359 710.31L630.511 709.884C630.89 711.872 631.872 713.387 633.458 714.429C635.045 715.471 637.069 715.991 639.531 715.991C641.756 715.991 643.567 715.577 644.964 714.749C646.361 713.92 647.071 712.819 647.095 711.446C647.071 710.215 646.527 709.232 645.461 708.499C644.396 707.741 642.727 707.149 640.454 706.723L630.937 704.912C625.468 703.918 621.396 702.083 618.721 699.408C616.046 696.709 614.72 693.276 614.744 689.109C614.72 685.464 615.691 682.35 617.656 679.77C619.621 677.166 622.414 675.177 626.037 673.804C629.659 672.431 633.932 671.744 638.856 671.744C646.243 671.744 652.066 673.295 656.328 676.396C660.589 679.474 662.945 683.712 663.395 689.109ZM701.082 672.455V685.239H666.671V672.455H701.082ZM673.88 659.386H691.245V709.848C691.245 710.913 691.411 711.777 691.742 712.44C692.097 713.08 692.606 713.541 693.269 713.825C693.932 714.086 694.725 714.216 695.648 714.216C696.311 714.216 697.01 714.157 697.744 714.038C698.501 713.896 699.069 713.778 699.448 713.683L702.076 726.219C701.247 726.455 700.076 726.751 698.56 727.107C697.069 727.462 695.281 727.687 693.198 727.781C689.126 727.971 685.634 727.497 682.722 726.361C679.834 725.201 677.621 723.402 676.082 720.963C674.567 718.525 673.833 715.459 673.88 711.766V659.386ZM731.853 728.03C726.147 728.03 721.223 726.905 717.08 724.656C712.961 722.384 709.789 719.152 707.563 714.962C705.362 710.748 704.261 705.741 704.261 699.94C704.261 694.306 705.373 689.382 707.599 685.168C709.824 680.93 712.961 677.639 717.009 675.295C721.058 672.928 725.828 671.744 731.32 671.744C735.203 671.744 738.754 672.348 741.974 673.555C745.193 674.763 747.975 676.55 750.319 678.918C752.663 681.285 754.486 684.209 755.788 687.689C757.09 691.145 757.741 695.111 757.741 699.585V703.918H710.333V693.832H741.583C741.559 691.986 741.121 690.34 740.269 688.896C739.417 687.452 738.245 686.328 736.754 685.523C735.286 684.694 733.593 684.28 731.675 684.28C729.734 684.28 727.994 684.718 726.455 685.594C724.916 686.446 723.697 687.618 722.798 689.109C721.898 690.577 721.424 692.246 721.377 694.116V704.379C721.377 706.605 721.815 708.558 722.691 710.239C723.567 711.896 724.81 713.186 726.42 714.109C728.03 715.033 729.947 715.494 732.173 715.494C733.711 715.494 735.108 715.281 736.363 714.855C737.618 714.429 738.695 713.802 739.594 712.973C740.494 712.144 741.169 711.126 741.619 709.919L757.563 710.381C756.9 713.955 755.444 717.069 753.195 719.72C750.97 722.348 748.046 724.396 744.424 725.864C740.802 727.308 736.612 728.03 731.853 728.03ZM763.61 727V672.455H780.123V682.469H780.726C781.863 679.154 783.78 676.538 786.479 674.621C789.178 672.703 792.398 671.744 796.138 671.744C799.926 671.744 803.169 672.715 805.868 674.656C808.567 676.598 810.283 679.202 811.017 682.469H811.586C812.604 679.225 814.592 676.633 817.551 674.692C820.511 672.727 824.003 671.744 828.027 671.744C833.188 671.744 837.379 673.402 840.598 676.716C843.818 680.007 845.428 684.528 845.428 690.281V727H828.063V694.259C828.063 691.536 827.364 689.464 825.968 688.044C824.571 686.6 822.76 685.878 820.534 685.878C818.143 685.878 816.261 686.659 814.888 688.222C813.539 689.76 812.864 691.832 812.864 694.436V727H796.174V694.081C796.174 691.548 795.487 689.547 794.114 688.08C792.741 686.612 790.93 685.878 788.681 685.878C787.166 685.878 785.828 686.245 784.668 686.979C783.508 687.689 782.596 688.707 781.934 690.033C781.294 691.358 780.975 692.921 780.975 694.72V727H763.61Z" fill="#161716"/>
<path d="M175.523 827L162.205 780.455H172.955L180.659 812.795H181.045L189.545 780.455H198.75L207.227 812.864H207.636L215.341 780.455H226.091L212.773 827H203.182L194.318 796.568H193.955L185.114 827H175.523ZM229.256 827V792.091H238.938V827H229.256ZM234.12 787.591C232.68 787.591 231.446 787.114 230.415 786.159C229.4 785.189 228.893 784.03 228.893 782.682C228.893 781.348 229.4 780.205 230.415 779.25C231.446 778.28 232.68 777.795 234.12 777.795C235.559 777.795 236.786 778.28 237.802 779.25C238.832 780.205 239.347 781.348 239.347 782.682C239.347 784.03 238.832 785.189 237.802 786.159C236.786 787.114 235.559 787.591 234.12 787.591ZM263.342 792.091V799.364H242.319V792.091H263.342ZM247.092 783.727H256.774V816.273C256.774 817.167 256.91 817.864 257.183 818.364C257.455 818.848 257.834 819.189 258.319 819.386C258.819 819.583 259.395 819.682 260.046 819.682C260.501 819.682 260.955 819.644 261.41 819.568C261.865 819.477 262.213 819.409 262.455 819.364L263.978 826.568C263.493 826.72 262.812 826.894 261.933 827.091C261.054 827.303 259.986 827.432 258.728 827.477C256.395 827.568 254.349 827.258 252.592 826.545C250.849 825.833 249.493 824.727 248.524 823.227C247.554 821.727 247.077 819.833 247.092 817.545V783.727ZM278.16 806.818V827H268.479V780.455H277.888V798.25H278.297C279.085 796.189 280.357 794.576 282.115 793.409C283.873 792.227 286.077 791.636 288.729 791.636C291.153 791.636 293.267 792.167 295.07 793.227C296.888 794.273 298.297 795.78 299.297 797.75C300.312 799.705 300.812 802.045 300.797 804.773V827H291.115V806.5C291.13 804.348 290.585 802.674 289.479 801.477C288.388 800.28 286.857 799.682 284.888 799.682C283.57 799.682 282.403 799.962 281.388 800.523C280.388 801.083 279.6 801.902 279.024 802.977C278.463 804.038 278.176 805.318 278.16 806.818ZM317.798 788.568V780.455H356.025V788.568H341.775V827H332.048V788.568H317.798ZM370.929 827.682C367.399 827.682 364.346 826.932 361.77 825.432C359.209 823.917 357.232 821.811 355.838 819.114C354.444 816.402 353.747 813.258 353.747 809.682C353.747 806.076 354.444 802.924 355.838 800.227C357.232 797.515 359.209 795.409 361.77 793.909C364.346 792.394 367.399 791.636 370.929 791.636C374.459 791.636 377.505 792.394 380.065 793.909C382.641 795.409 384.626 797.515 386.02 800.227C387.414 802.924 388.111 806.076 388.111 809.682C388.111 813.258 387.414 816.402 386.02 819.114C384.626 821.811 382.641 823.917 380.065 825.432C377.505 826.932 374.459 827.682 370.929 827.682ZM370.974 820.182C372.58 820.182 373.921 819.727 374.997 818.818C376.073 817.894 376.883 816.636 377.429 815.045C377.989 813.455 378.27 811.644 378.27 809.614C378.27 807.583 377.989 805.773 377.429 804.182C376.883 802.591 376.073 801.333 374.997 800.409C373.921 799.485 372.58 799.023 370.974 799.023C369.353 799.023 367.989 799.485 366.883 800.409C365.792 801.333 364.967 802.591 364.406 804.182C363.861 805.773 363.588 807.583 363.588 809.614C363.588 811.644 363.861 813.455 364.406 815.045C364.967 816.636 365.792 817.894 366.883 818.818C367.989 819.727 369.353 820.182 370.974 820.182ZM402.168 806.818V827H392.486V792.091H401.713V798.25H402.122C402.895 796.22 404.191 794.614 406.009 793.432C407.827 792.235 410.032 791.636 412.622 791.636C415.047 791.636 417.16 792.167 418.963 793.227C420.766 794.288 422.168 795.803 423.168 797.773C424.168 799.727 424.668 802.061 424.668 804.773V827H414.986V806.5C415.001 804.364 414.456 802.697 413.35 801.5C412.244 800.288 410.721 799.682 408.782 799.682C407.479 799.682 406.327 799.962 405.327 800.523C404.342 801.083 403.569 801.902 403.009 802.977C402.463 804.038 402.183 805.318 402.168 806.818ZM435.106 840.091C433.879 840.091 432.727 839.992 431.651 839.795C430.591 839.614 429.712 839.379 429.015 839.091L431.197 831.864C432.333 832.212 433.356 832.402 434.265 832.432C435.189 832.462 435.985 832.25 436.651 831.795C437.333 831.341 437.886 830.568 438.31 829.477L438.879 828L426.356 792.091H436.538L443.765 817.727H444.129L451.424 792.091H461.674L448.106 830.773C447.454 832.652 446.568 834.288 445.447 835.682C444.341 837.091 442.939 838.174 441.242 838.932C439.545 839.705 437.5 840.091 435.106 840.091ZM496.419 780.455H506.147V812.909C506.147 815.909 505.472 818.515 504.124 820.727C502.791 822.939 500.934 824.644 498.556 825.841C496.177 827.038 493.412 827.636 490.26 827.636C487.457 827.636 484.912 827.144 482.624 826.159C480.351 825.159 478.548 823.644 477.215 821.614C475.881 819.568 475.222 817 475.237 813.909H485.033C485.063 815.136 485.313 816.189 485.783 817.068C486.268 817.932 486.927 818.598 487.76 819.068C488.609 819.523 489.609 819.75 490.76 819.75C491.972 819.75 492.995 819.492 493.828 818.977C494.677 818.447 495.321 817.674 495.76 816.659C496.2 815.644 496.419 814.394 496.419 812.909V780.455ZM527.954 827.682C524.424 827.682 521.371 826.932 518.795 825.432C516.234 823.917 514.257 821.811 512.863 819.114C511.469 816.402 510.772 813.258 510.772 809.682C510.772 806.076 511.469 802.924 512.863 800.227C514.257 797.515 516.234 795.409 518.795 793.909C521.371 792.394 524.424 791.636 527.954 791.636C531.484 791.636 534.53 792.394 537.09 793.909C539.666 795.409 541.651 797.515 543.045 800.227C544.439 802.924 545.136 806.076 545.136 809.682C545.136 813.258 544.439 816.402 543.045 819.114C541.651 821.811 539.666 823.917 537.09 825.432C534.53 826.932 531.484 827.682 527.954 827.682ZM527.999 820.182C529.605 820.182 530.946 819.727 532.022 818.818C533.098 817.894 533.908 816.636 534.454 815.045C535.014 813.455 535.295 811.644 535.295 809.614C535.295 807.583 535.014 805.773 534.454 804.182C533.908 802.591 533.098 801.333 532.022 800.409C530.946 799.485 529.605 799.023 527.999 799.023C526.378 799.023 525.014 799.485 523.908 800.409C522.818 801.333 521.992 802.591 521.431 804.182C520.886 805.773 520.613 807.583 520.613 809.614C520.613 811.644 520.886 813.455 521.431 815.045C521.992 816.636 522.818 817.894 523.908 818.818C525.014 819.727 526.378 820.182 527.999 820.182ZM559.193 806.818V827H549.511V792.091H558.738V798.25H559.147C559.92 796.22 561.216 794.614 563.034 793.432C564.852 792.235 567.057 791.636 569.647 791.636C572.072 791.636 574.185 792.167 575.988 793.227C577.791 794.288 579.193 795.803 580.193 797.773C581.193 799.727 581.693 802.061 581.693 804.773V827H572.011V806.5C572.026 804.364 571.481 802.697 570.375 801.5C569.269 800.288 567.746 799.682 565.807 799.682C564.504 799.682 563.352 799.962 562.352 800.523C561.367 801.083 560.594 801.902 560.034 802.977C559.488 804.038 559.208 805.318 559.193 806.818ZM603.313 827.682C599.722 827.682 596.631 826.955 594.04 825.5C591.464 824.03 589.479 821.955 588.085 819.273C586.692 816.576 585.995 813.386 585.995 809.705C585.995 806.114 586.692 802.962 588.085 800.25C589.479 797.538 591.442 795.424 593.972 793.909C596.517 792.394 599.502 791.636 602.926 791.636C605.229 791.636 607.373 792.008 609.358 792.75C611.358 793.477 613.101 794.576 614.585 796.045C616.085 797.515 617.252 799.364 618.085 801.591C618.919 803.803 619.335 806.394 619.335 809.364V812.023H589.858V806.023H610.222C610.222 804.629 609.919 803.394 609.313 802.318C608.707 801.242 607.866 800.402 606.79 799.795C605.729 799.174 604.495 798.864 603.085 798.864C601.616 798.864 600.313 799.205 599.176 799.886C598.055 800.553 597.176 801.455 596.54 802.591C595.904 803.712 595.578 804.962 595.563 806.341V812.045C595.563 813.773 595.881 815.265 596.517 816.523C597.169 817.78 598.085 818.75 599.267 819.432C600.449 820.114 601.851 820.455 603.472 820.455C604.548 820.455 605.532 820.303 606.426 820C607.32 819.697 608.085 819.242 608.722 818.636C609.358 818.03 609.843 817.288 610.176 816.409L619.131 817C618.676 819.152 617.745 821.03 616.335 822.636C614.942 824.227 613.138 825.47 610.926 826.364C608.729 827.242 606.192 827.682 603.313 827.682ZM652.779 802.045L643.915 802.591C643.764 801.833 643.438 801.152 642.938 800.545C642.438 799.924 641.779 799.432 640.961 799.068C640.158 798.689 639.196 798.5 638.075 798.5C636.575 798.5 635.309 798.818 634.279 799.455C633.249 800.076 632.734 800.909 632.734 801.955C632.734 802.788 633.067 803.492 633.734 804.068C634.4 804.644 635.544 805.106 637.165 805.455L643.484 806.727C646.878 807.424 649.408 808.545 651.075 810.091C652.741 811.636 653.575 813.667 653.575 816.182C653.575 818.47 652.9 820.477 651.552 822.205C650.218 823.932 648.385 825.28 646.052 826.25C643.734 827.205 641.059 827.682 638.029 827.682C633.408 827.682 629.726 826.72 626.984 824.795C624.256 822.856 622.658 820.22 622.188 816.886L631.711 816.386C631.999 817.795 632.696 818.871 633.802 819.614C634.908 820.341 636.325 820.705 638.052 820.705C639.749 820.705 641.112 820.379 642.143 819.727C643.188 819.061 643.718 818.205 643.734 817.159C643.718 816.28 643.347 815.561 642.62 815C641.893 814.424 640.772 813.985 639.256 813.682L633.211 812.477C629.802 811.795 627.264 810.614 625.597 808.932C623.946 807.25 623.12 805.106 623.12 802.5C623.12 800.258 623.726 798.326 624.938 796.705C626.165 795.083 627.885 793.833 630.097 792.955C632.325 792.076 634.931 791.636 637.915 791.636C642.325 791.636 645.794 792.568 648.325 794.432C650.87 796.295 652.355 798.833 652.779 802.045Z" fill="#161716"/>
<line x1="161" y1="886" x2="1080" y2="886" stroke="#454545" stroke-width="2"/>
</g>
<defs>
<filter id="filter0_di_845_7576" x="907" y="168" width="575" height="373" filterUnits="userSpaceOnUse" color-interpolation-filters="sRGB">
<feFlood flood-opacity="0" result="BackgroundImageFix"/>
<feColorMatrix in="SourceAlpha" type="matrix" values="0 0 0 0 0 0 0 0 0 0 0 0 0 0 0 0 0 0 127 0" result="hardAlpha"/>
<feOffset dx="2" dy="2"/>
<feGaussianBlur stdDeviation="1"/>
<feComposite in2="hardAlpha" operator="out"/>
<feColorMatrix type="matrix" values="0 0 0 0 0 0 0 0 0 0 0 0 0 0 0 0 0 0 0.18 0"/>
<feBlend mode="normal" in2="BackgroundImageFix" result="effect1_dropShadow_845_7576"/>
<feBlend mode="normal" in="SourceGraphic" in2="effect1_dropShadow_845_7576" result="shape"/>
<feColorMatrix in="SourceAlpha" type="matrix" values="0 0 0 0 0 0 0 0 0 0 0 0 0 0 0 0 0 0 127 0" result="hardAlpha"/>
<feOffset dx="3"/>
<feGaussianBlur stdDeviation="10"/>
<feComposite in2="hardAlpha" operator="arithmetic" k2="-1" k3="1"/>
<feColorMatrix type="matrix" values="0 0 0 0 0 0 0 0 0 0 0 0 0 0 0 0 0 0 0.29 0"/>
<feBlend mode="normal" in2="shape" result="effect2_innerShadow_845_7576"/>
</filter>
<radialGradient id="paint0_radial_845_7576" cx="0" cy="0" r="1" gradientUnits="userSpaceOnUse" gradientTransform="translate(256 345.5) rotate(90) scale(345.5 256)">
<stop stop-color="#0E25F0"/>
<stop offset="0.708333" stop-color="#14C9C9" stop-opacity="0.291667"/>
<stop offset="1" stop-color="#490EF0" stop-opacity="0"/>
</radialGradient>
<clipPath id="clip0_845_7576">
<rect width="1920" height="1080" fill="white"/>
</clipPath>
</defs>
</svg>
